<?xml version="1.0" encoding="utf-8"?>
<!-- Generator: Adobe Illustrator 21.0.0, SVG Export Plug-In . SVG Version: 6.00 Build 0)  -->
<svg version="1.1" baseProfile="tiny" id="Слой_1"
	 xmlns="http://www.w3.org/2000/svg" xmlns:xlink="http://www.w3.org/1999/xlink" x="0px" y="0px" viewBox="0 0 18.2 18.8"
	 xml:space="preserve">
<g>
	<path fill="#FF091D" d="M1.6,0C1.7,0,1.9,0.1,2,0.2L10.8,9c0.1,0.1,0.2,0.3,0.2,0.4s-0.1,0.3-0.2,0.4L2,18.6
		c-0.1,0.1-0.3,0.2-0.4,0.2s-0.3-0.1-0.4-0.2l-0.9-0.9C0.1,17.5,0,17.4,0,17.2s0.1-0.3,0.2-0.4l7.4-7.4L0.2,2C0.1,1.9,0,1.7,0,1.6
		c0-0.2,0.1-0.3,0.2-0.4l0.9-0.9C1.3,0.1,1.4,0,1.6,0z M8.8,0c0.2,0,0.3,0.1,0.4,0.2L18,9c0.1,0.1,0.2,0.3,0.2,0.4S18.1,9.7,18,9.8
		l-8.8,8.8c-0.1,0.1-0.3,0.2-0.4,0.2s-0.3-0.1-0.4-0.2l-0.9-0.9c-0.1-0.1-0.2-0.3-0.2-0.4s0.1-0.3,0.2-0.4l7.4-7.4L7.4,2
		C7.3,1.9,7.2,1.7,7.2,1.6c0-0.2,0.1-0.3,0.2-0.4l0.9-0.9C8.5,0.1,8.6,0,8.8,0z"/>
</g>
</svg>
