<?xml version="1.0" encoding="utf-8"?>
<!-- Generator: Adobe Illustrator 21.0.0, SVG Export Plug-In . SVG Version: 6.00 Build 0)  -->
<svg version="1.1" baseProfile="tiny" id="Слой_1"
	 xmlns="http://www.w3.org/2000/svg" xmlns:xlink="http://www.w3.org/1999/xlink" x="0px" y="0px" viewBox="0 0 47.8 26"
	 xml:space="preserve">
<g>
	<polygon fill="none" points="24.9,12.2 24.9,12.2 24.9,12.2 	"/>
	<path fill="#FFCA35" d="M40.7,3.9h-5.2V1c0-0.5-0.4-1-1-1H10.9c-0.5,0-1,0.4-1,1v4.3H5.1c-0.5,0-1,0.4-1,1s0.4,1,1,1h5.8
		c0.5,0,1-0.4,1-1V1.9h21.7v19H22.2c0,0-0.1,0-0.1,0l-0.2,0l-0.1-0.2c-0.6-1.4-2-2.4-3.5-2.4c-1.5,0-2.9,0.9-3.5,2.4L14.8,21l-0.2,0
		c-0.1,0-0.1,0-0.2,0h-2.6v-4.4c0-0.5-0.4-1-1-1H5.1c-0.5,0-1,0.4-1,1c0,0.5,0.4,1,1,1h4.8v4.3c0,0.5,0.4,1,1,1h3.8l0,0.2
		c0.4,1.7,1.9,2.9,3.7,2.9c1.8,0,3.3-1.2,3.7-2.9l0-0.2h14.5l0,0.2c0.4,1.7,1.9,2.9,3.7,2.9c1.8,0,3.3-1.2,3.7-2.9l0-0.2h2.8
		c0.5,0,1-0.4,1-1v-9.8c0-2.5-0.7-4.6-2.1-6.1C44.5,4.6,42.7,3.9,40.7,3.9z M18.4,24c-1,0-1.8-0.8-1.8-1.8c0-1,0.8-1.8,1.8-1.8
		c1,0,1.8,0.8,1.8,1.8C20.2,23.2,19.4,24,18.4,24z M40.3,24c-1,0-1.8-0.8-1.8-1.8c0-1,0.8-1.8,1.8-1.8c1,0,1.8,0.8,1.8,1.8
		C42.1,23.2,41.3,24,40.3,24z M45.9,20.9h-2l-0.1-0.1c-0.6-1.4-2-2.4-3.5-2.4c-1.5,0-2.9,0.9-3.5,2.4l-0.1,0.1h-1.3V5.8h5.2
		c3.2,0,5.2,2.3,5.2,6.3V20.9z"/>
	<path fill="#FFCA35" d="M24.8,12L24.8,12L24.8,12C24.8,11.9,24.8,11.9,24.8,12L24.8,12l0.2,0L24.8,12l0.1-0.3l0-0.2
		c0,0,0-0.1,0-0.2l0,0l0,0l0-0.1c0,0,0,0,0,0c0,0,0-0.1,0-0.1c0,0,0,0,0-0.1l-0.1-0.2c0-0.1-0.1-0.1-0.1-0.1l-2.9-2.9
		c-0.4-0.4-1-0.4-1.4,0c-0.4,0.4-0.4,1,0,1.4l1.2,1.2H1c-0.5,0-1,0.4-1,1s0.4,1,1,1h20.7l-1.4,1.5c-0.4,0.4-0.4,1,0,1.4
		c0.4,0.4,1,0.4,1.4,0l3.1-3.1l0.2,0.1c0,0,0,0,0,0L24.8,12C24.8,12,24.8,12,24.8,12z"/>
</g>
</svg>
