<?xml version="1.0" encoding="utf-8"?>
<!-- Generator: Adobe Illustrator 21.0.0, SVG Export Plug-In . SVG Version: 6.00 Build 0)  -->
<svg version="1.1" baseProfile="tiny" id="Слой_1"
	 xmlns="http://www.w3.org/2000/svg" xmlns:xlink="http://www.w3.org/1999/xlink" x="0px" y="0px" viewBox="0 0 28.9 28.9"
	 xml:space="preserve">
<g>
	<path fill="#FFCA35" d="M26.5,2.7h-3.9V0.9c0-0.5-0.4-0.9-0.9-0.9c-0.5,0-0.9,0.4-0.9,0.9v1.8h-5.4V0.9c0-0.5-0.4-0.9-0.9-0.9
		c-0.5,0-0.9,0.4-0.9,0.9v1.8H8.1V0.9C8.1,0.4,7.7,0,7.2,0C6.7,0,6.3,0.4,6.3,0.9v1.8H2.4C1.1,2.7,0,3.8,0,5.1v21.3
		c0,1.3,1.1,2.4,2.4,2.4h24.1c1.3,0,2.4-1.1,2.4-2.4V5.1C28.9,3.8,27.8,2.7,26.5,2.7L26.5,2.7z M27.1,26.5c0,0.3-0.3,0.6-0.6,0.6
		H2.4c-0.3,0-0.6-0.3-0.6-0.6V5.1c0-0.3,0.3-0.6,0.6-0.6h3.9v1.8c0,0.5,0.4,0.9,0.9,0.9c0.5,0,0.9-0.4,0.9-0.9V4.5h5.4v1.8
		c0,0.5,0.4,0.9,0.9,0.9c0.5,0,0.9-0.4,0.9-0.9V4.5h5.4v1.8c0,0.5,0.4,0.9,0.9,0.9c0.5,0,0.9-0.4,0.9-0.9V4.5h3.9
		c0.3,0,0.6,0.3,0.6,0.6V26.5z M27.1,26.5"/>
	<rect x="6.3" y="10.8" fill="#FFCA35" width="3.6" height="2.7"/>
	<rect x="6.3" y="15.3" fill="#FFCA35" width="3.6" height="2.7"/>
	<rect x="6.3" y="19.8" fill="#FFCA35" width="3.6" height="2.7"/>
	<rect x="12.6" y="19.8" fill="#FFCA35" width="3.6" height="2.7"/>
	<rect x="12.6" y="15.3" fill="#FFCA35" width="3.6" height="2.7"/>
	<rect x="12.6" y="10.8" fill="#FFCA35" width="3.6" height="2.7"/>
	<rect x="18.9" y="19.8" fill="#FFCA35" width="3.6" height="2.7"/>
	<rect x="18.9" y="15.3" fill="#FFCA35" width="3.6" height="2.7"/>
	<rect x="18.9" y="10.8" fill="#FFCA35" width="3.6" height="2.7"/>
</g>
</svg>
