<?xml version="1.0" encoding="utf-8"?>
<!-- Generator: Adobe Illustrator 21.0.0, SVG Export Plug-In . SVG Version: 6.00 Build 0)  -->
<svg version="1.1" baseProfile="tiny" id="Слой_1"
	 xmlns="http://www.w3.org/2000/svg" xmlns:xlink="http://www.w3.org/1999/xlink" x="0px" y="0px" viewBox="0 0 17.6 17.6"
	 xml:space="preserve">
<g>
	<path fill="#DC0606" d="M17.6,14.2c0,0.4-0.1,0.7-0.4,1l-2,2c-0.3,0.3-0.6,0.4-1,0.4s-0.7-0.1-1-0.4l-4.4-4.4l-4.4,4.4
		c-0.3,0.3-0.6,0.4-1,0.4s-0.7-0.1-1-0.4l-2-2c-0.3-0.3-0.4-0.6-0.4-1s0.1-0.7,0.4-1l4.4-4.4L0.4,4.4C0.1,4.2,0,3.8,0,3.4
		c0-0.4,0.1-0.7,0.4-1l2-2C2.7,0.1,3,0,3.4,0s0.7,0.1,1,0.4l4.4,4.4l4.4-4.4c0.3-0.3,0.6-0.4,1-0.4s0.7,0.1,1,0.4l2,2
		c0.3,0.3,0.4,0.6,0.4,1c0,0.4-0.1,0.7-0.4,1l-4.4,4.4l4.4,4.4C17.5,13.4,17.6,13.8,17.6,14.2z"/>
</g>
</svg>
