<?xml version="1.0" encoding="utf-8"?>
<!-- Generator: Adobe Illustrator 21.0.0, SVG Export Plug-In . SVG Version: 6.00 Build 0)  -->
<svg version="1.1" baseProfile="tiny" id="Слой_1"
	 xmlns="http://www.w3.org/2000/svg" xmlns:xlink="http://www.w3.org/1999/xlink" x="0px" y="0px" viewBox="0 0 15 11"
	 xml:space="preserve">
<g>
	<path fill="#FFFFFF" d="M14.5,2.2c0,0.2-0.1,0.4-0.3,0.6L7.7,9.4l-1.2,1.2c-0.2,0.2-0.4,0.3-0.6,0.3c-0.2,0-0.4-0.1-0.6-0.3L4,9.4
		L0.8,6.1C0.6,5.9,0.5,5.7,0.5,5.5c0-0.2,0.1-0.4,0.3-0.6L2,3.7c0.2-0.2,0.4-0.3,0.6-0.3c0.2,0,0.4,0.1,0.6,0.3l2.7,2.7l5.9-5.9
		c0.2-0.2,0.4-0.3,0.6-0.3c0.2,0,0.4,0.1,0.6,0.3l1.2,1.2C14.4,1.8,14.5,2,14.5,2.2z"/>
</g>
</svg>
