<?xml version="1.0" encoding="utf-8"?>
<!-- Generator: Adobe Illustrator 21.0.0, SVG Export Plug-In . SVG Version: 6.00 Build 0)  -->
<svg version="1.1" baseProfile="tiny" id="Слой_1"
	 xmlns="http://www.w3.org/2000/svg" xmlns:xlink="http://www.w3.org/1999/xlink" x="0px" y="0px" viewBox="0 0 23.1 20.2"
	 xml:space="preserve">
<g>
	<path fill="#DC0606" d="M23.1,7.2v4.8c0,0.1,0,0.3-0.1,0.3c-0.1,0.1-0.2,0.1-0.3,0.1h-1.4v6.3c0,0.4-0.1,0.7-0.4,1s-0.6,0.4-1,0.4
		H3.4c-0.4,0-0.7-0.1-1-0.4s-0.4-0.6-0.4-1v-6.3H0.5c-0.1,0-0.3,0-0.3-0.1C0,12.3,0,12.2,0,12.1V7.2C0,7.1,0,7,0.1,6.9
		c0.1-0.1,0.2-0.1,0.3-0.1h6.6c-0.9,0-1.7-0.3-2.4-1s-1-1.5-1-2.4s0.3-1.7,1-2.4c0.7-0.7,1.5-1,2.4-1C8.2,0,9,0.4,9.6,1.2l1.9,2.5
		l1.9-2.5C14.1,0.4,15,0,16,0c0.9,0,1.7,0.3,2.4,1c0.7,0.7,1,1.5,1,2.4s-0.3,1.7-1,2.4c-0.7,0.7-1.5,1-2.4,1h6.6
		c0.1,0,0.3,0,0.3,0.1C23.1,7,23.1,7.1,23.1,7.2z M7.1,4.8H10L8.2,2.4c-0.3-0.3-0.6-0.5-1-0.5c-0.4,0-0.7,0.1-1,0.4S5.7,3,5.7,3.4
		s0.1,0.7,0.4,1C6.4,4.7,6.7,4.8,7.1,4.8z M14,17.5v-0.8V9.6V6.8H9.2v2.9v7.1v0.8c0,0.3,0.1,0.4,0.3,0.6c0.2,0.1,0.4,0.2,0.7,0.2H13
		c0.3,0,0.5-0.1,0.7-0.2C13.9,18,14,17.8,14,17.5z M17.1,4.4c0.3-0.3,0.4-0.6,0.4-1s-0.1-0.7-0.4-1s-0.6-0.4-1-0.4
		c-0.4,0-0.8,0.2-1,0.5l-1.9,2.4H16C16.4,4.8,16.8,4.7,17.1,4.4z"/>
</g>
</svg>
