<?xml version="1.0" encoding="utf-8"?>
<!-- Generator: Adobe Illustrator 21.0.0, SVG Export Plug-In . SVG Version: 6.00 Build 0)  -->
<svg version="1.1" baseProfile="tiny" id="Слой_1"
	 xmlns="http://www.w3.org/2000/svg" xmlns:xlink="http://www.w3.org/1999/xlink" x="0px" y="0px" viewBox="0 0 32.1 28"
	 xml:space="preserve">
<g>
	<path d="M24,7.8c-1-0.4-1.2-0.6-1.2-1c0-0.3,0.3-0.7,1-0.7c0.6,0,1.1,0.3,1.1,0.3c0.1,0,0.1,0,0.2,0c0.1,0,0.3-0.1,0.3-0.2l0.2-0.4
		c0.1-0.2,0-0.3-0.1-0.4C25,5.2,24.2,5,24.2,5c0,0-0.1,0-0.1-0.1l0-0.6C24.2,4.1,24,4,23.8,4h-0.3c-0.2,0-0.4,0.2-0.4,0.4l0,0.7
		c0,0.1-0.1,0.1-0.1,0.1c-1,0.2-1.6,0.9-1.6,1.8c0,1.1,0.9,1.6,1.9,2c0.8,0.3,1.1,0.6,1.1,1.1c0,0.5-0.5,0.9-1.1,0.9
		c-0.6,0-1.3-0.4-1.3-0.4c0,0-0.1,0-0.2,0c-0.1,0-0.3,0.1-0.3,0.2l-0.2,0.5c-0.1,0.2,0,0.3,0.1,0.4c0.5,0.2,1.4,0.4,1.4,0.4
		c0,0,0.1,0,0.1,0.1v0.7c0,0.2,0.2,0.4,0.4,0.4h0.3c0.2,0,0.4-0.2,0.4-0.4v-0.7c0-0.1,0-0.1,0.1-0.1c1-0.2,1.7-1,1.7-1.9
		C25.8,9,25.3,8.3,24,7.8L24,7.8z M24,7.8"/>
	<path d="M23.6,0c-4.7,0-8.5,3.8-8.5,8.5c0,4.7,3.8,8.5,8.5,8.5c4.7,0,8.5-3.8,8.5-8.5C32.1,3.8,28.3,0,23.6,0L23.6,0z M23.6,15
		c-3.6,0-6.5-2.9-6.5-6.5C17.1,4.9,20,2,23.6,2c3.6,0,6.5,2.9,6.5,6.5C30.2,12.1,27.2,15,23.6,15L23.6,15z M23.6,15"/>
	<path d="M30.4,21.1c-1.8,1-4.3,1.9-6.8,2.3c-2.2,0.3-6.4-0.5-6.4-1.5c0-0.4,3.6,0.9,5.8,0.3c1.7-0.5,1.4-2,0.5-2.2
		c-0.9-0.2-6.3-2.2-8.5-2.2c-1.1,0-3.7,0.4-5,0.6c-0.4,0.1-0.7,0.1-0.7,0.5c-0.1,2-0.4,6-0.5,8.1c0,0,0.1,0.6,0.5,0.2
		c0.5-0.5,1.3-1,2-0.8c1.1,0.2,10.5,2,11.8,1.7c1.9-0.4,7.1-3.6,8.2-4.5C32.9,22,31.7,20.4,30.4,21.1L30.4,21.1z M30.4,21.1"/>
	<path d="M6.7,18.3l-4.9-0.2c-0.4,0-0.8,0.3-0.9,0.6L0,26.9c-0.1,0.4,0.1,0.7,0.5,0.7l5.5,0c0.4,0,0.7-0.3,0.7-0.7L7.4,19
		C7.4,18.7,7.1,18.3,6.7,18.3L6.7,18.3z M3.8,26.5c-0.8,0-1.4-0.6-1.4-1.4c0-0.8,0.6-1.4,1.4-1.4c0.8,0,1.4,0.6,1.4,1.4
		C5.2,25.9,4.6,26.5,3.8,26.5L3.8,26.5z M3.8,26.5"/>
</g>
</svg>
