<?xml version="1.0" encoding="utf-8"?>
<!-- Generator: Adobe Illustrator 21.0.0, SVG Export Plug-In . SVG Version: 6.00 Build 0)  -->
<svg version="1.1" baseProfile="tiny" id="Слой_1"
	 xmlns="http://www.w3.org/2000/svg" xmlns:xlink="http://www.w3.org/1999/xlink" x="0px" y="0px" viewBox="0 0 40 48.3"
	 xml:space="preserve">
<g>
	<path fill="#FFCA35" d="M19.2,37.7c-0.2,0-0.4,0.2-0.4,0.4v7.5c0,0.2,0.2,0.4,0.4,0.4c0.2,0,0.4-0.2,0.4-0.4v-7.5
		C19.6,37.9,19.5,37.7,19.2,37.7L19.2,37.7z M19.2,37.7"/>
	<path fill="#FFCA35" d="M20.8,37.7c-0.2,0-0.4,0.2-0.4,0.4v7.5c0,0.2,0.2,0.4,0.4,0.4c0.2,0,0.4-0.2,0.4-0.4v-7.5
		C21.1,37.9,21,37.7,20.8,37.7L20.8,37.7z M20.8,37.7"/>
	<path fill="#FFCA35" d="M20.4,47.8l-0.8-2.3c-0.1-0.2-0.3-0.3-0.5-0.2c-0.2,0.1-0.3,0.3-0.2,0.5l0.8,2.3c0.1,0.2,0.2,0.3,0.4,0.3
		c0,0,0.1,0,0.1,0C20.3,48.2,20.4,48,20.4,47.8L20.4,47.8z M20.4,47.8"/>
	<path fill="#FFCA35" d="M20.9,45.3c-0.2-0.1-0.4,0-0.5,0.2l-0.8,2.3c-0.1,0.2,0,0.4,0.2,0.5c0,0,0.1,0,0.1,0c0.2,0,0.3-0.1,0.4-0.3
		l0.8-2.3C21.2,45.6,21.1,45.4,20.9,45.3L20.9,45.3z M20.9,45.3"/>
	<path fill="#FFCA35" d="M22.3,36.2h-4.5c-0.2,0-0.4,0.2-0.4,0.4c0,0.2,0.2,0.4,0.4,0.4h4.5c0.2,0,0.4-0.2,0.4-0.4
		C22.6,36.4,22.5,36.2,22.3,36.2L22.3,36.2z M22.3,36.2"/>
	<path fill="#FFCA35" d="M17,34c-0.2,0-0.4,0.2-0.4,0.4v1.5c0,0.2,0.2,0.4,0.4,0.4c0.2,0,0.4-0.2,0.4-0.4v-1.5
		C17.4,34.1,17.2,34,17,34L17,34z M17,34"/>
	<path fill="#FFCA35" d="M17.7,35.5H17c-0.2,0-0.4,0.2-0.4,0.4c0,0.2,0.2,0.4,0.4,0.4h0.8c0.2,0,0.4-0.2,0.4-0.4
		C18.1,35.6,17.9,35.5,17.7,35.5L17.7,35.5z M17.7,35.5"/>
	<path fill="#FFCA35" d="M17.7,35.5c-0.2,0-0.4,0.2-0.4,0.4v0.8c0,0.2,0.2,0.4,0.4,0.4c0.2,0,0.4-0.2,0.4-0.4v-0.8
		C18.1,35.6,17.9,35.5,17.7,35.5L17.7,35.5z M17.7,35.5"/>
	<path fill="#FFCA35" d="M19.2,34H17c-0.2,0-0.4,0.2-0.4,0.4c0,0.2,0.2,0.4,0.4,0.4h2.3c0.2,0,0.4-0.2,0.4-0.4
		C19.6,34.1,19.5,34,19.2,34L19.2,34z M19.2,34"/>
	<path fill="#FFCA35" d="M17.7,33.2c-0.2,0-0.4,0.2-0.4,0.4v0.8c0,0.2,0.2,0.4,0.4,0.4c0.2,0,0.4-0.2,0.4-0.4v-0.8
		C18.1,33.4,17.9,33.2,17.7,33.2L17.7,33.2z M17.7,33.2"/>
	<path fill="#FFCA35" d="M23,34c-0.2,0-0.4,0.2-0.4,0.4v1.5c0,0.2,0.2,0.4,0.4,0.4c0.2,0,0.4-0.2,0.4-0.4v-1.5
		C23.4,34.1,23.2,34,23,34L23,34z M23,34"/>
	<path fill="#FFCA35" d="M23,34h-2.3c-0.2,0-0.4,0.2-0.4,0.4c0,0.2,0.2,0.4,0.4,0.4H23c0.2,0,0.4-0.2,0.4-0.4
		C23.4,34.1,23.2,34,23,34L23,34z M23,34"/>
	<path fill="#FFCA35" d="M22.3,33.2c-0.2,0-0.4,0.2-0.4,0.4v0.8c0,0.2,0.2,0.4,0.4,0.4c0.2,0,0.4-0.2,0.4-0.4v-0.8
		C22.6,33.4,22.5,33.2,22.3,33.2L22.3,33.2z M22.3,33.2"/>
	<path fill="#FFCA35" d="M23,35.5h-0.8c-0.2,0-0.4,0.2-0.4,0.4c0,0.2,0.2,0.4,0.4,0.4H23c0.2,0,0.4-0.2,0.4-0.4
		C23.4,35.6,23.2,35.5,23,35.5L23,35.5z M23,35.5"/>
	<path fill="#FFCA35" d="M22.3,35.5c-0.2,0-0.4,0.2-0.4,0.4v0.8c0,0.2,0.2,0.4,0.4,0.4c0.2,0,0.4-0.2,0.4-0.4v-0.8
		C22.6,35.6,22.5,35.5,22.3,35.5L22.3,35.5z M22.3,35.5"/>
	<path fill="#FFCA35" d="M21.5,31.7h-3c-0.2,0-0.4,0.2-0.4,0.4c0,0.2,0.2,0.4,0.4,0.4h3c0.2,0,0.4-0.2,0.4-0.4
		C21.9,31.9,21.7,31.7,21.5,31.7L21.5,31.7z M21.5,31.7"/>
	<path fill="#FFCA35" d="M23,30.2h-6c-0.2,0-0.4,0.2-0.4,0.4c0,0.2,0.2,0.4,0.4,0.4h6c0.2,0,0.4-0.2,0.4-0.4
		C23.4,30.4,23.2,30.2,23,30.2L23,30.2z M23,30.2"/>
	<path fill="#FFCA35" d="M23,28.7h-6c-0.2,0-0.4,0.2-0.4,0.4c0,0.2,0.2,0.4,0.4,0.4h6c0.2,0,0.4-0.2,0.4-0.4
		C23.4,28.8,23.2,28.7,23,28.7L23,28.7z M23,28.7"/>
	<path fill="#FFCA35" d="M17.9,31c-0.2-0.1-0.4,0-0.5,0.2l-0.8,1.5c-0.1,0.2,0,0.4,0.2,0.5c0.1,0,0.1,0,0.2,0c0.1,0,0.3-0.1,0.3-0.2
		l0.8-1.5C18.2,31.3,18.1,31.1,17.9,31L17.9,31z M17.9,31"/>
	<path fill="#FFCA35" d="M23.4,32.7l-0.8-1.5c-0.1-0.2-0.3-0.3-0.5-0.2c-0.2,0.1-0.3,0.3-0.2,0.5l0.8,1.5c0.1,0.1,0.2,0.2,0.3,0.2
		c0.1,0,0.1,0,0.2,0C23.4,33.1,23.4,32.8,23.4,32.7L23.4,32.7z M23.4,32.7"/>
	<path fill="#FFCA35" d="M17,27.2c-0.2,0-0.4,0.2-0.4,0.4v1.5c0,0.2,0.2,0.4,0.4,0.4c0.2,0,0.4-0.2,0.4-0.4v-1.5
		C17.4,27.3,17.2,27.2,17,27.2L17,27.2z M17,27.2"/>
	<path fill="#FFCA35" d="M23,27.2c-0.2,0-0.4,0.2-0.4,0.4v1.5c0,0.2,0.2,0.4,0.4,0.4c0.2,0,0.4-0.2,0.4-0.4v-1.5
		C23.4,27.3,23.2,27.2,23,27.2L23,27.2z M23,27.2"/>
	<path fill="#FFCA35" d="M19.2,34c-0.2,0-0.4,0.2-0.4,0.4v0.8c0,0.2,0.2,0.4,0.4,0.4c0.2,0,0.4-0.2,0.4-0.4v-0.8
		C19.6,34.1,19.5,34,19.2,34L19.2,34z M19.2,34"/>
	<path fill="#FFCA35" d="M20.8,34c-0.2,0-0.4,0.2-0.4,0.4v0.8c0,0.2,0.2,0.4,0.4,0.4c0.2,0,0.4-0.2,0.4-0.4v-0.8
		C21.1,34.1,21,34,20.8,34L20.8,34z M20.8,34"/>
	<path fill="#FFCA35" d="M17.9,25.7c-0.2-0.1-0.4,0-0.5,0.2l-0.8,1.5c-0.1,0.2,0,0.4,0.2,0.5c0.1,0,0.1,0,0.2,0
		c0.1,0,0.3-0.1,0.3-0.2l0.8-1.5C18.2,26,18.1,25.8,17.9,25.7L17.9,25.7z M17.9,25.7"/>
	<path fill="#FFCA35" d="M23.4,27.4l-0.8-1.5c-0.1-0.2-0.3-0.3-0.5-0.2c-0.2,0.1-0.3,0.3-0.2,0.5l0.8,1.5c0.1,0.1,0.2,0.2,0.3,0.2
		c0.1,0,0.1,0,0.2,0C23.4,27.8,23.4,27.6,23.4,27.4L23.4,27.4z M23.4,27.4"/>
	<path fill="#FFCA35" d="M17.7,20.4c-0.2,0-0.4,0.2-0.4,0.4V26c0,0.2,0.2,0.4,0.4,0.4c0.2,0,0.4-0.2,0.4-0.4v-5.3
		C18.1,20.5,17.9,20.4,17.7,20.4L17.7,20.4z M17.7,20.4"/>
	<path fill="#FFCA35" d="M22.3,20.4c-0.2,0-0.4,0.2-0.4,0.4V26c0,0.2,0.2,0.4,0.4,0.4c0.2,0,0.4-0.2,0.4-0.4v-5.3
		C22.6,20.5,22.5,20.4,22.3,20.4L22.3,20.4z M22.3,20.4"/>
	<path fill="#FFCA35" d="M23.8,18.9h-7.5c-0.2,0-0.4,0.2-0.4,0.4c0,0.2,0.2,0.4,0.4,0.4h7.5c0.2,0,0.4-0.2,0.4-0.4
		C24.2,19,24,18.9,23.8,18.9L23.8,18.9z M23.8,18.9"/>
	<path fill="#FFCA35" d="M23.8,16.6c-0.2,0-0.4,0.2-0.4,0.4v2.3c0,0.2,0.2,0.4,0.4,0.4c0.2,0,0.4-0.2,0.4-0.4V17
		C24.2,16.8,24,16.6,23.8,16.6L23.8,16.6z M23.8,16.6"/>
	<path fill="#FFCA35" d="M16.2,16.6c-0.2,0-0.4,0.2-0.4,0.4v2.3c0,0.2,0.2,0.4,0.4,0.4c0.2,0,0.4-0.2,0.4-0.4V17
		C16.6,16.8,16.4,16.6,16.2,16.6L16.2,16.6z M16.2,16.6"/>
	<path fill="#FFCA35" d="M27.8,11.4c-0.2-0.1-0.4-0.1-0.5,0.1l-3.8,5.3c-0.1,0.2-0.1,0.4,0.1,0.5c0.1,0,0.1,0.1,0.2,0.1
		c0.1,0,0.2-0.1,0.3-0.2l3.8-5.3C28,11.7,27.9,11.5,27.8,11.4L27.8,11.4z M27.8,11.4"/>
	<path fill="#FFCA35" d="M16.5,16.7l-3.8-4.5c-0.1-0.2-0.4-0.2-0.5,0c-0.2,0.1-0.2,0.4,0,0.5l3.8,4.5c0.1,0.1,0.2,0.1,0.3,0.1
		c0.1,0,0.2,0,0.2-0.1C16.6,17.1,16.6,16.9,16.5,16.7L16.5,16.7z M16.5,16.7"/>
	<path fill="#FFCA35" d="M15.5,9.1c-0.2,0-0.4,0.2-0.4,0.4v3.5c0,0.2,0.2,0.4,0.4,0.4c0.2,0,0.4-0.2,0.4-0.4V9.4
		C15.8,9.2,15.7,9.1,15.5,9.1L15.5,9.1z M15.5,9.1"/>
	<path fill="#FFCA35" d="M24.5,9.1c-0.2,0-0.4,0.2-0.4,0.4v3.2c0,0.2,0.2,0.4,0.4,0.4s0.4-0.2,0.4-0.4V9.4
		C24.9,9.2,24.7,9.1,24.5,9.1L24.5,9.1z M24.5,9.1"/>
	<path fill="#FFCA35" d="M20,20.4c-0.2,0-0.4,0.2-0.4,0.4v6.8c0,0.2,0.2,0.4,0.4,0.4c0.2,0,0.4-0.2,0.4-0.4v-6.8
		C20.4,20.5,20.2,20.4,20,20.4L20,20.4z M20,20.4"/>
	<path fill="#FFCA35" d="M24.5,9.1h-9.1c-0.2,0-0.4,0.2-0.4,0.4c0,0.2,0.2,0.4,0.4,0.4h9.1c0.2,0,0.4-0.2,0.4-0.4
		C24.9,9.2,24.7,9.1,24.5,9.1L24.5,9.1z M24.5,9.1"/>
	<path fill="#FFCA35" d="M27.5,1.5c-0.2,0-0.4,0.2-0.4,0.4v9.8c0,0.2,0.2,0.4,0.4,0.4c0.2,0,0.4-0.2,0.4-0.4V1.9
		C27.9,1.7,27.8,1.5,27.5,1.5L27.5,1.5z M27.5,1.5"/>
	<path fill="#FFCA35" d="M12.5,1.5c-0.2,0-0.4,0.2-0.4,0.4v10.6c0,0.2,0.2,0.4,0.4,0.4c0.2,0,0.4-0.2,0.4-0.4V1.9
		C12.8,1.7,12.7,1.5,12.5,1.5L12.5,1.5z M12.5,1.5"/>
	<path fill="#FFCA35" d="M26,0H14c-1,0-1.9,0.8-1.9,1.9c0,0.2,0.2,0.4,0.4,0.4c0.2,0,0.4-0.2,0.4-0.4c0-0.6,0.5-1.1,1.1-1.1H26
		c0.6,0,1.1,0.5,1.1,1.1c0,0.2,0.2,0.4,0.4,0.4c0.2,0,0.4-0.2,0.4-0.4C27.9,0.8,27.1,0,26,0L26,0z M26,0"/>
	<path fill="#FFCA35" d="M15.5,0c-0.2,0-0.4,0.2-0.4,0.4v1.5c0,0.2,0.2,0.4,0.4,0.4c0.2,0,0.4-0.2,0.4-0.4V0.4
		C15.8,0.2,15.7,0,15.5,0L15.5,0z M15.5,0"/>
	<path fill="#FFCA35" d="M17.7,0c-0.2,0-0.4,0.2-0.4,0.4v1.5c0,0.2,0.2,0.4,0.4,0.4c0.2,0,0.4-0.2,0.4-0.4V0.4
		C18.1,0.2,17.9,0,17.7,0L17.7,0z M17.7,0"/>
	<path fill="#FFCA35" d="M20,0c-0.2,0-0.4,0.2-0.4,0.4v1.5c0,0.2,0.2,0.4,0.4,0.4c0.2,0,0.4-0.2,0.4-0.4V0.4C20.4,0.2,20.2,0,20,0
		L20,0z M20,0"/>
	<path fill="#FFCA35" d="M22.3,0c-0.2,0-0.4,0.2-0.4,0.4v1.5c0,0.2,0.2,0.4,0.4,0.4c0.2,0,0.4-0.2,0.4-0.4V0.4
		C22.6,0.2,22.5,0,22.3,0L22.3,0z M22.3,0"/>
	<path fill="#FFCA35" d="M24.5,0c-0.2,0-0.4,0.2-0.4,0.4v1.5c0,0.2,0.2,0.4,0.4,0.4s0.4-0.2,0.4-0.4V0.4C24.9,0.2,24.7,0,24.5,0
		L24.5,0z M24.5,0"/>
	<path fill="#FFCA35" d="M24.5,4.5h-9.1c-0.2,0-0.4,0.2-0.4,0.4c0,0.2,0.2,0.4,0.4,0.4h9.1c0.2,0,0.4-0.2,0.4-0.4
		C24.9,4.7,24.7,4.5,24.5,4.5L24.5,4.5z M24.5,4.5"/>
	<path fill="#FFCA35" d="M17.7,16.6c-0.2,0-0.4,0.2-0.4,0.4v0.8c0,0.2,0.2,0.4,0.4,0.4c0.2,0,0.4-0.2,0.4-0.4V17
		C18.1,16.8,17.9,16.6,17.7,16.6L17.7,16.6z M17.7,16.6"/>
	<path fill="#FFCA35" d="M22.3,16.6c-0.2,0-0.4,0.2-0.4,0.4v0.8c0,0.2,0.2,0.4,0.4,0.4c0.2,0,0.4-0.2,0.4-0.4V17
		C22.6,16.8,22.5,16.6,22.3,16.6L22.3,16.6z M22.3,16.6"/>
	<path fill="#FFCA35" d="M22.3,16.6h-4.5c-0.2,0-0.4,0.2-0.4,0.4c0,0.2,0.2,0.4,0.4,0.4h4.5c0.2,0,0.4-0.2,0.4-0.4
		C22.6,16.8,22.5,16.6,22.3,16.6L22.3,16.6z M22.3,16.6"/>
	<path fill="#FFCA35" d="M23,10.6h-6c-0.2,0-0.4,0.2-0.4,0.4c0,0.2,0.2,0.4,0.4,0.4h6c0.2,0,0.4-0.2,0.4-0.4
		C23.4,10.7,23.2,10.6,23,10.6L23,10.6z M23,10.6"/>
	<path fill="#FFCA35" d="M29.8,4.5h-1.5c-0.2,0-0.4,0.2-0.4,0.4c0,0.2,0.2,0.4,0.4,0.4h1.5c0.2,0,0.4-0.2,0.4-0.4
		C30.2,4.7,30,4.5,29.8,4.5L29.8,4.5z M29.8,4.5"/>
	<path fill="#FFCA35" d="M29.8,8.3h-1.5c-0.2,0-0.4,0.2-0.4,0.4c0,0.2,0.2,0.4,0.4,0.4h1.5c0.2,0,0.4-0.2,0.4-0.4
		C30.2,8.5,30,8.3,29.8,8.3L29.8,8.3z M29.8,8.3"/>
	<path fill="#FFCA35" d="M29.8,4.5c-0.2,0-0.4,0.2-0.4,0.4v3.8c0,0.2,0.2,0.4,0.4,0.4c0.2,0,0.4-0.2,0.4-0.4V4.9
		C30.2,4.7,30,4.5,29.8,4.5L29.8,4.5z M29.8,4.5"/>
	<path fill="#FFCA35" d="M38.9,5.3h-8.3c-0.2,0-0.4,0.2-0.4,0.4c0,0.2,0.2,0.4,0.4,0.4h8.3c0.2,0,0.4-0.2,0.4-0.4
		C39.2,5.5,39.1,5.3,38.9,5.3L38.9,5.3z M38.9,5.3"/>
	<path fill="#FFCA35" d="M39.6,7.5h-9.1c-0.2,0-0.4,0.2-0.4,0.4c0,0.2,0.2,0.4,0.4,0.4h9.1c0.2,0,0.4-0.2,0.4-0.4
		C40,7.7,39.8,7.5,39.6,7.5L39.6,7.5z M39.6,7.5"/>
	<path fill="#FFCA35" d="M40,7.8l-0.8-2.3c-0.1-0.2-0.3-0.3-0.5-0.2c-0.2,0.1-0.3,0.3-0.2,0.5L39.3,8c0.1,0.2,0.2,0.3,0.4,0.3
		c0,0,0.1,0,0.1,0C39.9,8.2,40,8,40,7.8L40,7.8z M40,7.8"/>
	<path fill="#FFCA35" d="M32.8,5.3c-0.2,0-0.4,0.2-0.4,0.4v0.8c0,0.2,0.2,0.4,0.4,0.4c0.2,0,0.4-0.2,0.4-0.4V5.7
		C33.2,5.5,33,5.3,32.8,5.3L32.8,5.3z M32.8,5.3"/>
	<path fill="#FFCA35" d="M34.3,5.3c-0.2,0-0.4,0.2-0.4,0.4v0.8c0,0.2,0.2,0.4,0.4,0.4c0.2,0,0.4-0.2,0.4-0.4V5.7
		C34.7,5.5,34.5,5.3,34.3,5.3L34.3,5.3z M34.3,5.3"/>
	<path fill="#FFCA35" d="M35.8,5.3c-0.2,0-0.4,0.2-0.4,0.4v0.8c0,0.2,0.2,0.4,0.4,0.4c0.2,0,0.4-0.2,0.4-0.4V5.7
		C36.2,5.5,36.1,5.3,35.8,5.3L35.8,5.3z M35.8,5.3"/>
	<path fill="#FFCA35" d="M11.7,4.5h-1.5c-0.2,0-0.4,0.2-0.4,0.4c0,0.2,0.2,0.4,0.4,0.4h1.5c0.2,0,0.4-0.2,0.4-0.4
		C12.1,4.7,11.9,4.5,11.7,4.5L11.7,4.5z M11.7,4.5"/>
	<path fill="#FFCA35" d="M11.7,8.3h-1.5c-0.2,0-0.4,0.2-0.4,0.4c0,0.2,0.2,0.4,0.4,0.4h1.5c0.2,0,0.4-0.2,0.4-0.4
		C12.1,8.5,11.9,8.3,11.7,8.3L11.7,8.3z M11.7,8.3"/>
	<path fill="#FFCA35" d="M10.2,4.5c-0.2,0-0.4,0.2-0.4,0.4v3.8c0,0.2,0.2,0.4,0.4,0.4c0.2,0,0.4-0.2,0.4-0.4V4.9
		C10.6,4.7,10.4,4.5,10.2,4.5L10.2,4.5z M10.2,4.5"/>
	<path fill="#FFCA35" d="M9.4,5.3H1.1c-0.2,0-0.4,0.2-0.4,0.4C0.8,5.9,0.9,6,1.1,6h8.3c0.2,0,0.4-0.2,0.4-0.4
		C9.8,5.5,9.6,5.3,9.4,5.3L9.4,5.3z M9.4,5.3"/>
	<path fill="#FFCA35" d="M9.4,7.5H0.4C0.2,7.5,0,7.7,0,7.9c0,0.2,0.2,0.4,0.4,0.4h9.1c0.2,0,0.4-0.2,0.4-0.4
		C9.8,7.7,9.6,7.5,9.4,7.5L9.4,7.5z M9.4,7.5"/>
	<path fill="#FFCA35" d="M1.3,5.3c-0.2-0.1-0.4,0-0.5,0.2L0,7.8C0,8,0.1,8.2,0.3,8.3c0,0,0.1,0,0.1,0c0.2,0,0.3-0.1,0.4-0.3l0.8-2.3
		C1.6,5.6,1.4,5.4,1.3,5.3L1.3,5.3z M1.3,5.3"/>
	<path fill="#FFCA35" d="M7.2,5.3C7,5.3,6.8,5.5,6.8,5.7v0.8c0,0.2,0.2,0.4,0.4,0.4c0.2,0,0.4-0.2,0.4-0.4V5.7
		C7.5,5.5,7.4,5.3,7.2,5.3L7.2,5.3z M7.2,5.3"/>
	<path fill="#FFCA35" d="M5.7,5.3c-0.2,0-0.4,0.2-0.4,0.4v0.8c0,0.2,0.2,0.4,0.4,0.4C5.9,6.8,6,6.6,6,6.4V5.7C6,5.5,5.9,5.3,5.7,5.3
		L5.7,5.3z M5.7,5.3"/>
	<path fill="#FFCA35" d="M4.2,5.3c-0.2,0-0.4,0.2-0.4,0.4v0.8c0,0.2,0.2,0.4,0.4,0.4c0.2,0,0.4-0.2,0.4-0.4V5.7
		C4.5,5.5,4.4,5.3,4.2,5.3L4.2,5.3z M4.2,5.3"/>
	<path fill="#FFCA35" d="M7.2,9.1C7,9.1,6.8,9.2,6.8,9.4v3.8c0,0.2,0.2,0.4,0.4,0.4c0.2,0,0.4-0.2,0.4-0.4V9.4
		C7.5,9.2,7.4,9.1,7.2,9.1L7.2,9.1z M7.2,9.1"/>
	<path fill="#FFCA35" d="M8.7,9.1c-0.2,0-0.4,0.2-0.4,0.4V14c0,0.2,0.2,0.4,0.4,0.4c0.2,0,0.4-0.2,0.4-0.4V9.4
		C9.1,9.2,8.9,9.1,8.7,9.1L8.7,9.1z M8.7,9.1"/>
	<path fill="#FFCA35" d="M8.9,13.7c-0.2-0.1-0.4-0.1-0.5,0.1l-4.5,6c-0.1,0.2-0.1,0.4,0.1,0.5c0.1,0.1,0.1,0.1,0.2,0.1
		c0.1,0,0.2-0.1,0.3-0.2l4.5-6C9.1,14,9.1,13.8,8.9,13.7L8.9,13.7z M8.9,13.7"/>
	<path fill="#FFCA35" d="M7.4,12.9c-0.2-0.1-0.4,0-0.5,0.1l-3,5.3c-0.1,0.2,0,0.4,0.1,0.5c0.1,0,0.1,0,0.2,0c0.1,0,0.3-0.1,0.3-0.2
		l3-5.3C7.6,13.2,7.5,13,7.4,12.9L7.4,12.9z M7.4,12.9"/>
	<path fill="#FFCA35" d="M4.2,18.1c-0.2,0-0.4,0.2-0.4,0.4V20c0,0.2,0.2,0.4,0.4,0.4c0.2,0,0.4-0.2,0.4-0.4v-1.5
		C4.5,18.3,4.4,18.1,4.2,18.1L4.2,18.1z M4.2,18.1"/>
</g>
</svg>
