<?xml version="1.0" encoding="utf-8"?>
<!-- Generator: Adobe Illustrator 21.0.0, SVG Export Plug-In . SVG Version: 6.00 Build 0)  -->
<svg version="1.1" baseProfile="tiny" id="Слой_1"
	 xmlns="http://www.w3.org/2000/svg" xmlns:xlink="http://www.w3.org/1999/xlink" x="0px" y="0px" viewBox="0 0 37.4 45"
	 xml:space="preserve">
<g>
	<path fill="#FFCA35" d="M37.3,40.1l-6-14.4c-0.2-0.4-0.6-0.5-0.9-0.4c-0.4,0.2-0.5,0.6-0.4,0.9l5.4,13l-4.9-1.4
		c-0.3-0.1-0.7,0-0.8,0.3l-2.5,4.5l-5.8-14c6.7-1.3,11.7-7.2,11.7-14.2c0-8-6.5-14.5-14.5-14.5c-8,0-14.5,6.5-14.5,14.5
		c0,3.2,1.1,6.2,2.9,8.6l-7,17c-0.1,0.3-0.1,0.5,0.1,0.8C0.4,41,0.7,41.1,0.9,41l5.8-1.7l2.9,5.3C9.8,44.9,10,45,10.3,45
		c0,0,0,0,0,0c0.3,0,0.5-0.2,0.6-0.4l5.6-13.4c0.2-0.4,0-0.8-0.4-0.9c-0.4-0.2-0.8,0-0.9,0.4l-5,12.1l-2.5-4.5
		c-0.2-0.3-0.5-0.4-0.8-0.3L2,39.2l6.2-14.9c2.6,2.8,6.4,4.6,10.6,4.6c0.4,0,0.9,0,1.3-0.1l6.5,15.7c0.1,0.3,0.3,0.4,0.6,0.4
		c0,0,0,0,0,0c0.3,0,0.5-0.1,0.6-0.4l2.9-5.3l5.8,1.7c0.3,0.1,0.6,0,0.7-0.2C37.4,40.6,37.4,40.3,37.3,40.1L37.3,40.1z M5.7,14.5
		c0-7.2,5.8-13,13-13c7.2,0,13,5.8,13,13c0,7.2-5.8,13-13,13C11.5,27.5,5.7,21.7,5.7,14.5L5.7,14.5z M5.7,14.5"/>
	<path fill="#FFCA35" d="M27,11.8c-0.1-0.3-0.3-0.4-0.6-0.5l-4.8-0.8l-2.3-4.3c-0.1-0.2-0.4-0.4-0.6-0.4c-0.3,0-0.5,0.1-0.6,0.4
		l-2.3,4.3L11,11.3c-0.3,0-0.5,0.2-0.6,0.5c-0.1,0.3,0,0.5,0.2,0.7L14,16l-0.7,4.8c0,0.3,0.1,0.5,0.3,0.7c0.2,0.2,0.5,0.2,0.7,0.1
		l4.4-2.2l4.4,2.2c0.1,0.1,0.2,0.1,0.3,0.1c0.1,0,0.3,0,0.4-0.1c0.2-0.2,0.3-0.4,0.3-0.7L23.4,16l3.4-3.5C27,12.3,27.1,12,27,11.8
		L27,11.8z M22.1,15.2c-0.2,0.2-0.2,0.4-0.2,0.6l0.6,3.8L19,18c-0.1-0.1-0.2-0.1-0.3-0.1c-0.1,0-0.2,0-0.3,0.1l-3.5,1.7l0.6-3.8
		c0-0.2,0-0.4-0.2-0.6l-2.7-2.8l3.8-0.6c0.2,0,0.4-0.2,0.5-0.4L18.7,8l1.8,3.4c0.1,0.2,0.3,0.3,0.5,0.4l3.8,0.6L22.1,15.2z
		 M22.1,15.2"/>
	<path fill="#FFCA35" d="M29.6,15.2c-0.4-0.1-0.8,0.2-0.8,0.6c-0.7,5-5,8.8-10.1,8.8c-5.6,0-10.2-4.6-10.2-10.2
		c0-5.6,4.6-10.2,10.2-10.2c5.1,0,9.4,3.8,10.1,8.8c0.1,0.4,0.4,0.7,0.8,0.6c0.4-0.1,0.7-0.4,0.6-0.8C29.4,7.2,24.5,2.9,18.7,2.9
		c-6.4,0-11.6,5.2-11.6,11.6c0,6.4,5.2,11.6,11.6,11.6c5.8,0,10.7-4.3,11.5-10.1C30.2,15.6,30,15.2,29.6,15.2L29.6,15.2z M29.6,15.2
		"/>
</g>
</svg>
