<?xml version="1.0" encoding="utf-8"?>
<!-- Generator: Adobe Illustrator 21.0.0, SVG Export Plug-In . SVG Version: 6.00 Build 0)  -->
<svg version="1.1" baseProfile="tiny" id="Слой_1"
	 xmlns="http://www.w3.org/2000/svg" xmlns:xlink="http://www.w3.org/1999/xlink" x="0px" y="0px" viewBox="0 0 45.5 45.5"
	 xml:space="preserve">
<g>
	<path fill="#FFCA35" d="M14.5,30.3c-0.5,0-0.9-0.4-0.9-0.9s0.4-0.9,0.9-0.9c0.5,0,0.9,0.4,0.9,0.9C15.3,29.9,14.9,30.3,14.5,30.3
		L14.5,30.3z M14.5,26.7c-1.5,0-2.7,1.2-2.7,2.7c0,1.5,1.2,2.7,2.7,2.7c1.5,0,2.7-1.2,2.7-2.7C17.1,27.9,15.9,26.7,14.5,26.7
		L14.5,26.7z"/>
	<path fill="#FFCA35" d="M31.1,30.3c-0.5,0-0.9-0.4-0.9-0.9s0.4-0.9,0.9-0.9c0.5,0,0.9,0.4,0.9,0.9C32,29.9,31.6,30.3,31.1,30.3
		L31.1,30.3z M31.1,26.7c-1.5,0-2.7,1.2-2.7,2.7c0,1.5,1.2,2.7,2.7,2.7c1.5,0,2.7-1.2,2.7-2.7C33.7,27.9,32.5,26.7,31.1,26.7
		L31.1,26.7z"/>
	<path fill="#FFCA35" d="M26.3,26.8H22c-0.5,0-0.9,0.4-0.9,0.9c0,0.5,0.4,0.9,0.9,0.9h4.2c0.5,0,0.9-0.4,0.9-0.9
		C27.1,27.2,26.7,26.8,26.3,26.8L26.3,26.8z"/>
	<path fill="#FFCA35" d="M19.3,28.6L19.3,28.6c0.5,0,0.9-0.4,0.9-0.9c0-0.5-0.4-0.9-0.9-0.9h0c-0.5,0-0.9,0.4-0.9,0.9
		C18.4,28.2,18.8,28.6,19.3,28.6L19.3,28.6z"/>
	<path fill="#FFCA35" d="M26.3,30.2L26.3,30.2c-0.5,0-0.9,0.4-0.9,0.9s0.4,0.9,0.9,0.9h0c0.5,0,0.9-0.4,0.9-0.9S26.7,30.2,26.3,30.2
		L26.3,30.2z"/>
	<path fill="#FFCA35" d="M23.5,30.2h-4.2c-0.5,0-0.9,0.4-0.9,0.9c0,0.5,0.4,0.9,0.9,0.9h4.2c0.5,0,0.9-0.4,0.9-0.9
		C24.4,30.6,24,30.2,23.5,30.2L23.5,30.2z"/>
	<path fill="#FFCA35" d="M43.7,42.7v1.1h-42v-1.1H43.7 M32.5,40.7v-2.9h2.2v2.9c0,0.1-0.1,0.2-0.2,0.2h-1.9
		C32.6,40.9,32.5,40.8,32.5,40.7L32.5,40.7z M14.8,40.7v-2.9h16v2.9c0,0.1,0,0.1,0,0.2h-16C14.8,40.8,14.8,40.8,14.8,40.7L14.8,40.7
		z M10.8,40.7v-2.9H13v2.9c0,0.1-0.1,0.2-0.2,0.2h-1.9C10.8,40.9,10.8,40.8,10.8,40.7L10.8,40.7z M36.1,35.2v0.4
		c0,0.2-0.2,0.4-0.4,0.4l0,0H9.9l0,0c-0.2,0-0.4-0.2-0.4-0.4v-0.4H36.1L36.1,35.2z M10.3,27.2c0-1,0.8-1.8,1.8-1.8h21.3
		c1,0,1.8,0.8,1.8,1.8v6.2H10.3V27.2L10.3,27.2z M11.2,23.6H9v-1.1h2.2V23.6L11.2,23.6z M32.5,23.6L32.5,23.6H13l0,0v-4.9
		c0-0.7,0.6-1.4,1.4-1.4h16.9c0.7,0,1.4,0.6,1.4,1.4L32.5,23.6L32.5,23.6L32.5,23.6z M34.3,23.6v-1.1h2.2v1.1H34.3L34.3,23.6z
		 M4.1,18.6L22.8,5.8l18.6,12.8v22.3h-4.9c0-0.1,0-0.1,0-0.2v-3.1c0.8-0.3,1.3-1.1,1.3-2v-1.3c0-0.5-0.4-0.9-0.9-0.9v-6.2
		c0-0.6-0.2-1.3-0.5-1.8h0.9c0.5,0,0.9-0.4,0.9-0.9v-2.8c0-0.5-0.4-0.9-0.9-0.9h-3.1v-2c0-1.7-1.4-3.1-3.1-3.1H14.3
		c-1.7,0-3.1,1.4-3.1,3.1v2H8.1c-0.5,0-0.9,0.4-0.9,0.9v2.8c0,0.5,0.4,0.9,0.9,0.9H9c-0.3,0.5-0.5,1.1-0.5,1.8v6.2
		c-0.5,0-0.9,0.4-0.9,0.9v1.3c0,0.9,0.5,1.7,1.3,2v3.1c0,0.1,0,0.1,0,0.2H4.1V18.6L4.1,18.6z M1.8,16.4L22.8,2l21,14.4l0,0.9h-1.2
		L23.3,4c-0.3-0.2-0.7-0.2-1,0L3,17.3H1.8V16.4L1.8,16.4z M44.6,40.9h-1.5V19h1.5c0.2,0,0.5-0.1,0.6-0.3c0.2-0.2,0.3-0.4,0.3-0.6
		l0-2.2c0,0,0,0,0,0v0c0,0,0,0,0,0c0,0,0,0,0-0.1c0,0,0,0,0,0c0,0,0,0,0,0c0,0,0,0,0,0c0,0,0,0,0,0c0,0,0,0,0,0c0,0,0,0,0,0
		c0,0,0,0,0,0c0,0,0,0,0,0c0,0,0,0,0,0c0,0,0,0,0,0c0,0,0,0,0,0c0,0,0,0,0,0c0,0,0,0,0,0c0,0,0,0,0,0c0,0,0,0,0,0c0,0,0,0,0,0
		c0,0,0,0,0,0c0,0,0,0,0,0l0,0c0,0,0,0,0,0l-21.9-15c-0.3-0.2-0.7-0.2-1,0l-21.9,15l0,0l0,0c0,0,0,0,0,0c0,0,0,0,0,0c0,0,0,0,0,0
		c0,0,0,0,0,0c0,0,0,0,0,0c0,0,0,0,0,0c0,0,0,0,0,0c0,0,0,0,0,0c0,0,0,0,0,0c0,0,0,0,0,0c0,0,0,0,0,0c0,0,0,0,0,0c0,0,0,0,0,0
		c0,0,0,0,0,0c0,0,0,0,0,0c0,0,0,0,0,0c0,0,0,0,0,0c0,0,0,0,0,0c0,0,0,0,0,0.1c0,0,0,0,0,0v0c0,0,0,0,0,0v2.2C0,18.6,0.4,19,0.9,19
		h1.5v21.9H0.9c-0.5,0-0.9,0.4-0.9,0.9v2.8c0,0.5,0.4,0.9,0.9,0.9h43.7c0.5,0,0.9-0.4,0.9-0.9v-2.8C45.5,41.3,45.1,40.9,44.6,40.9
		L44.6,40.9z"/>
</g>
</svg>
