<?xml version="1.0" encoding="utf-8"?>
<!-- Generator: Adobe Illustrator 21.0.0, SVG Export Plug-In . SVG Version: 6.00 Build 0)  -->
<svg version="1.1" baseProfile="tiny" id="Слой_1"
	 xmlns="http://www.w3.org/2000/svg" xmlns:xlink="http://www.w3.org/1999/xlink" x="0px" y="0px" viewBox="0 0 40.3 40.2"
	 xml:space="preserve">
<g>
	<path fill="#FFCA35" stroke="#FFCA35" stroke-width="0.25" stroke-miterlimit="10" d="M22.8,36.9c-0.1-0.1-0.3-0.1-0.4,0
		c-0.1,0.1-0.1,0.3,0,0.4c0.5,0.5,0.5,1.3,0,1.8c-0.5,0.5-1.3,0.5-1.8,0c-0.1-0.1-0.3-0.1-0.4,0c-0.1,0.1-0.1,0.3,0,0.4
		c0.4,0.4,0.8,0.5,1.3,0.5c0.5,0,1-0.2,1.3-0.5C23.5,38.8,23.5,37.7,22.8,36.9L22.8,36.9z M22.8,36.9"/>
	<path fill="#FFCA35" stroke="#FFCA35" stroke-width="0.25" stroke-miterlimit="10" d="M25.9,33.8l-2.4-2.4c-0.1-0.1-0.3-0.1-0.4,0
		c-0.1,0.1-0.1,0.3,0,0.4l2.4,2.4c0.5,0.5,0.5,1.3,0,1.8c-0.5,0.5-1.3,0.5-1.8,0c-0.1-0.1-0.3-0.1-0.4,0c-0.1,0.1-0.1,0.3,0,0.4
		c0.4,0.4,0.8,0.6,1.3,0.6c0.5,0,1-0.2,1.3-0.5C26.6,35.8,26.6,34.6,25.9,33.8L25.9,33.8z M25.9,33.8"/>
	<path fill="#FFCA35" stroke="#FFCA35" stroke-width="0.25" stroke-miterlimit="10" d="M29,30.7l-2.4-2.4c-0.1-0.1-0.3-0.1-0.4,0
		c-0.1,0.1-0.1,0.3,0,0.4l2.4,2.4c0.5,0.5,0.5,1.3,0,1.8c-0.5,0.5-1.3,0.5-1.8,0l-2.4-2.4c-0.1-0.1-0.3-0.1-0.4,0
		c-0.1,0.1-0.1,0.3,0,0.4l2.4,2.4c0.4,0.4,0.8,0.5,1.3,0.5c0.5,0,1-0.2,1.3-0.5C29.7,32.7,29.7,31.5,29,30.7L29,30.7z M29,30.7"/>
	<path fill="#FFCA35" stroke="#FFCA35" stroke-width="0.25" stroke-miterlimit="10" d="M32.1,27.6l-8.2-8.2c-0.1-0.1-0.3-0.1-0.4,0
		c-0.1,0.1-0.1,0.3,0,0.4l8.2,8.2c0.5,0.5,0.5,1.3,0,1.8c-0.5,0.5-1.3,0.5-1.8,0l-2.4-2.4c-0.1-0.1-0.3-0.1-0.4,0
		c-0.1,0.1-0.1,0.3,0,0.4l2.4,2.4c0.4,0.4,0.8,0.5,1.3,0.5c0.5,0,1-0.2,1.3-0.5C32.8,29.6,32.8,28.4,32.1,27.6L32.1,27.6z
		 M32.1,27.6"/>
	<path fill="#FFCA35" stroke="#FFCA35" stroke-width="0.25" stroke-miterlimit="10" d="M8.1,25.7c-1.3-2.6-1.8-5.2-1.8-5.2
		c0-0.2-0.2-0.3-0.4-0.3c-0.2,0-0.3,0.2-0.3,0.4c0,0.1,0.5,2.7,1.8,5.4c0.1,0.1,0.2,0.2,0.3,0.2c0,0,0.1,0,0.1,0
		C8.1,26,8.1,25.9,8.1,25.7L8.1,25.7z M8.1,25.7"/>
	<path fill="#FFCA35" stroke="#FFCA35" stroke-width="0.25" stroke-miterlimit="10" d="M17.3,14.4c-2.1-0.9-3.6-1.7-3.6-1.7
		c-0.2-0.1-0.3,0-0.4,0.1c-0.1,0.2,0,0.3,0.1,0.4c0,0,1.5,0.8,3.7,1.7c0,0,0.1,0,0.1,0c0.1,0,0.2-0.1,0.3-0.2
		C17.5,14.7,17.4,14.5,17.3,14.4L17.3,14.4z M17.3,14.4"/>
	<path fill="#FFCA35" stroke="#FFCA35" stroke-width="0.25" stroke-miterlimit="10" d="M34.3,19.4c-0.2,0-0.3,0.1-0.3,0.3
		c0,0-0.4,3.8-2.2,6.4c-0.1,0.1-0.1,0.3,0.1,0.4c0.1,0,0.1,0.1,0.2,0.1c0.1,0,0.2,0,0.3-0.1c2-2.8,2.3-6.5,2.3-6.7
		C34.6,19.5,34.5,19.4,34.3,19.4L34.3,19.4z M34.3,19.4"/>
	<path fill="#FFCA35" stroke="#FFCA35" stroke-width="0.25" stroke-miterlimit="10" d="M21.5,34.7c-0.7-0.7-1.9-0.7-2.7,0L17.5,36
		c-0.7,0.7-0.7,1.9,0,2.7c0.4,0.4,0.8,0.5,1.3,0.5h0c0.5,0,1-0.2,1.3-0.6l1.3-1.3C22.2,36.6,22.2,35.4,21.5,34.7L21.5,34.7z
		 M21,36.9l-1.3,1.3c-0.2,0.2-0.6,0.4-0.9,0.4h0c-0.3,0-0.6-0.1-0.9-0.4c-0.5-0.5-0.5-1.3,0-1.8l1.3-1.3c0.2-0.2,0.6-0.4,0.9-0.4
		c0.3,0,0.6,0.1,0.9,0.4C21.5,35.6,21.5,36.4,21,36.9L21,36.9z M21,36.9"/>
	<path fill="#FFCA35" stroke="#FFCA35" stroke-width="0.25" stroke-miterlimit="10" d="M18.8,31.2c-0.7-0.7-1.9-0.7-2.7,0l-1.8,1.8
		c-0.7,0.7-0.7,1.9,0,2.7c0.4,0.4,0.8,0.5,1.3,0.5c0.5,0,1-0.2,1.3-0.6l1.8-1.8C19.5,33.1,19.5,31.9,18.8,31.2L18.8,31.2z
		 M18.4,33.4l-1.8,1.8c-0.2,0.2-0.6,0.4-0.9,0.4c-0.3,0-0.6-0.1-0.9-0.4c-0.5-0.5-0.5-1.3,0-1.8l1.8-1.8c0.2-0.2,0.6-0.4,0.9-0.4
		c0.3,0,0.6,0.1,0.9,0.4C18.9,32.1,18.9,32.9,18.4,33.4L18.4,33.4z M18.4,33.4"/>
	<path fill="#FFCA35" stroke="#FFCA35" stroke-width="0.25" stroke-miterlimit="10" d="M15.3,28.5c-0.7-0.7-1.9-0.7-2.7,0l-1.3,1.3
		c-0.4,0.4-0.5,0.8-0.5,1.3c0,0.5,0.2,1,0.6,1.3c0.4,0.4,0.8,0.5,1.3,0.5c0.5,0,1-0.2,1.3-0.5l1.3-1.3c0.4-0.4,0.5-0.8,0.5-1.3
		C15.8,29.3,15.6,28.9,15.3,28.5L15.3,28.5z M14.8,30.7l-1.3,1.3c-0.5,0.5-1.3,0.5-1.8,0c-0.2-0.2-0.4-0.6-0.4-0.9
		c0-0.3,0.1-0.6,0.4-0.9l1.3-1.3c0.2-0.2,0.6-0.4,0.9-0.4c0.3,0,0.6,0.1,0.9,0.4c0.2,0.2,0.4,0.5,0.4,0.9
		C15.2,30.2,15.1,30.5,14.8,30.7L14.8,30.7z M14.8,30.7"/>
	<path fill="#FFCA35" stroke="#FFCA35" stroke-width="0.25" stroke-miterlimit="10" d="M11.7,25.9c-0.7-0.7-1.9-0.7-2.7,0l-0.9,0.9
		c-0.7,0.7-0.7,1.9,0,2.7C8.6,29.8,9,30,9.5,30c0.5,0,1-0.2,1.3-0.5l0.9-0.9c0.4-0.4,0.5-0.8,0.5-1.3C12.3,26.7,12.1,26.2,11.7,25.9
		L11.7,25.9z M11.3,28.1L10.4,29c-0.2,0.2-0.6,0.4-0.9,0.4c-0.3,0-0.6-0.1-0.9-0.4c-0.5-0.5-0.5-1.3,0-1.8l0.9-0.9
		c0.2-0.2,0.6-0.4,0.9-0.4c0.3,0,0.6,0.1,0.9,0.4c0.2,0.2,0.4,0.6,0.4,0.9C11.7,27.5,11.5,27.8,11.3,28.1L11.3,28.1z M11.3,28.1"/>
	<path fill="#FFCA35" stroke="#FFCA35" stroke-width="0.25" stroke-miterlimit="10" d="M27.1,12.1c0-0.2-0.2-0.3-0.4-0.3
		c-0.3,0-6.3,0.9-9,3.6l-2.9,2.9c-0.7,0.7-0.7,1.9,0,2.7c0.4,0.4,0.8,0.5,1.3,0.5c0.5,0,1-0.2,1.3-0.5c1-1,3.8-3.3,5.1-2
		c0.1,0.1,0.3,0.1,0.4,0c0.1-0.1,0.1-0.3,0-0.4c-2-2-5.8,1.8-6,2c-0.5,0.5-1.3,0.5-1.8,0c-0.5-0.5-0.5-1.3,0-1.8l2.9-2.9
		c2.5-2.5,8.6-3.4,8.7-3.4C27,12.4,27.1,12.3,27.1,12.1L27.1,12.1z M27.1,12.1"/>
	<path fill="#FFCA35" stroke="#FFCA35" stroke-width="0.25" stroke-miterlimit="10" d="M35.8,19l-8.4-8.4c-0.1-0.1-0.3-0.1-0.4,0
		c-0.1,0.1-0.1,0.3,0,0.4l8.4,8.4c0.1,0.1,0.1,0.1,0.2,0.1c0.1,0,0.2,0,0.2-0.1C36,19.3,36,19.1,35.8,19L35.8,19z M35.8,19"/>
	<path fill="#FFCA35" stroke="#FFCA35" stroke-width="0.25" stroke-miterlimit="10" d="M38.9,17.7L28.8,7.5c-0.1-0.1-0.3-0.1-0.4,0
		c-0.1,0.1-0.1,0.3,0,0.4l10.2,10.2c0.1,0.1,0.1,0.1,0.2,0.1c0.1,0,0.2,0,0.2-0.1C39.1,18,39.1,17.8,38.9,17.7L38.9,17.7z
		 M38.9,17.7"/>
	<path fill="#FFCA35" stroke="#FFCA35" stroke-width="0.25" stroke-miterlimit="10" d="M28.8,9.3c-0.1-0.1-0.3-0.1-0.4,0L27,10.6
		c-0.1,0.1-0.1,0.3,0,0.4c0.1,0.1,0.1,0.1,0.2,0.1c0.1,0,0.2,0,0.2-0.1l1.3-1.3C28.9,9.6,28.9,9.4,28.8,9.3L28.8,9.3z M28.8,9.3"/>
	<path fill="#FFCA35" stroke="#FFCA35" stroke-width="0.25" stroke-miterlimit="10" d="M37.2,17.7c-0.1-0.1-0.3-0.1-0.4,0L35.4,19
		c-0.1,0.1-0.1,0.3,0,0.4c0.1,0.1,0.1,0.1,0.2,0.1c0.1,0,0.2,0,0.2-0.1l1.3-1.3C37.3,18,37.3,17.8,37.2,17.7L37.2,17.7z M37.2,17.7"
		/>
	<path fill="#FFCA35" stroke="#FFCA35" stroke-width="0.25" stroke-miterlimit="10" d="M36.1,0.2c-0.1-0.1-0.3-0.1-0.4,0l-7.3,7.3
		c-0.1,0.1-0.1,0.3,0,0.4c0.1,0.1,0.1,0.1,0.2,0.1c0.1,0,0.2,0,0.2-0.1l7.3-7.3C36.2,0.5,36.2,0.3,36.1,0.2L36.1,0.2z M36.1,0.2"/>
	<path fill="#FFCA35" stroke="#FFCA35" stroke-width="0.25" stroke-miterlimit="10" d="M40.1,16.5c-0.1-0.1-0.3-0.1-0.4,0l-1.2,1.2
		c-0.1,0.1-0.1,0.3,0,0.4c0.1,0.1,0.1,0.1,0.2,0.1c0.1,0,0.2,0,0.2-0.1l1.2-1.2C40.2,16.9,40.2,16.7,40.1,16.5L40.1,16.5z
		 M40.1,16.5"/>
	<path fill="#FFCA35" stroke="#FFCA35" stroke-width="0.25" stroke-miterlimit="10" d="M13.3,11.5c-0.1-0.1-0.3-0.1-0.4,0l-8.4,8.4
		c-0.1,0.1-0.1,0.3,0,0.4c0.1,0.1,0.1,0.1,0.2,0.1c0.1,0,0.2,0,0.2-0.1l8.4-8.4C13.4,11.8,13.4,11.6,13.3,11.5L13.3,11.5z
		 M13.3,11.5"/>
	<path fill="#FFCA35" stroke="#FFCA35" stroke-width="0.25" stroke-miterlimit="10" d="M12,8.4c-0.1-0.1-0.3-0.1-0.4,0L1.3,18.6
		c-0.1,0.1-0.1,0.3,0,0.4c0.1,0.1,0.1,0.1,0.2,0.1c0.1,0,0.2,0,0.2-0.1L12,8.8C12.1,8.7,12.1,8.5,12,8.4L12,8.4z M12,8.4"/>
	<path fill="#FFCA35" stroke="#FFCA35" stroke-width="0.25" stroke-miterlimit="10" d="M4.9,19.9l-1.3-1.3c-0.1-0.1-0.3-0.1-0.4,0
		C3,18.7,3,18.9,3.1,19l1.3,1.3c0.1,0.1,0.1,0.1,0.2,0.1c0.1,0,0.2,0,0.2-0.1C5,20.2,5,20,4.9,19.9L4.9,19.9z M4.9,19.9"/>
	<path fill="#FFCA35" stroke="#FFCA35" stroke-width="0.25" stroke-miterlimit="10" d="M13.3,11.5L12,10.2c-0.1-0.1-0.3-0.1-0.4,0
		c-0.1,0.1-0.1,0.3,0,0.4l1.3,1.3C12.9,12,13,12,13.1,12c0.1,0,0.2,0,0.2-0.1C13.4,11.8,13.4,11.6,13.3,11.5L13.3,11.5z M13.3,11.5"
		/>
	<path fill="#FFCA35" stroke="#FFCA35" stroke-width="0.25" stroke-miterlimit="10" d="M1.8,18.6l-1.1-1.1c-0.1-0.1-0.3-0.1-0.4,0
		c-0.1,0.1-0.1,0.3,0,0.4L1.3,19c0.1,0.1,0.1,0.1,0.2,0.1c0.1,0,0.2,0,0.2-0.1C1.9,18.9,1.9,18.7,1.8,18.6L1.8,18.6z M1.8,18.6"/>
	<path fill="#FFCA35" stroke="#FFCA35" stroke-width="0.25" stroke-miterlimit="10" d="M12,8.4L3.8,0.2c-0.1-0.1-0.3-0.1-0.4,0
		c-0.1,0.1-0.1,0.3,0,0.4l8.2,8.2c0.1,0.1,0.1,0.1,0.2,0.1c0.1,0,0.2,0,0.2-0.1C12.1,8.7,12.1,8.5,12,8.4L12,8.4z M12,8.4"/>
	<path fill="#FFCA35" stroke="#FFCA35" stroke-width="0.25" stroke-miterlimit="10" d="M1.7,14.8c-0.4-0.4-1-0.4-1.3,0
		c-0.4,0.4-0.4,1,0,1.3c0.2,0.2,0.4,0.3,0.7,0.3c0.3,0,0.5-0.1,0.7-0.3C1.9,15.9,2,15.7,2,15.4C2,15.2,1.9,14.9,1.7,14.8L1.7,14.8z
		 M1.3,15.6c-0.1,0.1-0.3,0.1-0.4,0c-0.1-0.1-0.1-0.3,0-0.4c0.1-0.1,0.1-0.1,0.2-0.1c0.1,0,0.2,0,0.2,0.1c0.1,0.1,0.1,0.1,0.1,0.2
		C1.4,15.5,1.3,15.6,1.3,15.6L1.3,15.6z M1.3,15.6"/>
</g>
</svg>
