<?xml version="1.0" encoding="utf-8"?>
<!-- Generator: Adobe Illustrator 21.0.0, SVG Export Plug-In . SVG Version: 6.00 Build 0)  -->
<svg version="1.1" baseProfile="tiny" id="Слой_1"
	 xmlns="http://www.w3.org/2000/svg" xmlns:xlink="http://www.w3.org/1999/xlink" x="0px" y="0px" viewBox="0 0 44 44"
	 xml:space="preserve">
<g>
	<path fill="#FFCA35" d="M35.3,17.8V7c1.1-0.1,1.9-1,1.9-2.1c0-1.2-0.9-2.1-2.1-2.1h-9.4c-1.2,0-2.1,0.9-2.1,2.1
		c0,1.1,0.8,2,1.9,2.1v10.8c-2.1,0.8-4,2.2-5.5,3.9c-0.2,0.3-0.2,0.7,0.1,1c0.1,0.1,0.3,0.2,0.5,0.2c0.2,0,0.4-0.1,0.5-0.3
		c1.4-1.7,3.3-3,5.3-3.7c0.3-0.1,0.5-0.4,0.5-0.7V7h4c0.4,0,0.7-0.3,0.7-0.7c0-0.4-0.3-0.7-0.7-0.7h-5.1c-0.4,0-0.7-0.3-0.7-0.7
		s0.3-0.7,0.7-0.7h9.4c0.4,0,0.7,0.3,0.7,0.7s-0.3,0.7-0.7,0.7h-1.4c-0.4,0-0.7,0.3-0.7,0.7C33,6.7,33.3,7,33.7,7h0.2v11.2
		c0,0.3,0.2,0.6,0.5,0.7c4.9,1.7,8.2,6.3,8.2,11.5c0,6.7-5.5,12.2-12.2,12.2c-1.6,0-3.1-0.3-4.6-0.9c-0.4-0.1-0.8,0-0.9,0.4
		c-0.1,0.4,0,0.8,0.4,0.9c1.6,0.7,3.3,1,5.1,1C37.9,44,44,37.9,44,30.4C44,24.8,40.5,19.8,35.3,17.8L35.3,17.8z M35.3,17.8"/>
	<path fill="#FFCA35" d="M36.4,32.9c0,0.4-0.3,0.7-0.7,0.7c-0.4,0-0.7-0.3-0.7-0.7c0-0.4,0.3-0.7,0.7-0.7
		C36,32.2,36.4,32.5,36.4,32.9L36.4,32.9z M36.4,32.9"/>
	<path fill="#FFCA35" d="M33.6,35.7c0,0.4-0.3,0.7-0.7,0.7c-0.4,0-0.7-0.3-0.7-0.7c0-0.4,0.3-0.7,0.7-0.7
		C33.2,35,33.6,35.3,33.6,35.7L33.6,35.7z M33.6,35.7"/>
	<path fill="#FFCA35" d="M26.5,38.9c-0.4-0.2-0.8,0-0.9,0.3c-0.2,0.4,0,0.8,0.3,0.9c1.4,0.7,3,1,4.6,1c5.9,0,10.8-4.8,10.8-10.8
		c0-1.9-0.5-3.8-1.4-5.4c-0.1-0.2-0.4-0.4-0.7-0.3l-0.3,0c0,0-0.1,0-0.1,0c-1.1,0.3-1.6,0.8-2.1,1.1c-0.5,0.4-0.8,0.7-1.8,0.7
		c-0.8,0-1.2-0.3-1.7-0.8c-0.6-0.5-1.3-1.1-2.6-1.1c-1.3,0-2.1,0.6-2.6,1.1c-0.5,0.4-0.9,0.8-1.7,0.8c-1,0-1.3-0.3-1.8-0.7
		c-0.5-0.4-1-0.8-2.1-1.1c0,0-0.1,0-0.1,0l-0.3,0c-0.3,0-0.6,0.1-0.7,0.3c0,0,0,0,0,0c-0.2,0.3-0.1,0.8,0.3,1
		c0.1,0.1,0.3,0.1,0.5,0.1l0,0c0.8,0.2,1.1,0.5,1.6,0.9c0.6,0.5,1.2,1,2.7,1c1.3,0,2.1-0.6,2.6-1.1c0.5-0.4,0.9-0.8,1.7-0.8
		c0.8,0,1.2,0.3,1.7,0.8c0.6,0.5,1.3,1.1,2.6,1.1c1.5,0,2.1-0.5,2.7-1c0.4-0.3,0.7-0.6,1.3-0.8c0.7,1.3,1,2.8,1,4.2
		c0,5.2-4.2,9.4-9.4,9.4C29,39.8,27.7,39.5,26.5,38.9L26.5,38.9z M26.5,38.9"/>
	<path fill="#FFCA35" d="M16.9,18.1V4.2c1.1-0.1,1.9-1,1.9-2.1c0-1.2-0.9-2.1-2.1-2.1H7.4C6.2,0,5.2,0.9,5.2,2.1
		c0,1.1,0.8,2,1.9,2.1v11.3c0,0.4,0.3,0.7,0.7,0.7c0.4,0,0.7-0.3,0.7-0.7V4.2h4c0.4,0,0.7-0.3,0.7-0.7s-0.3-0.7-0.7-0.7H7.4
		C7,2.8,6.6,2.5,6.6,2.1S7,1.4,7.4,1.4h9.4c0.4,0,0.7,0.3,0.7,0.7s-0.3,0.7-0.7,0.7h-1.4c-0.4,0-0.7,0.3-0.7,0.7s0.3,0.7,0.7,0.7
		h0.2v14c0,0.1,0,0.2,0,0.2l6.8,19.7c0.4,1.2,0.3,2.3-0.3,3.1c-0.6,0.8-1.6,1.3-2.9,1.3H4.8c-1.3,0-2.3-0.4-2.9-1.3
		c-0.6-0.8-0.7-1.9-0.3-3.1l6.8-19.7c0.1-0.4-0.1-0.8-0.4-0.9c-0.4-0.1-0.8,0.1-0.9,0.4L0.3,37.8c-0.6,1.6-0.4,3.2,0.4,4.4
		C1.6,43.3,3,44,4.8,44h14.5c1.7,0,3.1-0.7,4-1.9c0.9-1.2,1-2.8,0.4-4.4L16.9,18.1z M16.9,18.1"/>
	<path fill="#FFCA35" d="M6.1,32.6c-0.2-0.1-0.4-0.2-0.6-0.1C5.2,32.6,5,32.8,5,33l-2,5.7c-0.3,0.8-0.2,1.4,0.1,1.8
		c0.3,0.4,0.9,0.7,1.7,0.7h14.5c0.8,0,1.4-0.2,1.7-0.7c0.3-0.4,0.3-1.1,0.1-1.8l-2-5.7c-0.1-0.2-0.2-0.4-0.5-0.4
		c-0.2-0.1-0.5,0-0.6,0.1c-0.4,0.3-0.7,0.5-1.6,0.5c-0.8,0-1.2-0.3-1.7-0.8c-0.6-0.5-1.3-1.1-2.6-1.1s-2.1,0.6-2.6,1.1
		c-0.5,0.4-0.9,0.8-1.7,0.8C6.8,33.2,6.4,32.9,6.1,32.6L6.1,32.6z M10.3,33.5c0.5-0.4,0.9-0.8,1.7-0.8c0.8,0,1.2,0.3,1.7,0.8
		c0.6,0.5,1.3,1.1,2.6,1.1c0.7,0,1.3-0.1,1.7-0.3l1.7,4.9c0.1,0.3,0.1,0.5,0.1,0.6c-0.1,0-0.3,0.1-0.6,0.1H4.8
		c-0.3,0-0.5-0.1-0.6-0.1c0-0.1,0-0.3,0.1-0.6L6,34.3c0.4,0.2,0.9,0.3,1.7,0.3C9,34.6,9.7,34,10.3,33.5L10.3,33.5z M10.3,33.5"/>
</g>
</svg>
