<?xml version="1.0" encoding="utf-8"?>
<!-- Generator: Adobe Illustrator 21.0.0, SVG Export Plug-In . SVG Version: 6.00 Build 0)  -->
<svg version="1.1" baseProfile="tiny" id="Слой_1"
	 xmlns="http://www.w3.org/2000/svg" xmlns:xlink="http://www.w3.org/1999/xlink" x="0px" y="0px" viewBox="0 0 174 47"
	 xml:space="preserve">
<path fill="#1780CF" d="M25.9,0.3c-0.6,0-1.2,0.1-1.8,0.3l0,0c0,0-2.7,0.7-7.8,5.2c3.9,1,6.6,4.2,6.6,4.2l0,0c0.9,0.6,1.9,0.9,3,0.9
	c2.9,0,5.3-2.4,5.3-5.3C31.3,2.7,28.9,0.3,25.9,0.3z"/>
<path fill="#3EA7E3" d="M31.1,9.3L31.1,9.3c-0.9,1.4-2.5,2.4-4.3,2.4c-0.1,0-0.1,0-0.2,0c0.4,1,0.6,2.1,0.6,3.2
	c0,5.3-4.3,9.6-9.6,9.6c-5.3,0-9.6-4.3-9.6-9.6c0-4.8,3.6-8.8,8.2-9.5l4.3-4.8c-1-0.2-1.9-0.3-2.9-0.3C9.5,0.3,3,6.9,3,14.9
	C3,23,9.5,29.5,17.6,29.5c8.1,0,14.6-6.6,14.6-14.6C32.2,12.9,31.8,11.1,31.1,9.3z"/>
<g>
	<path fill="#FFFFFF" d="M47.8,12.8h4.9c4.9,0,6.7,2.4,6.7,7c0,4.3-1.5,7-6.8,7H42.2V4.2h15.3v4.3h-9.8V12.8z M47.8,16.7v6.3H51
		c1.8,0,2.9-0.9,2.9-3.1s-1.1-3.1-2.9-3.1H47.8z"/>
	<path fill="#FFFFFF" d="M66.4,18.2L61,4.2h6.5L72,17.7h0.1L76,4.2h5.7l-5.9,17.5c-1.7,4.1-4.6,5.4-7.7,5.4c-2.5,0-4.7-0.4-6.2-0.8
		l1-4c1.3,0.5,2.5,0.7,4,0.7c1.6,0,2.9-0.4,3.5-2C69.5,21,67.4,20.3,66.4,18.2z"/>
	<path fill="#FFFFFF" d="M92.4,4.2c6.6,0,9.3,2,9.3,8c0,6-2.7,8.2-9.3,8.2h-2.7v6.5h-5.6V4.2H92.4z M89.8,16h2.7
		c2,0,3.7-0.6,3.7-3.9c0-2.9-1.3-3.6-3.7-3.6h-2.7V16z"/>
	<path fill="#FFFFFF" d="M109.7,10.6h-0.1l-0.4,16.2h-5.7l1.9-22.6h6.7l5.3,17h0.1l5.3-17h6.7l1.9,22.6h-5.7l-0.4-16.2h-0.1
		l-5.2,16.2h-5.1L109.7,10.6z"/>
	<path fill="#FFFFFF" d="M149,26c-0.9,0.3-3.8,1.1-6,1.1c-5.8,0-9.9-2.8-9.9-9.3v-4.7c0-6.5,4.2-9.3,9.9-9.3c2.2,0,5.1,0.8,6,1.1
		l-1,4.2c-0.9-0.3-3.6-0.9-5-0.9c-2.9,0-4.3,2.2-4.3,5v4.5c0,2.7,1.2,5,4.3,5c1.5,0,4.3-0.6,5.2-0.9L149,26z"/>
	<path fill="#FFFFFF" d="M157.9,13.9h0.5l6.6-9.7h6.4l-8.1,10.4l8.2,12.2h-6.2l-6.9-11h-0.5v11h-5.6V4.2h5.6V13.9z"/>
</g>
<g>
	<path fill="#FFFFFF" d="M1,46.9v-8h7.1v8h-2v-6.3H3v6.3H1z"/>
	<path fill="#FFFFFF" d="M11.6,45.4h3.4v1.5H9.6v-8h5.3v1.5h-3.4V42h2.8v1.5h-2.8V45.4z"/>
	<path fill="#FFFFFF" d="M19,38.9c2.3,0,3.3,0.7,3.3,2.8c0,2.1-1,2.9-3.3,2.9h-0.9v2.3h-2v-8H19z M18.1,43.1H19
		c0.7,0,1.3-0.2,1.3-1.4c0-1-0.5-1.3-1.3-1.3h-0.9V43.1z"/>
	<path fill="#FFFFFF" d="M23.5,38.9h3.5c1.2,0,2.1,0.4,2.1,2c0,0.9-0.4,1.4-0.9,1.6c0.7,0.2,1.3,0.7,1.3,2c0,1.6-0.6,2.4-2.4,2.4
		h-3.5V38.9z M25.4,40.2v1.9h1.1c0.4,0,0.8-0.3,0.8-1c0-0.5-0.3-0.9-0.8-0.9H25.4z M25.4,45.6h1.1c0.6,0,1-0.4,1-1.1s-0.5-1.1-1-1.1
		h-1.1V45.6z"/>
	<path fill="#FFFFFF" d="M35,45.2h-2.4l-0.5,1.7h-2.1l2.6-8h2.5l2.5,8h-2.1L35,45.2z M32.9,43.9h1.9l-0.9-3.1L32.9,43.9z"/>
	<path fill="#FFFFFF" d="M45,38.9v8h-2v-2.6h-0.9l-1.5,2.6h-2.2l1.8-2.8c-1.3-0.2-2-1.2-2-2.5c0-1.5,0.9-2.7,3.3-2.7H45z M43.1,42.7
		v-2.2h-1.5c-0.8,0-1.3,0.2-1.3,1.1c0,0.9,0.5,1.1,1.3,1.1H43.1z"/>
	<path fill="#FFFFFF" d="M51.5,42h1.7c1.7,0,2.4,0.8,2.4,2.5c0,1.5-0.5,2.5-2.4,2.5h-3.7v-8H55v1.5h-3.4V42z M51.5,43.3v2.2h1.1
		c0.6,0,1-0.3,1-1.1c0-0.8-0.4-1.1-1-1.1H51.5z"/>
	<path fill="#FFFFFF" d="M58.1,43.9l-1.9-5h2.3l1.6,4.8h0l1.4-4.8h2l-2.1,6.2c-0.6,1.5-1.6,1.9-2.7,1.9c-0.9,0-1.6-0.1-2.2-0.3
		l0.3-1.4c0.4,0.2,0.9,0.3,1.4,0.3c0.5,0,1-0.1,1.2-0.7C59.2,44.8,58.5,44.6,58.1,43.9z"/>
	<path fill="#FFFFFF" d="M67.3,38.9c2.3,0,3.3,0.7,3.3,2.8c0,2.1-1,2.9-3.3,2.9h-0.9v2.3h-2v-8H67.3z M66.4,43.1h0.9
		c0.7,0,1.3-0.2,1.3-1.4c0-1-0.5-1.3-1.3-1.3h-0.9V43.1z"/>
	<path fill="#FFFFFF" d="M71.4,42c0-2.2,1.5-3.2,3.7-3.2c2.3,0,3.7,1.1,3.7,3.2v1.8c0,2.2-1.4,3.1-3.7,3.1s-3.7-1-3.7-3.1V42z
		 M73.5,43.6c0,1.1,0.5,1.9,1.7,1.9c1.2,0,1.7-0.8,1.7-1.9v-1.5c0-1-0.4-1.9-1.7-1.9c-1.2,0-1.7,0.8-1.7,1.9V43.6z"/>
	<path fill="#FFFFFF" d="M80.1,38.9h3.5c1.2,0,2.1,0.4,2.1,2c0,0.9-0.4,1.4-0.9,1.6c0.7,0.2,1.3,0.7,1.3,2c0,1.6-0.6,2.4-2.4,2.4
		h-3.5V38.9z M82,40.2v1.9h1.1c0.4,0,0.8-0.3,0.8-1c0-0.5-0.3-0.9-0.8-0.9H82z M82,45.6h1.1c0.6,0,1-0.4,1-1.1s-0.5-1.1-1-1.1H82
		V45.6z"/>
	<path fill="#FFFFFF" d="M91.7,45.2h-2.4l-0.5,1.7h-2.1l2.6-8h2.5l2.5,8h-2.1L91.7,45.2z M89.5,43.9h1.9l-0.9-3.1L89.5,43.9z"/>
	<path fill="#FFFFFF" d="M101.7,38.9v8h-2v-2.6h-0.9l-1.5,2.6h-2.2l1.8-2.8c-1.3-0.2-2-1.2-2-2.5c0-1.5,0.9-2.7,3.3-2.7H101.7z
		 M99.7,42.7v-2.2h-1.5c-0.8,0-1.3,0.2-1.3,1.1c0,0.9,0.5,1.1,1.3,1.1H99.7z"/>
	<path fill="#FFFFFF" d="M108.1,42.3h0.2l2.3-3.4h2.3l-2.8,3.7l2.9,4.3h-2.2l-2.4-3.9h-0.2v3.9h-2v-8h2V42.3z"/>
	<path fill="#FFFFFF" d="M113.1,42c0-2.2,1.5-3.2,3.7-3.2c2.3,0,3.7,1.1,3.7,3.2v1.8c0,2.2-1.4,3.1-3.7,3.1c-2.3,0-3.7-1-3.7-3.1V42
		z M115.1,43.6c0,1.1,0.5,1.9,1.7,1.9c1.2,0,1.7-0.8,1.7-1.9v-1.5c0-1-0.4-1.9-1.7-1.9c-1.2,0-1.7,0.8-1.7,1.9V43.6z"/>
	<path fill="#FFFFFF" d="M123.3,41.2L123.3,41.2l-0.2,5.7h-2l0.7-8h2.4l1.9,6h0l1.9-6h2.4l0.7,8h-2l-0.1-5.7h0l-1.8,5.7h-1.8
		L123.3,41.2z"/>
	<path fill="#FFFFFF" d="M132.3,46.9v-8h7.1v8h-2v-6.3h-3.2v6.3H132.3z"/>
	<path fill="#FFFFFF" d="M145.6,45.2h-2.4l-0.5,1.7h-2.1l2.6-8h2.5l2.5,8h-2.1L145.6,45.2z M143.4,43.9h1.9l-0.9-3.1L143.4,43.9z"/>
	<path fill="#FFFFFF" d="M156.4,38.9v8h-2v-3.5h-3.1v3.5h-2v-8h2v3h3.1v-3H156.4z"/>
	<path fill="#FFFFFF" d="M159.8,38.9v5l3.5-5h1.6v8h-2v-5l-3.5,5h-1.6v-8H159.8z"/>
	<path fill="#FFFFFF" d="M173,38.9v8h-2v-2.6h-0.9l-1.5,2.6h-2.2l1.8-2.8c-1.3-0.2-2-1.2-2-2.5c0-1.5,0.9-2.7,3.3-2.7H173z
		 M171,42.7v-2.2h-1.5c-0.8,0-1.3,0.2-1.3,1.1c0,0.9,0.5,1.1,1.3,1.1H171z"/>
</g>
</svg>
