<?xml version="1.0" encoding="utf-8"?>
<!-- Generator: Adobe Illustrator 21.0.0, SVG Export Plug-In . SVG Version: 6.00 Build 0)  -->
<svg version="1.1" baseProfile="tiny" id="Слой_1"
	 xmlns="http://www.w3.org/2000/svg" xmlns:xlink="http://www.w3.org/1999/xlink" x="0px" y="0px" viewBox="0 0 11.1 18.6"
	 xml:space="preserve">
<g>
	<path d="M11.1,1.9v14.9c0,0.5-0.2,0.9-0.6,1.3c-0.4,0.4-0.8,0.6-1.3,0.6H1.9c-0.5,0-0.9-0.2-1.3-0.6C0.2,17.7,0,17.2,0,16.7V1.9
		c0-0.5,0.2-0.9,0.6-1.3C0.9,0.2,1.4,0,1.9,0h7.4c0.5,0,0.9,0.2,1.3,0.6C11,0.9,11.1,1.4,11.1,1.9z M9.8,14.4V4.2
		c0-0.1,0-0.2-0.1-0.3S9.4,3.7,9.3,3.7H1.9c-0.1,0-0.2,0-0.3,0.1C1.4,3.9,1.4,4.1,1.4,4.2v10.2c0,0.1,0,0.2,0.1,0.3
		c0.1,0.1,0.2,0.1,0.3,0.1h7.4c0.1,0,0.2,0,0.3-0.1S9.8,14.5,9.8,14.4z M7,2.1c0-0.2-0.1-0.2-0.2-0.2H4.4c-0.2,0-0.2,0.1-0.2,0.2
		s0.1,0.2,0.2,0.2h2.3C6.9,2.3,7,2.2,7,2.1z M6.4,17.5c0.2-0.2,0.3-0.5,0.3-0.8c0-0.3-0.1-0.6-0.3-0.8c-0.2-0.2-0.5-0.3-0.8-0.3
		c-0.3,0-0.6,0.1-0.8,0.3c-0.2,0.2-0.3,0.5-0.3,0.8c0,0.3,0.1,0.6,0.3,0.8c0.2,0.2,0.5,0.3,0.8,0.3C5.9,17.9,6.2,17.8,6.4,17.5z"/>
</g>
</svg>
