<?xml version="1.0" encoding="utf-8"?>
<!-- Generator: Adobe Illustrator 21.0.0, SVG Export Plug-In . SVG Version: 6.00 Build 0)  -->
<svg version="1.1" baseProfile="tiny" id="Слой_1"
	 xmlns="http://www.w3.org/2000/svg" xmlns:xlink="http://www.w3.org/1999/xlink" x="0px" y="0px" viewBox="0 0 16 13.2"
	 xml:space="preserve">
<g>
	<path fill="#FFFFFF" d="M10.5,13.2H1.5c-0.8,0-1.5-0.7-1.5-1.5V2.7c0-0.8,0.7-1.5,1.5-1.5h9.1c0.8,0,1.5,0.7,1.5,1.5v9.1
		C12,12.6,11.3,13.2,10.5,13.2z"/>
	<path d="M16,1.7c0,0,0.1-0.1,0.1-0.2s0-0.1-0.1-0.2l-1.4-1.4c0,0-0.1-0.1-0.2-0.1c-0.1,0-0.1,0-0.2,0.1L7.7,6.7L7.2,7.2L6.7,6.7
		l-3-3c0,0-0.1-0.1-0.2-0.1c-0.1,0-0.1,0-0.2,0.1L2,5.1C2,5.1,2,5.1,2,5.2S2,5.3,2,5.4L5.7,9L7,10.4c0,0,0.1,0.1,0.2,0.1
		s0.1,0,0.2-0.1L8.7,9L16,1.7z"/>
</g>
</svg>
