<?xml version="1.0" encoding="utf-8"?>
<!-- Generator: Adobe Illustrator 21.0.0, SVG Export Plug-In . SVG Version: 6.00 Build 0)  -->
<svg version="1.1" baseProfile="tiny" id="Слой_1"
	 xmlns="http://www.w3.org/2000/svg" xmlns:xlink="http://www.w3.org/1999/xlink" x="0px" y="0px" viewBox="0 0 22.3 18.9"
	 xml:space="preserve">
<path fill="#0060B0" d="M18.9,10.7V15c0,1.1-0.4,2-1.1,2.7c-0.8,0.8-1.7,1.1-2.7,1.1H3.9c-1.1,0-2-0.4-2.7-1.1C0.4,17,0,16.1,0,15
	V3.9c0-1.1,0.4-2,1.1-2.7C1.9,0.4,2.8,0,3.9,0H15c0.6,0,1.1,0.1,1.6,0.3c0.1,0.1,0.2,0.2,0.2,0.3c0,0.2,0,0.3-0.1,0.4L16,1.7
	c-0.1,0.1-0.2,0.1-0.3,0.1c0,0-0.1,0-0.1,0c-0.2-0.1-0.4-0.1-0.6-0.1H3.9c-0.6,0-1.1,0.2-1.5,0.6C1.9,2.8,1.7,3.3,1.7,3.9V15
	c0,0.6,0.2,1.1,0.6,1.5s0.9,0.6,1.5,0.6H15c0.6,0,1.1-0.2,1.5-0.6c0.4-0.4,0.6-0.9,0.6-1.5v-3.4c0-0.1,0-0.2,0.1-0.3l0.9-0.9
	c0.1-0.1,0.2-0.1,0.3-0.1c0.1,0,0.1,0,0.2,0C18.8,10.4,18.9,10.6,18.9,10.7z M22,4.2L11,15.1c-0.2,0.2-0.5,0.3-0.8,0.3
	c-0.3,0-0.5-0.1-0.8-0.3L3.8,9.3C3.5,9.1,3.4,8.9,3.4,8.6c0-0.3,0.1-0.5,0.3-0.8l1.5-1.5C5.5,6.1,5.7,6,6,6s0.5,0.1,0.8,0.3l3.5,3.5
	L19,1.2c0.2-0.2,0.5-0.3,0.8-0.3c0.3,0,0.5,0.1,0.8,0.3L22,2.7c0.2,0.2,0.3,0.5,0.3,0.8S22.2,4,22,4.2z"/>
</svg>
