<?xml version="1.0" encoding="utf-8"?>
<!-- Generator: Adobe Illustrator 21.0.0, SVG Export Plug-In . SVG Version: 6.00 Build 0)  -->
<svg version="1.1" baseProfile="tiny" id="Слой_1"
	 xmlns="http://www.w3.org/2000/svg" xmlns:xlink="http://www.w3.org/1999/xlink" x="0px" y="0px" viewBox="0 0 23 17.6"
	 xml:space="preserve">
<g>
	<path fill="#0FC07C" d="M23,3.4c0,0.4-0.1,0.7-0.4,1L11.8,15.2l-2,2c-0.3,0.3-0.6,0.4-1,0.4s-0.7-0.1-1-0.4l-2-2L0.4,9.8
		C0.1,9.5,0,9.2,0,8.8s0.1-0.7,0.4-1l2-2c0.3-0.3,0.6-0.4,1-0.4s0.7,0.1,1,0.4l4.4,4.4l9.7-9.7c0.3-0.3,0.6-0.4,1-0.4
		c0.4,0,0.7,0.1,1,0.4l2,2C22.8,2.7,23,3,23,3.4z"/>
</g>
</svg>
