<?xml version="1.0" encoding="utf-8"?>
<!-- Generator: Adobe Illustrator 21.0.0, SVG Export Plug-In . SVG Version: 6.00 Build 0)  -->
<svg version="1.1" baseProfile="tiny" id="Слой_1"
	 xmlns="http://www.w3.org/2000/svg" xmlns:xlink="http://www.w3.org/1999/xlink" x="0px" y="0px" viewBox="0 0 15.5 11.9"
	 xml:space="preserve">
<g>
	<path fill="#0FC07C" d="M15.5,2.3c0,0.3-0.1,0.5-0.3,0.7L8,10.2l-1.4,1.4c-0.2,0.2-0.4,0.3-0.7,0.3c-0.3,0-0.5-0.1-0.7-0.3
		l-1.4-1.4L0.3,6.6C0.1,6.4,0,6.2,0,5.9c0-0.3,0.1-0.5,0.3-0.7l1.4-1.4C1.8,3.7,2,3.6,2.3,3.6c0.3,0,0.5,0.1,0.7,0.3l2.9,2.9
		l6.5-6.6C12.7,0.1,12.9,0,13.1,0s0.5,0.1,0.7,0.3l1.4,1.4C15.4,1.8,15.5,2,15.5,2.3z"/>
</g>
</svg>
