<?xml version="1.0" encoding="utf-8"?>
<!-- Generator: Adobe Illustrator 21.0.0, SVG Export Plug-In . SVG Version: 6.00 Build 0)  -->
<svg version="1.1" baseProfile="tiny" id="Слой_1"
	 xmlns="http://www.w3.org/2000/svg" xmlns:xlink="http://www.w3.org/1999/xlink" x="0px" y="0px" viewBox="0 0 33.4 28.1"
	 xml:space="preserve">
<g>
	<path fill="#FFCA35" d="M28,15.9L28,15.9c-0.1,0-0.2,0-0.3,0.1l-1.3,1.3c0,0-0.1,0.1-0.1,0.2v5.2c0,1-0.4,1.9-1.1,2.6
		c-0.7,0.7-1.6,1.1-2.6,1.1H5.5c-1,0-1.9-0.4-2.6-1.1c-0.7-0.7-1.1-1.6-1.1-2.6V5.5c0-1,0.4-1.9,1.1-2.6c0.7-0.7,1.6-1.1,2.6-1.1
		h17.1c0.3,0,0.7,0,1,0.1l0.1,0c0,0,0.1,0,0.2-0.1l1-1C25,0.8,25,0.7,25,0.6c0-0.1-0.1-0.1-0.1-0.2C24.2,0.2,23.4,0,22.6,0H5.5
		C4,0,2.7,0.5,1.6,1.6S0,4,0,5.5v17.1c0,1.5,0.5,2.8,1.6,3.9c1.1,1.1,2.4,1.6,3.9,1.6h17.1c1.5,0,2.8-0.5,3.9-1.6
		c1.1-1.1,1.6-2.4,1.6-3.9v-6.5C28.1,16,28.1,15.9,28,15.9z"/>
	<path fill="#FFCA35" d="M33,4l-2.3-2.3c-0.5-0.5-1.3-0.5-1.8,0L15.4,15.3L9.7,9.6C9.4,9.4,9.1,9.2,8.8,9.2c-0.3,0-0.6,0.1-0.9,0.4
		l-2.3,2.3c-0.2,0.2-0.4,0.5-0.4,0.9c0,0.3,0.1,0.6,0.4,0.9l8.8,8.8c0.5,0.5,1.3,0.5,1.8,0L33,5.7c0.2-0.2,0.4-0.5,0.4-0.9
		C33.4,4.5,33.2,4.2,33,4z"/>
</g>
</svg>
