<?xml version="1.0" encoding="utf-8"?>
<!-- Generator: Adobe Illustrator 21.0.0, SVG Export Plug-In . SVG Version: 6.00 Build 0)  -->
<svg version="1.1" baseProfile="tiny" id="Слой_1"
	 xmlns="http://www.w3.org/2000/svg" xmlns:xlink="http://www.w3.org/1999/xlink" x="0px" y="0px" viewBox="0 0 17.4 17.4"
	 xml:space="preserve">
<g>
	<path fill="#FFCA35" d="M17.4,13.7c0,0.2,0,0.5-0.1,0.9c-0.1,0.4-0.2,0.6-0.3,0.8c-0.2,0.4-0.7,0.8-1.5,1.3
		c-0.8,0.4-1.5,0.6-2.3,0.6c-0.2,0-0.4,0-0.6,0s-0.4-0.1-0.7-0.2c-0.3-0.1-0.5-0.1-0.6-0.2c-0.1,0-0.4-0.1-0.7-0.3
		c-0.3-0.1-0.5-0.2-0.6-0.2c-0.8-0.3-1.5-0.6-2.2-1c-1.1-0.6-2.1-1.5-3.3-2.7c-1.1-1.1-2-2.2-2.7-3.3c-0.4-0.6-0.7-1.4-1-2.2
		c0-0.1-0.1-0.3-0.2-0.6C0.5,6.5,0.4,6.3,0.4,6.1c0-0.1-0.1-0.3-0.2-0.6C0.1,5.3,0.1,5,0,4.8c0-0.2,0-0.4,0-0.6
		c0-0.8,0.2-1.5,0.6-2.3c0.5-0.8,0.9-1.3,1.3-1.5c0.2-0.1,0.5-0.2,0.8-0.3C3.1,0,3.4,0,3.7,0c0.1,0,0.2,0,0.3,0
		c0.1,0,0.4,0.4,0.7,0.9c0.1,0.2,0.2,0.4,0.4,0.7c0.2,0.3,0.3,0.5,0.4,0.8c0.1,0.2,0.3,0.5,0.4,0.7c0,0,0.1,0.1,0.2,0.3
		s0.2,0.3,0.3,0.4C6.3,4,6.3,4.1,6.3,4.2c0,0.2-0.1,0.4-0.4,0.6C5.7,5,5.5,5.3,5.2,5.5C4.9,5.7,4.7,5.9,4.4,6.1
		C4.2,6.4,4.1,6.6,4.1,6.7c0,0.1,0,0.2,0.1,0.3c0,0.1,0.1,0.2,0.1,0.3c0,0.1,0.1,0.2,0.2,0.3c0.1,0.1,0.1,0.2,0.1,0.2
		c0.6,1.1,1.3,2.1,2.1,2.9s1.8,1.5,2.9,2.1c0,0,0.1,0.1,0.2,0.1c0.1,0.1,0.2,0.1,0.3,0.2s0.1,0.1,0.3,0.1c0.1,0,0.2,0.1,0.3,0.1
		c0.1,0,0.3-0.1,0.6-0.4c0.2-0.2,0.4-0.5,0.7-0.8c0.2-0.3,0.4-0.5,0.7-0.8c0.2-0.2,0.5-0.4,0.6-0.4c0.1,0,0.2,0,0.4,0.1
		s0.3,0.1,0.4,0.3s0.3,0.2,0.3,0.2c0.2,0.1,0.4,0.3,0.7,0.4c0.2,0.1,0.5,0.3,0.8,0.4s0.5,0.3,0.7,0.4c0.6,0.3,0.9,0.5,0.9,0.7
		C17.4,13.5,17.4,13.6,17.4,13.7z"/>
</g>
</svg>
