<?xml version="1.0" encoding="utf-8"?>
<!-- Generator: Adobe Illustrator 21.0.0, SVG Export Plug-In . SVG Version: 6.00 Build 0)  -->
<svg version="1.1" baseProfile="tiny" id="Слой_1"
	 xmlns="http://www.w3.org/2000/svg" xmlns:xlink="http://www.w3.org/1999/xlink" x="0px" y="0px" viewBox="0 0 39.9 38.4"
	 xml:space="preserve">
<g>
	<path d="M-211.9,567.7c0,0.9-0.3,1.7-0.9,2.2s-1.3,0.8-2.3,0.8h-10.2c-0.9,0-1.7-0.3-2.3-0.8s-0.9-1.3-0.9-2.2c0-0.4,0-0.8,0-1.2
		s0.1-0.8,0.2-1.3s0.2-0.9,0.3-1.3s0.3-0.8,0.5-1.1s0.5-0.7,0.7-0.9s0.6-0.5,1-0.6s0.8-0.2,1.3-0.2c0.1,0,0.2,0.1,0.5,0.3
		s0.5,0.4,0.9,0.6s0.7,0.4,1.3,0.6s1,0.3,1.6,0.3s1-0.1,1.6-0.3s0.9-0.4,1.3-0.6s0.6-0.4,0.9-0.6s0.4-0.3,0.5-0.3
		c0.5,0,0.9,0.1,1.3,0.2s0.7,0.4,1,0.6s0.5,0.6,0.7,0.9s0.4,0.8,0.5,1.1s0.2,0.8,0.3,1.3s0.1,0.9,0.2,1.3S-211.9,567.2-211.9,567.7z
		 M-216.9,554c0.9,0.9,1.3,1.9,1.3,3.2s-0.4,2.3-1.3,3.2s-1.9,1.3-3.2,1.3s-2.3-0.4-3.2-1.3s-1.3-1.9-1.3-3.2s0.4-2.3,1.3-3.2
		s1.9-1.3,3.2-1.3S-217.8,553.1-216.9,554z"/>
</g>
<g>
	<path d="M365.3,214.7v14.9c0,0.5-0.2,0.9-0.6,1.3c-0.4,0.4-0.8,0.6-1.3,0.6H356c-0.5,0-0.9-0.2-1.3-0.6c-0.4-0.4-0.6-0.8-0.6-1.3
		v-14.9c0-0.5,0.2-0.9,0.6-1.3c0.4-0.4,0.8-0.6,1.3-0.6h7.4c0.5,0,0.9,0.2,1.3,0.6C365.1,213.8,365.3,214.2,365.3,214.7z
		 M363.9,227.2V217c0-0.1,0-0.2-0.1-0.3s-0.2-0.1-0.3-0.1H356c-0.1,0-0.2,0-0.3,0.1c-0.1,0.1-0.1,0.2-0.1,0.3v10.2
		c0,0.1,0,0.2,0.1,0.3c0.1,0.1,0.2,0.1,0.3,0.1h7.4c0.1,0,0.2,0,0.3-0.1S363.9,227.4,363.9,227.2z M361.1,214.9
		c0-0.2-0.1-0.2-0.2-0.2h-2.3c-0.2,0-0.2,0.1-0.2,0.2s0.1,0.2,0.2,0.2h2.3C361,215.2,361.1,215.1,361.1,214.9z M360.5,230.4
		c0.2-0.2,0.3-0.5,0.3-0.8c0-0.3-0.1-0.6-0.3-0.8c-0.2-0.2-0.5-0.3-0.8-0.3c-0.3,0-0.6,0.1-0.8,0.3c-0.2,0.2-0.3,0.5-0.3,0.8
		c0,0.3,0.1,0.6,0.3,0.8c0.2,0.2,0.5,0.3,0.8,0.3C360,230.7,360.3,230.6,360.5,230.4z"/>
</g>
<g>
	<path fill="#DC0606" d="M304.4,179.4v4.8c0,0.1,0,0.3-0.1,0.3c-0.1,0.1-0.2,0.1-0.3,0.1h-1.4v6.3c0,0.4-0.1,0.7-0.4,1
		s-0.6,0.4-1,0.4h-16.4c-0.4,0-0.7-0.1-1-0.4s-0.4-0.6-0.4-1v-6.3h-1.4c-0.1,0-0.3,0-0.3-0.1c-0.1-0.1-0.1-0.2-0.1-0.3v-4.8
		c0-0.1,0-0.3,0.1-0.3c0.1-0.1,0.2-0.1,0.3-0.1h6.6c-0.9,0-1.7-0.3-2.4-1s-1-1.5-1-2.4s0.3-1.7,1-2.4c0.7-0.7,1.5-1,2.4-1
		c1.1,0,1.9,0.4,2.5,1.2l1.9,2.5l1.9-2.5c0.6-0.8,1.5-1.2,2.5-1.2c0.9,0,1.7,0.3,2.4,1c0.7,0.7,1,1.5,1,2.4s-0.3,1.7-1,2.4
		c-0.7,0.7-1.5,1-2.4,1h6.6c0.1,0,0.3,0,0.3,0.1C304.4,179.1,304.4,179.3,304.4,179.4z M288.4,177h2.9l-1.9-2.4
		c-0.3-0.3-0.6-0.5-1-0.5c-0.4,0-0.7,0.1-1,0.4s-0.4,0.6-0.4,1s0.1,0.7,0.4,1C287.6,176.8,288,177,288.4,177z M295.2,189.7v-0.8
		v-7.1v-2.9h-4.8v2.9v7.1v0.8c0,0.3,0.1,0.4,0.3,0.6c0.2,0.1,0.4,0.2,0.7,0.2h2.9c0.3,0,0.5-0.1,0.7-0.2
		C295.1,190.1,295.2,189.9,295.2,189.7z M298.3,176.6c0.3-0.3,0.4-0.6,0.4-1s-0.1-0.7-0.4-1s-0.6-0.4-1-0.4c-0.4,0-0.8,0.2-1,0.5
		l-1.9,2.4h2.9C297.7,177,298,176.8,298.3,176.6z"/>
</g>
<g>
	<path fill="#0060B0" d="M367.9,99.4c0,1-0.1,1.8-0.4,2.4l-4.9,10.4c-0.1,0.3-0.4,0.5-0.6,0.7c-0.3,0.2-0.6,0.3-0.9,0.3
		c-0.3,0-0.6-0.1-0.9-0.3c-0.3-0.2-0.5-0.4-0.6-0.7l-4.9-10.4c-0.3-0.6-0.4-1.4-0.4-2.4c0-1.9,0.7-3.5,2-4.8c1.3-1.3,3-2,4.8-2
		c1.9,0,3.5,0.7,4.8,2C367.2,95.9,367.9,97.5,367.9,99.4z M363.4,101.8c0.7-0.7,1-1.5,1-2.4s-0.3-1.8-1-2.4c-0.7-0.7-1.5-1-2.4-1
		s-1.8,0.3-2.4,1c-0.7,0.7-1,1.5-1,2.4s0.3,1.8,1,2.4c0.7,0.7,1.5,1,2.4,1S362.8,102.5,363.4,101.8z"/>
</g>
<g>
	<path fill="#0060B0" d="M367.9-22.5c0,1-0.1,1.8-0.4,2.4l-4.9,10.4c-0.1,0.3-0.4,0.5-0.6,0.7c-0.3,0.2-0.6,0.3-0.9,0.3
		c-0.3,0-0.6-0.1-0.9-0.3c-0.3-0.2-0.5-0.4-0.6-0.7l-4.9-10.4c-0.3-0.6-0.4-1.4-0.4-2.4c0-1.9,0.7-3.5,2-4.8c1.3-1.3,3-2,4.8-2
		c1.9,0,3.5,0.7,4.8,2C367.2-26,367.9-24.4,367.9-22.5z M363.4-20c0.7-0.7,1-1.5,1-2.4s-0.3-1.8-1-2.4c-0.7-0.7-1.5-1-2.4-1
		s-1.8,0.3-2.4,1c-0.7,0.7-1,1.5-1,2.4s0.3,1.8,1,2.4c0.7,0.7,1.5,1,2.4,1S362.8-19.4,363.4-20z"/>
</g>
<path fill="#0060B0" d="M299.6,243.5v4.3c0,1.1-0.4,2-1.1,2.7c-0.8,0.8-1.7,1.1-2.7,1.1h-11.1c-1.1,0-2-0.4-2.7-1.1
	c-0.8-0.8-1.1-1.7-1.1-2.7v-11.1c0-1.1,0.4-2,1.1-2.7c0.8-0.8,1.7-1.1,2.7-1.1h11.1c0.6,0,1.1,0.1,1.6,0.3c0.1,0.1,0.2,0.2,0.2,0.3
	c0,0.2,0,0.3-0.1,0.4l-0.7,0.7c-0.1,0.1-0.2,0.1-0.3,0.1c0,0-0.1,0-0.1,0c-0.2-0.1-0.4-0.1-0.6-0.1h-11.1c-0.6,0-1.1,0.2-1.5,0.6
	c-0.4,0.4-0.6,0.9-0.6,1.5v11.1c0,0.6,0.2,1.1,0.6,1.5s0.9,0.6,1.5,0.6h11.1c0.6,0,1.1-0.2,1.5-0.6c0.4-0.4,0.6-0.9,0.6-1.5v-3.4
	c0-0.1,0-0.2,0.1-0.3l0.9-0.9c0.1-0.1,0.2-0.1,0.3-0.1c0.1,0,0.1,0,0.2,0C299.5,243.2,299.6,243.3,299.6,243.5z M302.7,236.9
	l-10.9,10.9c-0.2,0.2-0.5,0.3-0.8,0.3c-0.3,0-0.5-0.1-0.8-0.3l-5.8-5.8c-0.2-0.2-0.3-0.5-0.3-0.8c0-0.3,0.1-0.5,0.3-0.8l1.5-1.5
	c0.2-0.2,0.5-0.3,0.8-0.3s0.5,0.1,0.8,0.3l3.5,3.5l8.7-8.7c0.2-0.2,0.5-0.3,0.8-0.3c0.3,0,0.5,0.1,0.8,0.3l1.5,1.5
	c0.2,0.2,0.3,0.5,0.3,0.8S302.9,236.7,302.7,236.9z"/>
<g>
	<path fill="#0060B0" d="M367.9,44.5c0,1.9-0.7,3.5-2,4.8c-1.3,1.3-3,2-4.8,2c-1.9,0-3.5-0.7-4.8-2c-1.3-1.3-2-3-2-4.8
		c0-1.3,0.4-2.5,1.1-3.7c0.1-0.1,0.3-0.5,0.8-1.2c0.5-0.7,1-1.4,1.4-2s0.8-1.4,1.3-2.4c0.5-1,0.9-1.9,1.1-2.7
		c0.1-0.3,0.2-0.5,0.5-0.6c0.2-0.2,0.5-0.2,0.7-0.2c0.2,0,0.5,0.1,0.7,0.2c0.2,0.2,0.4,0.4,0.4,0.6c0.2,0.8,0.6,1.7,1.1,2.7
		c0.5,1,0.9,1.8,1.3,2.4s0.8,1.3,1.4,2c0.5,0.7,0.8,1.1,0.8,1.2C367.5,41.9,367.9,43.2,367.9,44.5z M361,46.2c0-0.3-0.1-0.6-0.3-0.9
		c0,0-0.1-0.1-0.2-0.3c-0.1-0.2-0.2-0.4-0.3-0.5s-0.2-0.3-0.3-0.6c-0.1-0.2-0.2-0.5-0.3-0.7c0-0.1-0.1-0.2-0.3-0.2
		c-0.2,0-0.2,0.1-0.3,0.2c-0.1,0.2-0.2,0.4-0.3,0.7c-0.1,0.2-0.2,0.4-0.3,0.6c-0.1,0.1-0.2,0.3-0.3,0.5c-0.1,0.2-0.2,0.3-0.2,0.3
		c-0.2,0.3-0.3,0.6-0.3,0.9c0,0.5,0.2,0.9,0.5,1.2s0.7,0.5,1.2,0.5c0.5,0,0.9-0.2,1.2-0.5C360.8,47.1,361,46.7,361,46.2z"/>
</g>
<g>
	<rect x="207.6" y="59.4" fill="#FFCA35" width="23.1" height="45.1"/>
	<polygon fill="#FFFFFF" points="213.1,82 230.8,64.7 230.8,59.4 207.6,82 230.8,104.5 230.8,99.2 	"/>
</g>
<g>
	
		<rect x="207.6" y="144.5" transform="matrix(-1 -1.224647e-16 1.224647e-16 -1 438.438 334.0395)" fill="#FFCA35" width="23.1" height="45.1"/>
	<polygon fill="#FFFFFF" points="225.4,167 207.6,184.3 207.6,189.6 230.8,167 207.6,144.5 207.6,149.8 	"/>
</g>
<g>
	<path fill="#FFCA35" d="M130.7,298.7c-0.2,0-0.4,0.2-0.4,0.4v7.5c0,0.2,0.2,0.4,0.4,0.4c0.2,0,0.4-0.2,0.4-0.4v-7.5
		C131.1,298.9,130.9,298.7,130.7,298.7L130.7,298.7z M130.7,298.7"/>
	<path fill="#FFCA35" d="M132.2,298.7c-0.2,0-0.4,0.2-0.4,0.4v7.5c0,0.2,0.2,0.4,0.4,0.4c0.2,0,0.4-0.2,0.4-0.4v-7.5
		C132.6,298.9,132.4,298.7,132.2,298.7L132.2,298.7z M132.2,298.7"/>
	<path fill="#FFCA35" d="M131.8,308.8l-0.8-2.3c-0.1-0.2-0.3-0.3-0.5-0.2c-0.2,0.1-0.3,0.3-0.2,0.5l0.8,2.3c0.1,0.2,0.2,0.3,0.4,0.3
		c0,0,0.1,0,0.1,0C131.8,309.2,131.9,309,131.8,308.8L131.8,308.8z M131.8,308.8"/>
	<path fill="#FFCA35" d="M132.4,306.3c-0.2-0.1-0.4,0-0.5,0.2l-0.8,2.3c-0.1,0.2,0,0.4,0.2,0.5c0,0,0.1,0,0.1,0
		c0.2,0,0.3-0.1,0.4-0.3l0.8-2.3C132.7,306.5,132.6,306.3,132.4,306.3L132.4,306.3z M132.4,306.3"/>
	<path fill="#FFCA35" d="M133.7,297.2h-4.5c-0.2,0-0.4,0.2-0.4,0.4c0,0.2,0.2,0.4,0.4,0.4h4.5c0.2,0,0.4-0.2,0.4-0.4
		C134.1,297.4,134,297.2,133.7,297.2L133.7,297.2z M133.7,297.2"/>
	<path fill="#FFCA35" d="M128.5,294.9c-0.2,0-0.4,0.2-0.4,0.4v1.5c0,0.2,0.2,0.4,0.4,0.4s0.4-0.2,0.4-0.4v-1.5
		C128.8,295.1,128.7,294.9,128.5,294.9L128.5,294.9z M128.5,294.9"/>
	<path fill="#FFCA35" d="M129.2,296.4h-0.8c-0.2,0-0.4,0.2-0.4,0.4c0,0.2,0.2,0.4,0.4,0.4h0.8c0.2,0,0.4-0.2,0.4-0.4
		C129.6,296.6,129.4,296.4,129.2,296.4L129.2,296.4z M129.2,296.4"/>
	<path fill="#FFCA35" d="M129.2,296.4c-0.2,0-0.4,0.2-0.4,0.4v0.8c0,0.2,0.2,0.4,0.4,0.4c0.2,0,0.4-0.2,0.4-0.4v-0.8
		C129.6,296.6,129.4,296.4,129.2,296.4L129.2,296.4z M129.2,296.4"/>
	<path fill="#FFCA35" d="M130.7,294.9h-2.3c-0.2,0-0.4,0.2-0.4,0.4c0,0.2,0.2,0.4,0.4,0.4h2.3c0.2,0,0.4-0.2,0.4-0.4
		C131.1,295.1,130.9,294.9,130.7,294.9L130.7,294.9z M130.7,294.9"/>
	<path fill="#FFCA35" d="M129.2,294.2c-0.2,0-0.4,0.2-0.4,0.4v0.8c0,0.2,0.2,0.4,0.4,0.4c0.2,0,0.4-0.2,0.4-0.4v-0.8
		C129.6,294.3,129.4,294.2,129.2,294.2L129.2,294.2z M129.2,294.2"/>
	<path fill="#FFCA35" d="M134.5,294.9c-0.2,0-0.4,0.2-0.4,0.4v1.5c0,0.2,0.2,0.4,0.4,0.4c0.2,0,0.4-0.2,0.4-0.4v-1.5
		C134.9,295.1,134.7,294.9,134.5,294.9L134.5,294.9z M134.5,294.9"/>
	<path fill="#FFCA35" d="M134.5,294.9h-2.3c-0.2,0-0.4,0.2-0.4,0.4c0,0.2,0.2,0.4,0.4,0.4h2.3c0.2,0,0.4-0.2,0.4-0.4
		C134.9,295.1,134.7,294.9,134.5,294.9L134.5,294.9z M134.5,294.9"/>
	<path fill="#FFCA35" d="M133.7,294.2c-0.2,0-0.4,0.2-0.4,0.4v0.8c0,0.2,0.2,0.4,0.4,0.4c0.2,0,0.4-0.2,0.4-0.4v-0.8
		C134.1,294.3,134,294.2,133.7,294.2L133.7,294.2z M133.7,294.2"/>
	<path fill="#FFCA35" d="M134.5,296.4h-0.8c-0.2,0-0.4,0.2-0.4,0.4c0,0.2,0.2,0.4,0.4,0.4h0.8c0.2,0,0.4-0.2,0.4-0.4
		C134.9,296.6,134.7,296.4,134.5,296.4L134.5,296.4z M134.5,296.4"/>
	<path fill="#FFCA35" d="M133.7,296.4c-0.2,0-0.4,0.2-0.4,0.4v0.8c0,0.2,0.2,0.4,0.4,0.4c0.2,0,0.4-0.2,0.4-0.4v-0.8
		C134.1,296.6,134,296.4,133.7,296.4L133.7,296.4z M133.7,296.4"/>
	<path fill="#FFCA35" d="M133,292.7h-3c-0.2,0-0.4,0.2-0.4,0.4c0,0.2,0.2,0.4,0.4,0.4h3c0.2,0,0.4-0.2,0.4-0.4
		C133.4,292.8,133.2,292.7,133,292.7L133,292.7z M133,292.7"/>
	<path fill="#FFCA35" d="M134.5,291.1h-6c-0.2,0-0.4,0.2-0.4,0.4s0.2,0.4,0.4,0.4h6c0.2,0,0.4-0.2,0.4-0.4S134.7,291.1,134.5,291.1
		L134.5,291.1z M134.5,291.1"/>
	<path fill="#FFCA35" d="M134.5,289.6h-6c-0.2,0-0.4,0.2-0.4,0.4c0,0.2,0.2,0.4,0.4,0.4h6c0.2,0,0.4-0.2,0.4-0.4
		C134.9,289.8,134.7,289.6,134.5,289.6L134.5,289.6z M134.5,289.6"/>
	<path fill="#FFCA35" d="M129.4,291.9c-0.2-0.1-0.4,0-0.5,0.2l-0.8,1.5c-0.1,0.2,0,0.4,0.2,0.5c0.1,0,0.1,0,0.2,0
		c0.1,0,0.3-0.1,0.3-0.2l0.8-1.5C129.7,292.3,129.6,292,129.4,291.9L129.4,291.9z M129.4,291.9"/>
	<path fill="#FFCA35" d="M134.8,293.6l-0.8-1.5c-0.1-0.2-0.3-0.3-0.5-0.2c-0.2,0.1-0.3,0.3-0.2,0.5l0.8,1.5c0.1,0.1,0.2,0.2,0.3,0.2
		c0.1,0,0.1,0,0.2,0C134.9,294,134.9,293.8,134.8,293.6L134.8,293.6z M134.8,293.6"/>
	<path fill="#FFCA35" d="M128.5,288.1c-0.2,0-0.4,0.2-0.4,0.4v1.5c0,0.2,0.2,0.4,0.4,0.4s0.4-0.2,0.4-0.4v-1.5
		C128.8,288.3,128.7,288.1,128.5,288.1L128.5,288.1z M128.5,288.1"/>
	<path fill="#FFCA35" d="M134.5,288.1c-0.2,0-0.4,0.2-0.4,0.4v1.5c0,0.2,0.2,0.4,0.4,0.4c0.2,0,0.4-0.2,0.4-0.4v-1.5
		C134.9,288.3,134.7,288.1,134.5,288.1L134.5,288.1z M134.5,288.1"/>
	<path fill="#FFCA35" d="M130.7,294.9c-0.2,0-0.4,0.2-0.4,0.4v0.8c0,0.2,0.2,0.4,0.4,0.4c0.2,0,0.4-0.2,0.4-0.4v-0.8
		C131.1,295.1,130.9,294.9,130.7,294.9L130.7,294.9z M130.7,294.9"/>
	<path fill="#FFCA35" d="M132.2,294.9c-0.2,0-0.4,0.2-0.4,0.4v0.8c0,0.2,0.2,0.4,0.4,0.4c0.2,0,0.4-0.2,0.4-0.4v-0.8
		C132.6,295.1,132.4,294.9,132.2,294.9L132.2,294.9z M132.2,294.9"/>
	<path fill="#FFCA35" d="M129.4,286.7c-0.2-0.1-0.4,0-0.5,0.2l-0.8,1.5c-0.1,0.2,0,0.4,0.2,0.5c0.1,0,0.1,0,0.2,0
		c0.1,0,0.3-0.1,0.3-0.2l0.8-1.5C129.7,287,129.6,286.8,129.4,286.7L129.4,286.7z M129.4,286.7"/>
	<path fill="#FFCA35" d="M134.8,288.3l-0.8-1.5c-0.1-0.2-0.3-0.3-0.5-0.2c-0.2,0.1-0.3,0.3-0.2,0.5l0.8,1.5c0.1,0.1,0.2,0.2,0.3,0.2
		c0.1,0,0.1,0,0.2,0C134.9,288.7,134.9,288.5,134.8,288.3L134.8,288.3z M134.8,288.3"/>
	<path fill="#FFCA35" d="M129.2,281.3c-0.2,0-0.4,0.2-0.4,0.4v5.3c0,0.2,0.2,0.4,0.4,0.4c0.2,0,0.4-0.2,0.4-0.4v-5.3
		C129.6,281.5,129.4,281.3,129.2,281.3L129.2,281.3z M129.2,281.3"/>
	<path fill="#FFCA35" d="M133.7,281.3c-0.2,0-0.4,0.2-0.4,0.4v5.3c0,0.2,0.2,0.4,0.4,0.4c0.2,0,0.4-0.2,0.4-0.4v-5.3
		C134.1,281.5,134,281.3,133.7,281.3L133.7,281.3z M133.7,281.3"/>
	<path fill="#FFCA35" d="M135.3,279.8h-7.5c-0.2,0-0.4,0.2-0.4,0.4c0,0.2,0.2,0.4,0.4,0.4h7.5c0.2,0,0.4-0.2,0.4-0.4
		C135.6,280,135.5,279.8,135.3,279.8L135.3,279.8z M135.3,279.8"/>
	<path fill="#FFCA35" d="M135.3,277.6c-0.2,0-0.4,0.2-0.4,0.4v2.3c0,0.2,0.2,0.4,0.4,0.4c0.2,0,0.4-0.2,0.4-0.4v-2.3
		C135.6,277.7,135.5,277.6,135.3,277.6L135.3,277.6z M135.3,277.6"/>
	<path fill="#FFCA35" d="M127.7,277.6c-0.2,0-0.4,0.2-0.4,0.4v2.3c0,0.2,0.2,0.4,0.4,0.4c0.2,0,0.4-0.2,0.4-0.4v-2.3
		C128.1,277.7,127.9,277.6,127.7,277.6L127.7,277.6z M127.7,277.6"/>
	<path fill="#FFCA35" d="M139.3,272.3c-0.2-0.1-0.4-0.1-0.5,0.1l-3.8,5.3c-0.1,0.2-0.1,0.4,0.1,0.5c0.1,0,0.1,0.1,0.2,0.1
		c0.1,0,0.2-0.1,0.3-0.2l3.8-5.3C139.5,272.7,139.4,272.5,139.3,272.3L139.3,272.3z M139.3,272.3"/>
	<path fill="#FFCA35" d="M128,277.7l-3.8-4.5c-0.1-0.2-0.4-0.2-0.5,0c-0.2,0.1-0.2,0.4,0,0.5l3.8,4.5c0.1,0.1,0.2,0.1,0.3,0.1
		c0.1,0,0.2,0,0.2-0.1C128.1,278.1,128.1,277.9,128,277.7L128,277.7z M128,277.7"/>
	<path fill="#FFCA35" d="M127,270c-0.2,0-0.4,0.2-0.4,0.4v3.5c0,0.2,0.2,0.4,0.4,0.4c0.2,0,0.4-0.2,0.4-0.4v-3.5
		C127.3,270.2,127.2,270,127,270L127,270z M127,270"/>
	<path fill="#FFCA35" d="M136,270c-0.2,0-0.4,0.2-0.4,0.4v3.2c0,0.2,0.2,0.4,0.4,0.4c0.2,0,0.4-0.2,0.4-0.4v-3.2
		C136.4,270.2,136.2,270,136,270L136,270z M136,270"/>
	<path fill="#FFCA35" d="M131.5,281.3c-0.2,0-0.4,0.2-0.4,0.4v6.8c0,0.2,0.2,0.4,0.4,0.4c0.2,0,0.4-0.2,0.4-0.4v-6.8
		C131.9,281.5,131.7,281.3,131.5,281.3L131.5,281.3z M131.5,281.3"/>
	<path fill="#FFCA35" d="M136,270H127c-0.2,0-0.4,0.2-0.4,0.4c0,0.2,0.2,0.4,0.4,0.4h9.1c0.2,0,0.4-0.2,0.4-0.4
		C136.4,270.2,136.2,270,136,270L136,270z M136,270"/>
	<path fill="#FFCA35" d="M139,262.5c-0.2,0-0.4,0.2-0.4,0.4v9.8c0,0.2,0.2,0.4,0.4,0.4c0.2,0,0.4-0.2,0.4-0.4v-9.8
		C139.4,262.6,139.2,262.5,139,262.5L139,262.5z M139,262.5"/>
	<path fill="#FFCA35" d="M123.9,262.5c-0.2,0-0.4,0.2-0.4,0.4v10.6c0,0.2,0.2,0.4,0.4,0.4c0.2,0,0.4-0.2,0.4-0.4v-10.6
		C124.3,262.6,124.1,262.5,123.9,262.5L123.9,262.5z M123.9,262.5"/>
	<path fill="#FFCA35" d="M137.5,261h-12.1c-1,0-1.9,0.8-1.9,1.9c0,0.2,0.2,0.4,0.4,0.4c0.2,0,0.4-0.2,0.4-0.4c0-0.6,0.5-1.1,1.1-1.1
		h12.1c0.6,0,1.1,0.5,1.1,1.1c0,0.2,0.2,0.4,0.4,0.4c0.2,0,0.4-0.2,0.4-0.4C139.4,261.8,138.6,261,137.5,261L137.5,261z M137.5,261"
		/>
	<path fill="#FFCA35" d="M127,261c-0.2,0-0.4,0.2-0.4,0.4v1.5c0,0.2,0.2,0.4,0.4,0.4c0.2,0,0.4-0.2,0.4-0.4v-1.5
		C127.3,261.1,127.2,261,127,261L127,261z M127,261"/>
	<path fill="#FFCA35" d="M129.2,261c-0.2,0-0.4,0.2-0.4,0.4v1.5c0,0.2,0.2,0.4,0.4,0.4c0.2,0,0.4-0.2,0.4-0.4v-1.5
		C129.6,261.1,129.4,261,129.2,261L129.2,261z M129.2,261"/>
	<path fill="#FFCA35" d="M131.5,261c-0.2,0-0.4,0.2-0.4,0.4v1.5c0,0.2,0.2,0.4,0.4,0.4c0.2,0,0.4-0.2,0.4-0.4v-1.5
		C131.9,261.1,131.7,261,131.5,261L131.5,261z M131.5,261"/>
	<path fill="#FFCA35" d="M133.7,261c-0.2,0-0.4,0.2-0.4,0.4v1.5c0,0.2,0.2,0.4,0.4,0.4c0.2,0,0.4-0.2,0.4-0.4v-1.5
		C134.1,261.1,134,261,133.7,261L133.7,261z M133.7,261"/>
	<path fill="#FFCA35" d="M136,261c-0.2,0-0.4,0.2-0.4,0.4v1.5c0,0.2,0.2,0.4,0.4,0.4c0.2,0,0.4-0.2,0.4-0.4v-1.5
		C136.4,261.1,136.2,261,136,261L136,261z M136,261"/>
	<path fill="#FFCA35" d="M136,265.5H127c-0.2,0-0.4,0.2-0.4,0.4c0,0.2,0.2,0.4,0.4,0.4h9.1c0.2,0,0.4-0.2,0.4-0.4
		C136.4,265.7,136.2,265.5,136,265.5L136,265.5z M136,265.5"/>
	<path fill="#FFCA35" d="M129.2,277.6c-0.2,0-0.4,0.2-0.4,0.4v0.8c0,0.2,0.2,0.4,0.4,0.4c0.2,0,0.4-0.2,0.4-0.4v-0.8
		C129.6,277.7,129.4,277.6,129.2,277.6L129.2,277.6z M129.2,277.6"/>
	<path fill="#FFCA35" d="M133.7,277.6c-0.2,0-0.4,0.2-0.4,0.4v0.8c0,0.2,0.2,0.4,0.4,0.4c0.2,0,0.4-0.2,0.4-0.4v-0.8
		C134.1,277.7,134,277.6,133.7,277.6L133.7,277.6z M133.7,277.6"/>
	<path fill="#FFCA35" d="M133.7,277.6h-4.5c-0.2,0-0.4,0.2-0.4,0.4c0,0.2,0.2,0.4,0.4,0.4h4.5c0.2,0,0.4-0.2,0.4-0.4
		C134.1,277.7,134,277.6,133.7,277.6L133.7,277.6z M133.7,277.6"/>
	<path fill="#FFCA35" d="M134.5,271.5h-6c-0.2,0-0.4,0.2-0.4,0.4c0,0.2,0.2,0.4,0.4,0.4h6c0.2,0,0.4-0.2,0.4-0.4
		C134.9,271.7,134.7,271.5,134.5,271.5L134.5,271.5z M134.5,271.5"/>
	<path fill="#FFCA35" d="M141.3,265.5h-1.5c-0.2,0-0.4,0.2-0.4,0.4c0,0.2,0.2,0.4,0.4,0.4h1.5c0.2,0,0.4-0.2,0.4-0.4
		C141.7,265.7,141.5,265.5,141.3,265.5L141.3,265.5z M141.3,265.5"/>
	<path fill="#FFCA35" d="M141.3,269.3h-1.5c-0.2,0-0.4,0.2-0.4,0.4c0,0.2,0.2,0.4,0.4,0.4h1.5c0.2,0,0.4-0.2,0.4-0.4
		C141.7,269.4,141.5,269.3,141.3,269.3L141.3,269.3z M141.3,269.3"/>
	<path fill="#FFCA35" d="M141.3,265.5c-0.2,0-0.4,0.2-0.4,0.4v3.8c0,0.2,0.2,0.4,0.4,0.4c0.2,0,0.4-0.2,0.4-0.4v-3.8
		C141.7,265.7,141.5,265.5,141.3,265.5L141.3,265.5z M141.3,265.5"/>
	<path fill="#FFCA35" d="M150.4,266.2h-8.3c-0.2,0-0.4,0.2-0.4,0.4c0,0.2,0.2,0.4,0.4,0.4h8.3c0.2,0,0.4-0.2,0.4-0.4
		C150.7,266.4,150.6,266.2,150.4,266.2L150.4,266.2z M150.4,266.2"/>
	<path fill="#FFCA35" d="M151.1,268.5h-9.1c-0.2,0-0.4,0.2-0.4,0.4c0,0.2,0.2,0.4,0.4,0.4h9.1c0.2,0,0.4-0.2,0.4-0.4
		C151.5,268.7,151.3,268.5,151.1,268.5L151.1,268.5z M151.1,268.5"/>
	<path fill="#FFCA35" d="M151.5,268.8l-0.8-2.3c-0.1-0.2-0.3-0.3-0.5-0.2c-0.2,0.1-0.3,0.3-0.2,0.5l0.8,2.3c0.1,0.2,0.2,0.3,0.4,0.3
		c0,0,0.1,0,0.1,0C151.4,269.2,151.5,269,151.5,268.8L151.5,268.8z M151.5,268.8"/>
	<path fill="#FFCA35" d="M144.3,266.2c-0.2,0-0.4,0.2-0.4,0.4v0.8c0,0.2,0.2,0.4,0.4,0.4c0.2,0,0.4-0.2,0.4-0.4v-0.8
		C144.7,266.4,144.5,266.2,144.3,266.2L144.3,266.2z M144.3,266.2"/>
	<path fill="#FFCA35" d="M145.8,266.2c-0.2,0-0.4,0.2-0.4,0.4v0.8c0,0.2,0.2,0.4,0.4,0.4c0.2,0,0.4-0.2,0.4-0.4v-0.8
		C146.2,266.4,146,266.2,145.8,266.2L145.8,266.2z M145.8,266.2"/>
	<path fill="#FFCA35" d="M147.3,266.2c-0.2,0-0.4,0.2-0.4,0.4v0.8c0,0.2,0.2,0.4,0.4,0.4c0.2,0,0.4-0.2,0.4-0.4v-0.8
		C147.7,266.4,147.5,266.2,147.3,266.2L147.3,266.2z M147.3,266.2"/>
	<path fill="#FFCA35" d="M123.2,265.5h-1.5c-0.2,0-0.4,0.2-0.4,0.4c0,0.2,0.2,0.4,0.4,0.4h1.5c0.2,0,0.4-0.2,0.4-0.4
		C123.6,265.7,123.4,265.5,123.2,265.5L123.2,265.5z M123.2,265.5"/>
	<path fill="#FFCA35" d="M123.2,269.3h-1.5c-0.2,0-0.4,0.2-0.4,0.4c0,0.2,0.2,0.4,0.4,0.4h1.5c0.2,0,0.4-0.2,0.4-0.4
		C123.6,269.4,123.4,269.3,123.2,269.3L123.2,269.3z M123.2,269.3"/>
	<path fill="#FFCA35" d="M121.7,265.5c-0.2,0-0.4,0.2-0.4,0.4v3.8c0,0.2,0.2,0.4,0.4,0.4c0.2,0,0.4-0.2,0.4-0.4v-3.8
		C122.1,265.7,121.9,265.5,121.7,265.5L121.7,265.5z M121.7,265.5"/>
	<path fill="#FFCA35" d="M120.9,266.2h-8.3c-0.2,0-0.4,0.2-0.4,0.4c0,0.2,0.2,0.4,0.4,0.4h8.3c0.2,0,0.4-0.2,0.4-0.4
		C121.3,266.4,121.1,266.2,120.9,266.2L120.9,266.2z M120.9,266.2"/>
	<path fill="#FFCA35" d="M120.9,268.5h-9.1c-0.2,0-0.4,0.2-0.4,0.4c0,0.2,0.2,0.4,0.4,0.4h9.1c0.2,0,0.4-0.2,0.4-0.4
		C121.3,268.7,121.1,268.5,120.9,268.5L120.9,268.5z M120.9,268.5"/>
	<path fill="#FFCA35" d="M112.7,266.3c-0.2-0.1-0.4,0-0.5,0.2l-0.8,2.3c-0.1,0.2,0,0.4,0.2,0.5c0,0,0.1,0,0.1,0
		c0.2,0,0.3-0.1,0.4-0.3l0.8-2.3C113,266.5,112.9,266.3,112.7,266.3L112.7,266.3z M112.7,266.3"/>
	<path fill="#FFCA35" d="M118.7,266.2c-0.2,0-0.4,0.2-0.4,0.4v0.8c0,0.2,0.2,0.4,0.4,0.4c0.2,0,0.4-0.2,0.4-0.4v-0.8
		C119,266.4,118.9,266.2,118.7,266.2L118.7,266.2z M118.7,266.2"/>
	<path fill="#FFCA35" d="M117.1,266.2c-0.2,0-0.4,0.2-0.4,0.4v0.8c0,0.2,0.2,0.4,0.4,0.4c0.2,0,0.4-0.2,0.4-0.4v-0.8
		C117.5,266.4,117.4,266.2,117.1,266.2L117.1,266.2z M117.1,266.2"/>
	<path fill="#FFCA35" d="M115.6,266.2c-0.2,0-0.4,0.2-0.4,0.4v0.8c0,0.2,0.2,0.4,0.4,0.4c0.2,0,0.4-0.2,0.4-0.4v-0.8
		C116,266.4,115.8,266.2,115.6,266.2L115.6,266.2z M115.6,266.2"/>
	<path fill="#FFCA35" d="M118.7,270c-0.2,0-0.4,0.2-0.4,0.4v3.8c0,0.2,0.2,0.4,0.4,0.4c0.2,0,0.4-0.2,0.4-0.4v-3.8
		C119,270.2,118.9,270,118.7,270L118.7,270z M118.7,270"/>
	<path fill="#FFCA35" d="M120.2,270c-0.2,0-0.4,0.2-0.4,0.4v4.5c0,0.2,0.2,0.4,0.4,0.4c0.2,0,0.4-0.2,0.4-0.4v-4.5
		C120.5,270.2,120.4,270,120.2,270L120.2,270z M120.2,270"/>
	<path fill="#FFCA35" d="M120.4,274.6c-0.2-0.1-0.4-0.1-0.5,0.1l-4.5,6c-0.1,0.2-0.1,0.4,0.1,0.5c0.1,0.1,0.1,0.1,0.2,0.1
		c0.1,0,0.2-0.1,0.3-0.2l4.5-6C120.6,275,120.6,274.7,120.4,274.6L120.4,274.6z M120.4,274.6"/>
	<path fill="#FFCA35" d="M118.8,273.8c-0.2-0.1-0.4,0-0.5,0.1l-3,5.3c-0.1,0.2,0,0.4,0.1,0.5c0.1,0,0.1,0,0.2,0
		c0.1,0,0.3-0.1,0.3-0.2l3-5.3C119.1,274.2,119,273.9,118.8,273.8L118.8,273.8z M118.8,273.8"/>
	<path fill="#FFCA35" d="M115.6,279.1c-0.2,0-0.4,0.2-0.4,0.4v1.5c0,0.2,0.2,0.4,0.4,0.4c0.2,0,0.4-0.2,0.4-0.4v-1.5
		C116,279.2,115.8,279.1,115.6,279.1L115.6,279.1z M115.6,279.1"/>
</g>
<g>
	<path fill="#FFCA35" stroke="#FFCA35" stroke-width="0.25" stroke-miterlimit="10" d="M-40.5,412.6c-0.1-0.1-0.3-0.1-0.4,0
		c-0.1,0.1-0.1,0.3,0,0.4c0.5,0.5,0.5,1.3,0,1.8c-0.5,0.5-1.3,0.5-1.8,0c-0.1-0.1-0.3-0.1-0.4,0c-0.1,0.1-0.1,0.3,0,0.4
		c0.4,0.4,0.8,0.5,1.3,0.5c0.5,0,1-0.2,1.3-0.5C-39.8,414.6-39.8,413.4-40.5,412.6L-40.5,412.6z M-40.5,412.6"/>
	<path fill="#FFCA35" stroke="#FFCA35" stroke-width="0.25" stroke-miterlimit="10" d="M-37.5,409.5l-2.4-2.4
		c-0.1-0.1-0.3-0.1-0.4,0c-0.1,0.1-0.1,0.3,0,0.4l2.4,2.4c0.5,0.5,0.5,1.3,0,1.8c-0.5,0.5-1.3,0.5-1.8,0c-0.1-0.1-0.3-0.1-0.4,0
		c-0.1,0.1-0.1,0.3,0,0.4c0.4,0.4,0.8,0.6,1.3,0.6c0.5,0,1-0.2,1.3-0.5C-36.7,411.5-36.7,410.3-37.5,409.5L-37.5,409.5z
		 M-37.5,409.5"/>
	<path fill="#FFCA35" stroke="#FFCA35" stroke-width="0.25" stroke-miterlimit="10" d="M-34.4,406.4l-2.4-2.4
		c-0.1-0.1-0.3-0.1-0.4,0c-0.1,0.1-0.1,0.3,0,0.4l2.4,2.4c0.5,0.5,0.5,1.3,0,1.8c-0.5,0.5-1.3,0.5-1.8,0l-2.4-2.4
		c-0.1-0.1-0.3-0.1-0.4,0c-0.1,0.1-0.1,0.3,0,0.4l2.4,2.4c0.4,0.4,0.8,0.5,1.3,0.5c0.5,0,1-0.2,1.3-0.5
		C-33.6,408.4-33.6,407.2-34.4,406.4L-34.4,406.4z M-34.4,406.4"/>
	<path fill="#FFCA35" stroke="#FFCA35" stroke-width="0.25" stroke-miterlimit="10" d="M-31.3,403.3l-8.2-8.2
		c-0.1-0.1-0.3-0.1-0.4,0c-0.1,0.1-0.1,0.3,0,0.4l8.2,8.2c0.5,0.5,0.5,1.3,0,1.8c-0.5,0.5-1.3,0.5-1.8,0l-2.4-2.4
		c-0.1-0.1-0.3-0.1-0.4,0c-0.1,0.1-0.1,0.3,0,0.4l2.4,2.4c0.4,0.4,0.8,0.5,1.3,0.5c0.5,0,1-0.2,1.3-0.5
		C-30.5,405.3-30.5,404.1-31.3,403.3L-31.3,403.3z M-31.3,403.3"/>
	<path fill="#FFCA35" stroke="#FFCA35" stroke-width="0.25" stroke-miterlimit="10" d="M-55.3,401.4c-1.3-2.6-1.8-5.2-1.8-5.2
		c0-0.2-0.2-0.3-0.4-0.3c-0.2,0-0.3,0.2-0.3,0.4c0,0.1,0.5,2.7,1.8,5.4c0.1,0.1,0.2,0.2,0.3,0.2c0,0,0.1,0,0.1,0
		C-55.3,401.8-55.2,401.6-55.3,401.4L-55.3,401.4z M-55.3,401.4"/>
	<path fill="#FFCA35" stroke="#FFCA35" stroke-width="0.25" stroke-miterlimit="10" d="M-46.1,390.1c-2.1-0.9-3.6-1.7-3.6-1.7
		c-0.2-0.1-0.3,0-0.4,0.1c-0.1,0.2,0,0.3,0.1,0.4c0,0,1.5,0.8,3.7,1.7c0,0,0.1,0,0.1,0c0.1,0,0.2-0.1,0.3-0.2
		C-45.8,390.4-45.9,390.2-46.1,390.1L-46.1,390.1z M-46.1,390.1"/>
	<path fill="#FFCA35" stroke="#FFCA35" stroke-width="0.25" stroke-miterlimit="10" d="M-29,395.1c-0.2,0-0.3,0.1-0.3,0.3
		c0,0-0.4,3.8-2.2,6.4c-0.1,0.1-0.1,0.3,0.1,0.4c0.1,0,0.1,0.1,0.2,0.1c0.1,0,0.2,0,0.3-0.1c2-2.8,2.3-6.5,2.3-6.7
		C-28.7,395.2-28.8,395.1-29,395.1L-29,395.1z M-29,395.1"/>
	<path fill="#FFCA35" stroke="#FFCA35" stroke-width="0.25" stroke-miterlimit="10" d="M-41.9,410.4c-0.7-0.7-1.9-0.7-2.7,0
		l-1.3,1.3c-0.7,0.7-0.7,1.9,0,2.7c0.4,0.4,0.8,0.5,1.3,0.5h0c0.5,0,1-0.2,1.3-0.6l1.3-1.3C-41.1,412.3-41.1,411.2-41.9,410.4
		L-41.9,410.4z M-42.3,412.6l-1.3,1.3c-0.2,0.2-0.6,0.4-0.9,0.4h0c-0.3,0-0.6-0.1-0.9-0.4c-0.5-0.5-0.5-1.3,0-1.8l1.3-1.3
		c0.2-0.2,0.6-0.4,0.9-0.4c0.3,0,0.6,0.1,0.9,0.4C-41.8,411.4-41.8,412.1-42.3,412.6L-42.3,412.6z M-42.3,412.6"/>
	<path fill="#FFCA35" stroke="#FFCA35" stroke-width="0.25" stroke-miterlimit="10" d="M-44.5,406.9c-0.7-0.7-1.9-0.7-2.7,0
		l-1.8,1.8c-0.7,0.7-0.7,1.9,0,2.7c0.4,0.4,0.8,0.5,1.3,0.5c0.5,0,1-0.2,1.3-0.6l1.8-1.8C-43.8,408.8-43.8,407.6-44.5,406.9
		L-44.5,406.9z M-45,409.1l-1.8,1.8c-0.2,0.2-0.6,0.4-0.9,0.4s-0.6-0.1-0.9-0.4c-0.5-0.5-0.5-1.3,0-1.8l1.8-1.8
		c0.2-0.2,0.6-0.4,0.9-0.4s0.6,0.1,0.9,0.4C-44.5,407.8-44.5,408.6-45,409.1L-45,409.1z M-45,409.1"/>
	<path fill="#FFCA35" stroke="#FFCA35" stroke-width="0.25" stroke-miterlimit="10" d="M-48.1,404.2c-0.7-0.7-1.9-0.7-2.7,0
		l-1.3,1.3c-0.4,0.4-0.5,0.8-0.5,1.3c0,0.5,0.2,1,0.6,1.3c0.4,0.4,0.8,0.5,1.3,0.5c0.5,0,1-0.2,1.3-0.5l1.3-1.3
		c0.4-0.4,0.5-0.8,0.5-1.3C-47.5,405.1-47.7,404.6-48.1,404.2L-48.1,404.2z M-48.5,406.4l-1.3,1.3c-0.5,0.5-1.3,0.5-1.8,0
		c-0.2-0.2-0.4-0.6-0.4-0.9c0-0.3,0.1-0.6,0.4-0.9l1.3-1.3c0.2-0.2,0.6-0.4,0.9-0.4c0.3,0,0.6,0.1,0.9,0.4c0.2,0.2,0.4,0.5,0.4,0.9
		C-48.1,405.9-48.3,406.2-48.5,406.4L-48.5,406.4z M-48.5,406.4"/>
	<path fill="#FFCA35" stroke="#FFCA35" stroke-width="0.25" stroke-miterlimit="10" d="M-51.6,401.6c-0.7-0.7-1.9-0.7-2.7,0
		l-0.9,0.9c-0.7,0.7-0.7,1.9,0,2.7c0.4,0.4,0.8,0.5,1.3,0.5s1-0.2,1.3-0.5l0.9-0.9c0.4-0.4,0.5-0.8,0.5-1.3
		C-51.1,402.4-51.2,401.9-51.6,401.6L-51.6,401.6z M-52,403.8l-0.9,0.9c-0.2,0.2-0.6,0.4-0.9,0.4c-0.3,0-0.6-0.1-0.9-0.4
		c-0.5-0.5-0.5-1.3,0-1.8l0.9-0.9c0.2-0.2,0.6-0.4,0.9-0.4c0.3,0,0.6,0.1,0.9,0.4c0.2,0.2,0.4,0.6,0.4,0.9S-51.8,403.6-52,403.8
		L-52,403.8z M-52,403.8"/>
	<path fill="#FFCA35" stroke="#FFCA35" stroke-width="0.25" stroke-miterlimit="10" d="M-36.3,387.8c0-0.2-0.2-0.3-0.4-0.3
		c-0.3,0-6.3,0.9-9,3.6l-2.9,2.9c-0.7,0.7-0.7,1.9,0,2.7c0.4,0.4,0.8,0.5,1.3,0.5c0.5,0,1-0.2,1.3-0.5c1-1,3.8-3.3,5.1-2
		c0.1,0.1,0.3,0.1,0.4,0c0.1-0.1,0.1-0.3,0-0.4c-2-2-5.8,1.8-6,2c-0.5,0.5-1.3,0.5-1.8,0c-0.5-0.5-0.5-1.3,0-1.8l2.9-2.9
		c2.5-2.5,8.6-3.4,8.7-3.4C-36.3,388.2-36.2,388-36.3,387.8L-36.3,387.8z M-36.3,387.8"/>
	<path fill="#FFCA35" stroke="#FFCA35" stroke-width="0.25" stroke-miterlimit="10" d="M-27.5,394.7l-8.4-8.4
		c-0.1-0.1-0.3-0.1-0.4,0c-0.1,0.1-0.1,0.3,0,0.4l8.4,8.4c0.1,0.1,0.1,0.1,0.2,0.1c0.1,0,0.2,0,0.2-0.1
		C-27.4,395-27.4,394.8-27.5,394.7L-27.5,394.7z M-27.5,394.7"/>
	<path fill="#FFCA35" stroke="#FFCA35" stroke-width="0.25" stroke-miterlimit="10" d="M-24.4,393.4l-10.2-10.2
		c-0.1-0.1-0.3-0.1-0.4,0c-0.1,0.1-0.1,0.3,0,0.4l10.2,10.2c0.1,0.1,0.1,0.1,0.2,0.1c0.1,0,0.2,0,0.2-0.1
		C-24.3,393.7-24.3,393.5-24.4,393.4L-24.4,393.4z M-24.4,393.4"/>
	<path fill="#FFCA35" stroke="#FFCA35" stroke-width="0.25" stroke-miterlimit="10" d="M-34.6,385c-0.1-0.1-0.3-0.1-0.4,0l-1.3,1.3
		c-0.1,0.1-0.1,0.3,0,0.4c0.1,0.1,0.1,0.1,0.2,0.1c0.1,0,0.2,0,0.2-0.1l1.3-1.3C-34.5,385.3-34.5,385.1-34.6,385L-34.6,385z
		 M-34.6,385"/>
	<path fill="#FFCA35" stroke="#FFCA35" stroke-width="0.25" stroke-miterlimit="10" d="M-26.2,393.4c-0.1-0.1-0.3-0.1-0.4,0
		l-1.3,1.3c-0.1,0.1-0.1,0.3,0,0.4c0.1,0.1,0.1,0.1,0.2,0.1c0.1,0,0.2,0,0.2-0.1l1.3-1.3C-26.1,393.7-26.1,393.5-26.2,393.4
		L-26.2,393.4z M-26.2,393.4"/>
	<path fill="#FFCA35" stroke="#FFCA35" stroke-width="0.25" stroke-miterlimit="10" d="M-27.3,375.9c-0.1-0.1-0.3-0.1-0.4,0
		l-7.3,7.3c-0.1,0.1-0.1,0.3,0,0.4c0.1,0.1,0.1,0.1,0.2,0.1c0.1,0,0.2,0,0.2-0.1l7.3-7.3C-27.2,376.2-27.2,376.1-27.3,375.9
		L-27.3,375.9z M-27.3,375.9"/>
	<path fill="#FFCA35" stroke="#FFCA35" stroke-width="0.25" stroke-miterlimit="10" d="M-23.2,392.2c-0.1-0.1-0.3-0.1-0.4,0
		l-1.2,1.2c-0.1,0.1-0.1,0.3,0,0.4c0.1,0.1,0.1,0.1,0.2,0.1c0.1,0,0.2,0,0.2-0.1l1.2-1.2C-23.1,392.6-23.1,392.4-23.2,392.2
		L-23.2,392.2z M-23.2,392.2"/>
	<path fill="#FFCA35" stroke="#FFCA35" stroke-width="0.25" stroke-miterlimit="10" d="M-50.1,387.2c-0.1-0.1-0.3-0.1-0.4,0
		l-8.4,8.4c-0.1,0.1-0.1,0.3,0,0.4c0.1,0.1,0.1,0.1,0.2,0.1c0.1,0,0.2,0,0.2-0.1l8.4-8.4C-49.9,387.5-49.9,387.3-50.1,387.2
		L-50.1,387.2z M-50.1,387.2"/>
	<path fill="#FFCA35" stroke="#FFCA35" stroke-width="0.25" stroke-miterlimit="10" d="M-51.4,384.1c-0.1-0.1-0.3-0.1-0.4,0
		L-62,394.3c-0.1,0.1-0.1,0.3,0,0.4c0.1,0.1,0.1,0.1,0.2,0.1c0.1,0,0.2,0,0.2-0.1l10.2-10.2C-51.3,384.4-51.3,384.2-51.4,384.1
		L-51.4,384.1z M-51.4,384.1"/>
	<path fill="#FFCA35" stroke="#FFCA35" stroke-width="0.25" stroke-miterlimit="10" d="M-58.5,395.6l-1.3-1.3
		c-0.1-0.1-0.3-0.1-0.4,0c-0.1,0.1-0.1,0.3,0,0.4l1.3,1.3c0.1,0.1,0.1,0.1,0.2,0.1c0.1,0,0.2,0,0.2-0.1
		C-58.3,395.9-58.3,395.7-58.5,395.6L-58.5,395.6z M-58.5,395.6"/>
	<path fill="#FFCA35" stroke="#FFCA35" stroke-width="0.25" stroke-miterlimit="10" d="M-50.1,387.2l-1.3-1.3
		c-0.1-0.1-0.3-0.1-0.4,0c-0.1,0.1-0.1,0.3,0,0.4l1.3,1.3c0.1,0.1,0.1,0.1,0.2,0.1c0.1,0,0.2,0,0.2-0.1
		C-49.9,387.5-49.9,387.3-50.1,387.2L-50.1,387.2z M-50.1,387.2"/>
	<path fill="#FFCA35" stroke="#FFCA35" stroke-width="0.25" stroke-miterlimit="10" d="M-61.5,394.3l-1.1-1.1
		c-0.1-0.1-0.3-0.1-0.4,0c-0.1,0.1-0.1,0.3,0,0.4l1.1,1.1c0.1,0.1,0.1,0.1,0.2,0.1c0.1,0,0.2,0,0.2-0.1
		C-61.4,394.6-61.4,394.4-61.5,394.3L-61.5,394.3z M-61.5,394.3"/>
	<path fill="#FFCA35" stroke="#FFCA35" stroke-width="0.25" stroke-miterlimit="10" d="M-51.4,384.1l-8.2-8.2
		c-0.1-0.1-0.3-0.1-0.4,0c-0.1,0.1-0.1,0.3,0,0.4l8.2,8.2c0.1,0.1,0.1,0.1,0.2,0.1c0.1,0,0.2,0,0.2-0.1
		C-51.3,384.4-51.3,384.2-51.4,384.1L-51.4,384.1z M-51.4,384.1"/>
	<path fill="#FFCA35" stroke="#FFCA35" stroke-width="0.25" stroke-miterlimit="10" d="M-61.6,390.5c-0.4-0.4-1-0.4-1.3,0
		c-0.4,0.4-0.4,1,0,1.3c0.2,0.2,0.4,0.3,0.7,0.3s0.5-0.1,0.7-0.3c0.2-0.2,0.3-0.4,0.3-0.7C-61.3,390.9-61.4,390.6-61.6,390.5
		L-61.6,390.5z M-62.1,391.4c-0.1,0.1-0.3,0.1-0.4,0c-0.1-0.1-0.1-0.3,0-0.4c0.1-0.1,0.1-0.1,0.2-0.1c0.1,0,0.2,0,0.2,0.1
		c0.1,0.1,0.1,0.1,0.1,0.2C-62,391.2-62,391.3-62.1,391.4L-62.1,391.4z M-62.1,391.4"/>
</g>
<g>
	<polygon fill="none" points="123,388.1 123,388.1 123,388.1 	"/>
	<path fill="#FFCA35" d="M138.8,379.8h-5.2v-2.9c0-0.5-0.4-1-1-1H109c-0.5,0-1,0.4-1,1v4.3h-4.8c-0.5,0-1,0.4-1,1c0,0.5,0.4,1,1,1
		h5.8c0.5,0,1-0.4,1-1v-4.3h21.7v19h-11.4c0,0-0.1,0-0.1,0l-0.2,0l-0.1-0.2c-0.6-1.4-2-2.4-3.5-2.4c-1.5,0-2.9,0.9-3.5,2.4l-0.1,0.2
		l-0.2,0c-0.1,0-0.1,0-0.2,0H110v-4.4c0-0.5-0.4-1-1-1h-5.8c-0.5,0-1,0.4-1,1c0,0.5,0.4,1,1,1h4.8v4.3c0,0.5,0.4,1,1,1h3.8l0,0.2
		c0.4,1.7,1.9,2.9,3.7,2.9c1.8,0,3.3-1.2,3.7-2.9l0-0.2h14.5l0,0.2c0.4,1.7,1.9,2.9,3.7,2.9c1.8,0,3.3-1.2,3.7-2.9l0-0.2h2.8
		c0.5,0,1-0.4,1-1v-9.8c0-2.5-0.7-4.6-2.1-6.1C142.6,380.5,140.8,379.8,138.8,379.8z M116.5,399.9c-1,0-1.8-0.8-1.8-1.8
		c0-1,0.8-1.8,1.8-1.8c1,0,1.8,0.8,1.8,1.8C118.3,399.1,117.5,399.9,116.5,399.9z M138.4,399.9c-1,0-1.8-0.8-1.8-1.8
		c0-1,0.8-1.8,1.8-1.8c1,0,1.8,0.8,1.8,1.8C140.2,399.1,139.4,399.9,138.4,399.9z M144,396.8h-2l-0.1-0.1c-0.6-1.4-2-2.4-3.5-2.4
		c-1.5,0-2.9,0.9-3.5,2.4l-0.1,0.1h-1.3v-15.1h5.2c3.2,0,5.2,2.3,5.2,6.3V396.8z"/>
	<path fill="#FFCA35" d="M122.9,387.9L122.9,387.9L122.9,387.9C123,387.8,123,387.8,122.9,387.9L122.9,387.9l0.2,0L122.9,387.9
		l0.1-0.3l0-0.2c0,0,0-0.1,0-0.2l0,0l0,0l0-0.1c0,0,0,0,0,0c0,0,0-0.1,0-0.1c0,0,0,0,0-0.1l-0.1-0.2c0-0.1-0.1-0.1-0.1-0.1l-2.9-2.9
		c-0.4-0.4-1-0.4-1.4,0c-0.4,0.4-0.4,1,0,1.4l1.2,1.2H99.1c-0.5,0-1,0.4-1,1c0,0.5,0.4,1,1,1h20.7l-1.4,1.5c-0.4,0.4-0.4,1,0,1.4
		c0.4,0.4,1,0.4,1.4,0l3.1-3.1l0.2,0.1c0,0,0,0,0,0L122.9,387.9C122.9,387.9,122.9,387.9,122.9,387.9z"/>
</g>
<g>
	<path fill="#FFCA35" d="M52,380.5c-3.3-3.3-7.8-5.2-12.5-5.2c-4.8,0-9.3,1.9-12.7,5.3c-0.4,0.4-0.4,1,0,1.3c0.4,0.4,1,0.4,1.3,0
		c3-3.1,7-4.8,11.3-4.8c8.7,0,15.8,7.1,15.8,15.8c0,8.7-7.1,15.8-15.8,15.8s-15.8-7.1-15.8-15.8v-0.2l1.6,1.6
		c0.2,0.2,0.4,0.3,0.7,0.3c0.2,0,0.5-0.1,0.7-0.3c0.4-0.4,0.4-1,0-1.3l-3.2-3.2c-0.4-0.4-1-0.4-1.3,0l-3.2,3.2c-0.4,0.4-0.4,1,0,1.3
		c0.4,0.4,1,0.4,1.3,0l1.6-1.6v0.2c0,4.7,1.8,9.2,5.2,12.5c3.3,3.3,7.8,5.2,12.5,5.2c4.7,0,9.2-1.8,12.5-5.2
		c3.3-3.3,5.2-7.8,5.2-12.5C57.2,388.3,55.3,383.8,52,380.5L52,380.5z M52,380.5"/>
	<path fill="#FFCA35" d="M44.6,386.6l-11.7,11.7c-0.4,0.4-0.4,1,0,1.3c0.2,0.2,0.4,0.3,0.7,0.3c0.2,0,0.5-0.1,0.7-0.3l11.7-11.7
		c0.4-0.4,0.4-1,0-1.3C45.5,386.2,44.9,386.2,44.6,386.6L44.6,386.6z M44.6,386.6"/>
	<path fill="#FFCA35" d="M41.5,394.4c-1.3,1.3-1.3,3.5,0,4.8c0.6,0.6,1.5,1,2.4,1c0.9,0,1.8-0.4,2.4-1c1.3-1.3,1.3-3.5,0-4.8
		c-0.6-0.6-1.5-1-2.4-1C43,393.4,42.2,393.8,41.5,394.4L41.5,394.4z M45,397.9c-0.3,0.3-0.7,0.4-1.1,0.4c-0.4,0-0.8-0.2-1.1-0.4
		c-0.6-0.6-0.6-1.5,0-2.1c0.3-0.3,0.7-0.4,1.1-0.4c0.4,0,0.8,0.2,1.1,0.4C45.6,396.4,45.6,397.3,45,397.9L45,397.9z M45,397.9"/>
	<path fill="#FFCA35" d="M35.1,385.7c-0.9,0-1.8,0.4-2.4,1c-0.6,0.6-1,1.5-1,2.4c0,0.9,0.4,1.8,1,2.4c0.6,0.6,1.5,1,2.4,1
		c0.9,0,1.8-0.4,2.4-1c0.6-0.6,1-1.5,1-2.4c0-0.9-0.4-1.8-1-2.4C36.9,386.1,36,385.7,35.1,385.7L35.1,385.7z M36.2,390.2
		c-0.3,0.3-0.7,0.4-1.1,0.4c-0.4,0-0.8-0.2-1.1-0.4c-0.3-0.3-0.4-0.7-0.4-1.1c0-0.4,0.2-0.8,0.4-1.1c0.3-0.3,0.7-0.4,1.1-0.4
		c0.4,0,0.8,0.2,1.1,0.4c0.3,0.3,0.4,0.7,0.4,1.1C36.6,389.5,36.5,389.9,36.2,390.2L36.2,390.2z M36.2,390.2"/>
</g>
<g>
	<path fill="#FFCA35" d="M307.5,42.3h-3.9v-1.8c0-0.5-0.4-0.9-0.9-0.9c-0.5,0-0.9,0.4-0.9,0.9v1.8h-5.4v-1.8c0-0.5-0.4-0.9-0.9-0.9
		c-0.5,0-0.9,0.4-0.9,0.9v1.8h-5.4v-1.8c0-0.5-0.4-0.9-0.9-0.9c-0.5,0-0.9,0.4-0.9,0.9v1.8h-3.9c-1.3,0-2.4,1.1-2.4,2.4V66
		c0,1.3,1.1,2.4,2.4,2.4h24.1c1.3,0,2.4-1.1,2.4-2.4V44.7C309.9,43.4,308.9,42.3,307.5,42.3L307.5,42.3z M308.1,66
		c0,0.3-0.3,0.6-0.6,0.6h-24.1c-0.3,0-0.6-0.3-0.6-0.6V44.7c0-0.3,0.3-0.6,0.6-0.6h3.9v1.8c0,0.5,0.4,0.9,0.9,0.9
		c0.5,0,0.9-0.4,0.9-0.9v-1.8h5.4v1.8c0,0.5,0.4,0.9,0.9,0.9c0.5,0,0.9-0.4,0.9-0.9v-1.8h5.4v1.8c0,0.5,0.4,0.9,0.9,0.9
		c0.5,0,0.9-0.4,0.9-0.9v-1.8h3.9c0.3,0,0.6,0.3,0.6,0.6V66z M308.1,66"/>
	<rect x="287.4" y="50.4" fill="#FFCA35" width="3.6" height="2.7"/>
	<rect x="287.4" y="54.9" fill="#FFCA35" width="3.6" height="2.7"/>
	<rect x="287.4" y="59.4" fill="#FFCA35" width="3.6" height="2.7"/>
	<rect x="293.7" y="59.4" fill="#FFCA35" width="3.6" height="2.7"/>
	<rect x="293.7" y="54.9" fill="#FFCA35" width="3.6" height="2.7"/>
	<rect x="293.7" y="50.4" fill="#FFCA35" width="3.6" height="2.7"/>
	<rect x="300" y="59.4" fill="#FFCA35" width="3.6" height="2.7"/>
	<rect x="300" y="54.9" fill="#FFCA35" width="3.6" height="2.7"/>
	<rect x="300" y="50.4" fill="#FFCA35" width="3.6" height="2.7"/>
</g>
<g>
	<path fill="#FFCA35" d="M193.9,496.3L193.9,496.3c-0.1,0-0.2,0-0.3,0.1l-1.3,1.3c0,0-0.1,0.1-0.1,0.2v5.2c0,1-0.4,1.9-1.1,2.6
		c-0.7,0.7-1.6,1.1-2.6,1.1h-17.1c-1,0-1.9-0.4-2.6-1.1c-0.7-0.7-1.1-1.6-1.1-2.6V486c0-1,0.4-1.9,1.1-2.6c0.7-0.7,1.6-1.1,2.6-1.1
		h17.1c0.3,0,0.7,0,1,0.1l0.1,0c0,0,0.1,0,0.2-0.1l1-1c0.1-0.1,0.1-0.1,0.1-0.2c0-0.1-0.1-0.1-0.1-0.2c-0.7-0.3-1.4-0.5-2.2-0.5
		h-17.1c-1.5,0-2.8,0.5-3.9,1.6s-1.6,2.4-1.6,3.9v17.1c0,1.5,0.5,2.8,1.6,3.9c1.1,1.1,2.4,1.6,3.9,1.6h17.1c1.5,0,2.8-0.5,3.9-1.6
		c1.1-1.1,1.6-2.4,1.6-3.9v-6.5C194,496.4,194,496.4,193.9,496.3z"/>
	<path fill="#FFCA35" d="M198.9,484.4l-2.3-2.3c-0.5-0.5-1.3-0.5-1.8,0l-13.6,13.6l-5.7-5.7c-0.2-0.2-0.5-0.4-0.9-0.4
		c-0.3,0-0.6,0.1-0.9,0.4l-2.3,2.3c-0.2,0.2-0.4,0.5-0.4,0.9c0,0.3,0.1,0.6,0.4,0.9l8.8,8.8c0.5,0.5,1.3,0.5,1.8,0l16.7-16.7
		c0.2-0.2,0.4-0.5,0.4-0.9C199.3,485,199.1,484.7,198.9,484.4z"/>
</g>
<g>
	<path fill="none" stroke="#000000" stroke-miterlimit="10" stroke-dasharray="4,4" d="M-91.7,118.6c-42.6,0.9-76.9,35.7-76.9,78.6"
		/>
	<g>
		<polygon points="-96.9,112.7 -97.9,113.8 -92.3,118.7 -97.5,123.9 -96.5,125 -90.1,118.6 		"/>
	</g>
</g>
<g>
	<path fill="none" stroke="#000000" stroke-miterlimit="10" stroke-dasharray="4,4" d="M47.8,188.2c-42.6-0.9-76.9-35.7-76.9-78.6"
		/>
	<g>
		<polygon points="43,181.8 42,182.8 47.2,188.1 41.6,192.9 42.6,194 49.4,188.2 		"/>
	</g>
</g>
<g>
	<path fill="#000703" d="M16.9,289.5c0,0-3.2,0-3.3,0c-0.4,0-0.8,0.2-1.1,0.5l-9.7,9.7c0,0,0-8.6,0-8.6c-0.1-0.9-0.8-1.6-1.7-1.6
		h-4.9c-0.4,0-0.7-0.3-0.7-0.7v-29.3c0-0.4,0.3-0.7,0.7-0.7H45c0.4,0,0.7,0.3,0.7,0.7v11.2c0,0.9,0.8,1.7,1.7,1.7
		c0.9,0,1.7-0.8,1.7-1.7v-11.2c0-2.3-1.8-4.1-4.1-4.1H-3.8c-2.3,0-4.1,1.8-4.1,4.1v29.3c0,2.3,1.8,4.1,4.1,4.1h3.2v10.9
		c0,0.7,0.4,1.3,1.1,1.6c0.2,0.1,0.4,0.1,0.7,0.1c0.4,0,0.9-0.2,1.2-0.5L14.4,293h2.4c0.9,0,1.7-0.8,1.7-1.7
		C18.6,290.3,17.8,289.5,16.9,289.5L16.9,289.5z"/>
	<path fill="#0060B0" d="M61.5,300.6c0,0.4-0.3,0.7-0.7,0.7h-2.9c-0.9,0-1.6,0.7-1.7,1.6c0,0,0,5.2,0,5.2l-6.2-6.2c0,0,0,0,0,0
		c0,0,0,0-0.1-0.1c-0.3-0.3-0.7-0.4-1.1-0.4H26.6c-0.4,0-0.7-0.3-0.7-0.7v-20c0-0.4,0.3-0.7,0.7-0.7h34.2c0.4,0,0.7,0.3,0.7,0.7
		V300.6L61.5,300.6z M60.8,276.5H26.6c-2.3,0-4.1,1.8-4.1,4.1v20c0,2.3,1.8,4.1,4.1,4.1H48l8.7,8.7c0.3,0.3,0.8,0.5,1.2,0.5
		c0.2,0,0.4,0,0.7-0.1c0.6-0.3,1.1-0.9,1.1-1.6v-7.5h1.2c2.3,0,4.1-1.8,4.1-4.1v-20C64.9,278.3,63.1,276.5,60.8,276.5L60.8,276.5z"
		/>
	<path fill="#000703" d="M43.7,288.9c-0.9,0-1.7,0.8-1.7,1.7s0.8,1.7,1.7,1.7c0.9,0,1.7-0.8,1.7-1.7S44.7,288.9,43.7,288.9
		L43.7,288.9z"/>
	<path fill="#000703" d="M5,266.8c-0.9,0-1.7,0.8-1.7,1.7s0.8,1.7,1.7,1.7h31.3c0.9,0,1.7-0.8,1.7-1.7s-0.8-1.7-1.7-1.7H5L5,266.8z"
		/>
	<path fill="#000703" d="M16.9,278.2H5c-0.9,0-1.7,0.8-1.7,1.7c0,0.9,0.8,1.7,1.7,1.7h11.9c0.9,0,1.7-0.8,1.7-1.7
		C18.6,279,17.8,278.2,16.9,278.2L16.9,278.2z"/>
	<path fill="#000703" d="M35.7,288.9c-0.9,0-1.7,0.8-1.7,1.7s0.8,1.7,1.7,1.7c0.9,0,1.7-0.8,1.7-1.7S36.7,288.9,35.7,288.9
		L35.7,288.9z"/>
	<path fill="#000703" d="M51.7,288.9c-0.9,0-1.7,0.8-1.7,1.7s0.8,1.7,1.7,1.7c0.9,0,1.7-0.8,1.7-1.7S52.6,288.9,51.7,288.9
		L51.7,288.9z"/>
</g>
<g>
	<path fill="#000703" d="M-169.3,295.1c-8.1,8.1-21.3,8.1-29.4,0c-3.9-3.9-6.1-9.1-6.1-14.7c0-5.5,2.2-10.8,6.1-14.7
		c4.1-4.1,9.4-6.1,14.7-6.1c5.3,0,10.6,2,14.7,6.1c3.9,3.9,6.1,9.1,6.1,14.7S-165.4,291.2-169.3,295.1L-169.3,295.1z M-205.9,308.2
		l-5.9-5.9l2.4-2.4l5.9,5.9L-205.9,308.2L-205.9,308.2z M-216,318.3c-0.8,0.8-1.8,1.2-2.9,1.2c-1.1,0-2.2-0.4-2.9-1.2
		c-0.8-0.8-1.2-1.8-1.2-2.9c0-1.1,0.4-2.2,1.2-2.9l7.7-7.7l5.9,5.9L-216,318.3L-216,318.3z M-166.9,263.3c-9.4-9.4-24.8-9.4-34.2,0
		c-4.6,4.6-7.1,10.7-7.1,17.1c0,5.9,2.1,11.5,5.9,15.9l-2.9,2.9l-2.9-2.9c-0.3-0.3-0.8-0.5-1.2-0.5c-0.5,0-0.9,0.2-1.2,0.5
		l-13.8,13.8c-1.4,1.4-2.2,3.3-2.2,5.4c0,2,0.8,3.9,2.2,5.4c1.4,1.4,3.3,2.2,5.4,2.2c2,0,3.9-0.8,5.4-2.2l13.8-13.8
		c0.3-0.3,0.5-0.8,0.5-1.2c0-0.5-0.2-0.9-0.5-1.2l-2.9-2.9l2.9-2.9c4.5,3.9,10.2,5.9,15.9,5.9c6.2,0,12.4-2.4,17.1-7.1
		c4.6-4.6,7.1-10.7,7.1-17.1C-159.8,274-162.3,267.9-166.9,263.3L-166.9,263.3z"/>
	<path fill="#0060B0" d="M-174.6,289.9c-5.2,5.2-13.7,5.2-18.9,0c-5.2-5.2-5.2-13.7,0-18.9c2.6-2.6,6-3.9,9.4-3.9
		c3.4,0,6.8,1.3,9.4,3.9C-169.4,276.2-169.4,284.7-174.6,289.9L-174.6,289.9z M-172.1,268.6c-6.5-6.5-17.2-6.5-23.7,0
		c-6.5,6.5-6.5,17.2,0,23.7c3.3,3.3,7.6,4.9,11.9,4.9c4.3,0,8.6-1.6,11.9-4.9v0C-165.6,285.8-165.6,275.1-172.1,268.6L-172.1,268.6z
		"/>
	<path fill="#000703" d="M-190.4,274c-0.7,0.7-0.7,1.8,0,2.4c0.7,0.7,1.8,0.7,2.4,0c2.2-2.2,5.7-2.2,7.9,0c0.3,0.3,0.8,0.5,1.2,0.5
		s0.9-0.2,1.2-0.5c0.7-0.7,0.7-1.8,0-2.4C-181.1,270.5-186.9,270.5-190.4,274L-190.4,274z"/>
</g>
<g>
	<g>
		<path d="M-328.1,425.1h-6.7c-0.8,0-1.5,0.7-1.5,1.5s0.7,1.5,1.5,1.5l7.8,0c0,0,0.3-1,0.4-1C-326.5,427.1-328.1,425.1-328.1,425.1z
			"/>
	</g>
	<path fill="#000703" d="M-334,388.1c0,0.2-0.1,0.3-0.3,0.3h-7.2l7.4-7.4V388.1L-334,388.1z M-298.4,410.8c-0.8,0-1.5,0.7-1.5,1.5
		v23.3c0,0.2-0.1,0.3-0.3,0.3h-43.2c-0.2,0-0.3-0.1-0.3-0.3v-44.2h9.3c1.8,0,3.3-1.5,3.3-3.3v-9.3h30.8c0.2,0,0.3,0.1,0.3,0.3v4.8
		c0,0.8,0.7,1.5,1.5,1.5s1.5-0.7,1.5-1.5V379c0-1.8-1.5-3.3-3.3-3.3h-32.3c-0.4,0-0.8,0.2-1.1,0.4l-12.7,12.7
		c-0.3,0.3-0.4,0.7-0.4,1.1v45.8c0,1.8,1.5,3.3,3.3,3.3h43.2c1.8,0,3.3-1.5,3.3-3.3v-23.3C-296.8,411.5-297.5,410.8-298.4,410.8
		L-298.4,410.8z"/>
	<path fill="#201600" d="M-313,403.6h-21.7c-0.8,0-1.5-0.7-1.5-1.5s0.7-1.5,1.5-1.5h24.7L-313,403.6z"/>
	<path fill="#201600" d="M-325.3,415.9h-9.4c-0.8,0-1.5-0.7-1.5-1.5c0-0.8,0.7-1.5,1.5-1.5h12.5L-325.3,415.9z"/>
	<g>
		<path fill="#0060B0" d="M-325.5,416.1L-325.5,416.1c0-0.1,0.1-0.1,0.1-0.2C-325.4,416-325.4,416-325.5,416.1z"/>
		<path fill="#0060B0" d="M-286.6,388.1l-1.8-1.8c-2-2-5.3-2-7.3,0l-13.4,13.4l0,0l-16.3,16.3l0,0c-0.1,0.2-0.2,0.3-0.3,0.5
			l-2.2,7.9l-0.4,2.1c-0.2,0.8,0.5,1.5,1.2,1.5c0.1,0,0.2,0,0.3,0l6.1-1.6c2-0.6,3.8-1.1,3.8-1.1c0.3-0.1,0.5-0.2,0.7-0.4l29.6-29.6
			C-284.6,393.4-284.6,390.1-286.6,388.1z M-324.7,424.4l1.2-4.5l3.2,3.2L-324.7,424.4z M-317.3,421.8l-4.8-4.8l24.4-24.4l4.8,4.8
			L-317.3,421.8z M-288.8,393.3l-1.9,1.9l-4.8-4.8l1.9-1.9c0.8-0.8,2.2-0.8,3,0l1.8,1.8C-288,391.1-288,392.4-288.8,393.3z"/>
	</g>
</g>
<g>
	<path fill="#000703" d="M-88.5,317.8c-17.1,0-31.1-13.9-31.1-31.1c0-17.1,13.9-31.1,31.1-31.1c6.8,0,13.2,2.1,18.7,6.2
		c0.8,0.6,1,1.8,0.4,2.6c-0.6,0.8-1.8,1-2.6,0.4c-4.8-3.6-10.4-5.5-16.4-5.5c-15.1,0-27.3,12.3-27.3,27.3
		c0,15.1,12.3,27.3,27.3,27.3c15.1,0,27.3-12.3,27.3-27.3c0-0.7,0-1.3-0.1-2c-0.1-1,0.7-1.9,1.7-2c1-0.1,1.9,0.7,2,1.7
		c0.1,0.7,0.1,1.5,0.1,2.2C-57.4,303.8-71.3,317.8-88.5,317.8L-88.5,317.8z"/>
	<path fill="#0060B0" d="M-103.5,279.1c-0.9,0-1.8,0.3-2.5,1.1c-1.4,1.4-1.4,3.7,0,5.1l16.6,16.6c0.4,0.4,1.1,0.4,1.6,0l34.2-34.2
		c1.4-1.4,1.4-3.7,0-5.1c-1.4-1.4-3.7-1.4-5.1,0L-86.3,290c-0.6,0.6-1.5,1-2.4,1c-0.9,0-1.8-0.4-2.4-1l-9.9-9.9
		C-101.7,279.4-102.6,279.1-103.5,279.1L-103.5,279.1z M-88.6,305.9c-1.3,0-2.5-0.5-3.5-1.4l-16.6-16.6c-2.9-2.9-2.9-7.5,0-10.4
		c2.9-2.9,7.5-2.9,10.4,0l9.6,9.6l27.2-27.2l0,0c2.9-2.9,7.5-2.9,10.4,0c2.9,2.9,2.9,7.5,0,10.4l-34.2,34.2
		C-86.1,305.4-87.4,305.9-88.6,305.9L-88.6,305.9z"/>
</g>
<g>
	<path fill="#000A10" d="M134.4,48.4c-12.9,0-23.4-10.6-23.4-23.5c0-12.6,21.5-41.8,22.4-43c0.5-0.6,1.5-0.6,2,0
		c0,0.1,4,5.4,8.5,12.4c0.4,0.6,0.2,1.4-0.4,1.7c-0.6,0.4-1.4,0.2-1.7-0.4c-3.1-4.8-5.9-8.9-7.4-10.9c-4.3,6-20.9,29.9-20.9,40.1
		c0,11.6,9.4,21,20.9,21c9.1,0,17.1-5.9,19.9-14.6c0.2-0.7,0.9-1,1.6-0.8c0.7,0.2,1,0.9,0.8,1.6C153.6,41.8,144.7,48.4,134.4,48.4
		L134.4,48.4z"/>
	<path fill="#000A10" d="M149.4-12c-1.4,2-4.2,6-7,10.5c-5.1,8.4-7.8,14.6-7.8,18c0,8.2,6.6,14.9,14.8,14.9
		c8.2,0,14.8-6.7,14.8-14.9C164.2,10,154.3-5.1,149.4-12L149.4-12z M149.4,33.9c-9.5,0-17.3-7.8-17.3-17.4
		c0-9.2,15.6-30.5,16.3-31.4c0.5-0.6,1.5-0.6,2,0c0.7,0.9,16.3,22.2,16.3,31.4C166.7,26.1,158.9,33.9,149.4,33.9L149.4,33.9z"/>
	<path fill="#0060B0" d="M143.8-25.4c-1.5,2.3-2.9,4.8-2.9,5.7c0,1.6,1.3,2.9,2.9,2.9c1.6,0,2.9-1.3,2.9-2.9
		C146.7-20.7,145.2-23.3,143.8-25.4L143.8-25.4z M143.8-14.2c-3,0-5.4-2.4-5.4-5.4c0-2.6,3.7-7.7,4.4-8.7c0.2-0.3,0.6-0.5,1-0.5l0,0
		c0.4,0,0.8,0.2,1,0.5c0.7,1,4.4,6.1,4.4,8.7C149.2-16.6,146.8-14.2,143.8-14.2L143.8-14.2z"/>
	<path fill="#000A10" d="M133.7,43.3c-9.7,0-17.6-7.9-17.6-17.7c0-0.7,0.6-1.3,1.3-1.3c0.7,0,1.3,0.6,1.3,1.3
		c0,8.4,6.8,15.2,15.1,15.2c0.7,0,1.3,0.6,1.3,1.3C134.9,42.7,134.4,43.3,133.7,43.3L133.7,43.3z"/>
	<path fill="#000A10" d="M149.4,28.1c-6.6,0-12-5.4-12-12c0-0.7,0.6-1.3,1.3-1.3c0.7,0,1.3,0.6,1.3,1.3c0,5.2,4.2,9.5,9.5,9.5
		c0.7,0,1.3,0.6,1.3,1.3C150.7,27.6,150.1,28.1,149.4,28.1L149.4,28.1z"/>
</g>
<g>
	<path d="M-154.1,554.3c0,0.1-0.1,0.3-0.2,0.4l-7.5,7.5c-0.1,0.1-0.2,0.2-0.4,0.2s-0.3-0.1-0.4-0.2l-7.5-7.5
		c-0.1-0.1-0.2-0.2-0.2-0.4c0-0.1,0.1-0.3,0.2-0.4l0.8-0.8c0.1-0.1,0.2-0.2,0.4-0.2c0.1,0,0.3,0.1,0.4,0.2l6.4,6.4l6.4-6.4
		c0.1-0.1,0.2-0.2,0.4-0.2c0.1,0,0.3,0.1,0.4,0.2l0.8,0.8C-154.2,554.1-154.1,554.2-154.1,554.3z M-154.1,560.5
		c0,0.1-0.1,0.3-0.2,0.4l-7.5,7.5c-0.1,0.1-0.2,0.2-0.4,0.2s-0.3-0.1-0.4-0.2l-7.5-7.5c-0.1-0.1-0.2-0.2-0.2-0.4
		c0-0.1,0.1-0.3,0.2-0.4l0.8-0.8c0.1-0.1,0.2-0.2,0.4-0.2c0.1,0,0.3,0.1,0.4,0.2l6.4,6.4l6.4-6.4c0.1-0.1,0.2-0.2,0.4-0.2
		c0.1,0,0.3,0.1,0.4,0.2l0.8,0.8C-154.2,560.3-154.1,560.4-154.1,560.5z"/>
</g>
<g>
	<path d="M354.6,486.7c0.1,0,0.1,0,0.2,0.1l4.1,4.1c0.1,0.1,0.1,0.1,0.1,0.2s0,0.1-0.1,0.2l-4.1,4.1c-0.1,0.1-0.1,0.1-0.2,0.1
		c-0.1,0-0.1,0-0.2-0.1l-0.4-0.4c-0.1-0.1-0.1-0.1-0.1-0.2c0-0.1,0-0.1,0.1-0.2l3.5-3.5l-3.5-3.5c-0.1-0.1-0.1-0.1-0.1-0.2
		s0-0.1,0.1-0.2l0.4-0.4C354.5,486.7,354.6,486.7,354.6,486.7z M358,486.7c0.1,0,0.1,0,0.2,0.1l4.1,4.1c0.1,0.1,0.1,0.1,0.1,0.2
		s0,0.1-0.1,0.2l-4.1,4.1c-0.1,0.1-0.1,0.1-0.2,0.1s-0.1,0-0.2-0.1l-0.4-0.4c-0.1-0.1-0.1-0.1-0.1-0.2c0-0.1,0-0.1,0.1-0.2l3.5-3.5
		l-3.5-3.5c-0.1-0.1-0.1-0.1-0.1-0.2s0-0.1,0.1-0.2l0.4-0.4C357.9,486.7,358,486.7,358,486.7z"/>
</g>
<g>
	<path fill="#FF091D" d="M283.5,351.6c0.2,0,0.3,0.1,0.4,0.2l8.8,8.8c0.1,0.1,0.2,0.3,0.2,0.4s-0.1,0.3-0.2,0.4l-8.8,8.8
		c-0.1,0.1-0.3,0.2-0.4,0.2s-0.3-0.1-0.4-0.2l-0.9-0.9c-0.1-0.1-0.2-0.3-0.2-0.4s0.1-0.3,0.2-0.4l7.4-7.4l-7.4-7.4
		c-0.1-0.1-0.2-0.3-0.2-0.4c0-0.2,0.1-0.3,0.2-0.4l0.9-0.9C283.2,351.7,283.3,351.6,283.5,351.6z M290.7,351.6
		c0.2,0,0.3,0.1,0.4,0.2l8.8,8.8c0.1,0.1,0.2,0.3,0.2,0.4s-0.1,0.3-0.2,0.4l-8.8,8.8c-0.1,0.1-0.3,0.2-0.4,0.2s-0.3-0.1-0.4-0.2
		l-0.9-0.9c-0.1-0.1-0.2-0.3-0.2-0.4s0.1-0.3,0.2-0.4l7.4-7.4l-7.4-7.4c-0.1-0.1-0.2-0.3-0.2-0.4c0-0.2,0.1-0.3,0.2-0.4l0.9-0.9
		C290.4,351.7,290.6,351.6,290.7,351.6z"/>
</g>
<g>
	<path d="M-182.3,433.2c0,1.3-0.5,2.4-1.4,3.4c-0.9,0.9-2.1,1.4-3.4,1.4c-1.3,0-2.5-0.5-3.3-1.4l-12.8-12.7
		c-4.4,3.1-9.4,4.6-14.8,4.6c-3.5,0-6.9-0.7-10.2-2.1c-3.2-1.4-6-3.2-8.4-5.6c-2.3-2.3-4.2-5.1-5.6-8.4c-1.4-3.2-2.1-6.6-2.1-10.2
		c0-3.5,0.7-6.9,2.1-10.2c1.4-3.2,3.2-6,5.6-8.4c2.3-2.3,5.1-4.2,8.4-5.6c3.2-1.4,6.6-2.1,10.2-2.1c3.5,0,6.9,0.7,10.2,2.1
		c3.2,1.4,6,3.2,8.4,5.6c2.3,2.3,4.2,5.1,5.6,8.4c1.4,3.2,2.1,6.6,2.1,10.2c0,5.5-1.5,10.4-4.6,14.8l12.8,12.8
		C-182.7,430.8-182.3,431.9-182.3,433.2z M-206.2,414c3.3-3.3,4.9-7.2,4.9-11.8c0-4.6-1.6-8.5-4.9-11.8c-3.3-3.3-7.2-4.9-11.8-4.9
		c-4.6,0-8.5,1.6-11.8,4.9c-3.3,3.3-4.9,7.2-4.9,11.8c0,4.6,1.6,8.5,4.9,11.8c3.3,3.3,7.2,4.9,11.8,4.9
		C-213.4,418.9-209.5,417.3-206.2,414z"/>
</g>
<g>
	<path fill="#0FC07C" d="M304.3,296c0,0.4-0.1,0.7-0.4,1l-10.7,10.7l-2,2c-0.3,0.3-0.6,0.4-1,0.4s-0.7-0.1-1-0.4l-2-2l-5.4-5.4
		c-0.3-0.3-0.4-0.6-0.4-1s0.1-0.7,0.4-1l2-2c0.3-0.3,0.6-0.4,1-0.4s0.7,0.1,1,0.4l4.4,4.4l9.7-9.7c0.3-0.3,0.6-0.4,1-0.4
		c0.4,0,0.7,0.1,1,0.4l2,2C304.2,295.3,304.3,295.6,304.3,296z"/>
</g>
<g>
	<path fill="#0FC07C" d="M73.6,555.5c0,0.3-0.1,0.5-0.3,0.7l-7.2,7.2l-1.4,1.4c-0.2,0.2-0.4,0.3-0.7,0.3c-0.3,0-0.5-0.1-0.7-0.3
		l-1.4-1.4l-3.6-3.6c-0.2-0.2-0.3-0.4-0.3-0.7c0-0.3,0.1-0.5,0.3-0.7l1.4-1.4c0.2-0.2,0.4-0.3,0.7-0.3c0.3,0,0.5,0.1,0.7,0.3
		l2.9,2.9l6.5-6.6c0.2-0.2,0.4-0.3,0.7-0.3s0.5,0.1,0.7,0.3l1.4,1.4C73.5,555,73.6,555.2,73.6,555.5z"/>
</g>
<g>
	<path fill="#DC0606" d="M-328.9,567.3c0,0.4-0.1,0.7-0.4,1l-2,2c-0.3,0.3-0.6,0.4-1,0.4s-0.7-0.1-1-0.4l-4.4-4.4l-4.4,4.4
		c-0.3,0.3-0.6,0.4-1,0.4s-0.7-0.1-1-0.4l-2-2c-0.3-0.3-0.4-0.6-0.4-1s0.1-0.7,0.4-1l4.4-4.4l-4.4-4.4c-0.3-0.3-0.4-0.6-0.4-1
		c0-0.4,0.1-0.7,0.4-1l2-2c0.3-0.3,0.6-0.4,1-0.4s0.7,0.1,1,0.4l4.4,4.4l4.4-4.4c0.3-0.3,0.6-0.4,1-0.4s0.7,0.1,1,0.4l2,2
		c0.3,0.3,0.4,0.6,0.4,1c0,0.4-0.1,0.7-0.4,1l-4.4,4.4l4.4,4.4C-329.1,566.6-328.9,566.9-328.9,567.3z"/>
</g>
<g>
	<path fill="#FFCA35" d="M301.1,125.6c0,0.2,0,0.5-0.1,0.9c-0.1,0.4-0.2,0.6-0.3,0.8c-0.2,0.4-0.7,0.8-1.5,1.3
		c-0.8,0.4-1.5,0.6-2.3,0.6c-0.2,0-0.4,0-0.6,0s-0.4-0.1-0.7-0.2c-0.3-0.1-0.5-0.1-0.6-0.2c-0.1,0-0.4-0.1-0.7-0.3
		c-0.3-0.1-0.5-0.2-0.6-0.2c-0.8-0.3-1.5-0.6-2.2-1c-1.1-0.6-2.1-1.5-3.3-2.7c-1.1-1.1-2-2.2-2.7-3.3c-0.4-0.6-0.7-1.4-1-2.2
		c0-0.1-0.1-0.3-0.2-0.6c-0.1-0.3-0.2-0.6-0.3-0.7c0-0.1-0.1-0.3-0.2-0.6c-0.1-0.3-0.1-0.5-0.2-0.7c0-0.2,0-0.4,0-0.6
		c0-0.8,0.2-1.5,0.6-2.3c0.5-0.8,0.9-1.3,1.3-1.5c0.2-0.1,0.5-0.2,0.8-0.3c0.4-0.1,0.6-0.1,0.9-0.1c0.1,0,0.2,0,0.3,0
		c0.1,0,0.4,0.4,0.7,0.9c0.1,0.2,0.2,0.4,0.4,0.7c0.2,0.3,0.3,0.5,0.4,0.8c0.1,0.2,0.3,0.5,0.4,0.7c0,0,0.1,0.1,0.2,0.3
		s0.2,0.3,0.3,0.4c0.1,0.1,0.1,0.2,0.1,0.4c0,0.2-0.1,0.4-0.4,0.6c-0.2,0.2-0.5,0.5-0.8,0.7c-0.3,0.2-0.5,0.4-0.8,0.7
		c-0.2,0.2-0.4,0.4-0.4,0.6c0,0.1,0,0.2,0.1,0.3c0,0.1,0.1,0.2,0.1,0.3c0,0.1,0.1,0.2,0.2,0.3c0.1,0.1,0.1,0.2,0.1,0.2
		c0.6,1.1,1.3,2.1,2.1,2.9s1.8,1.5,2.9,2.1c0,0,0.1,0.1,0.2,0.1c0.1,0.1,0.2,0.1,0.3,0.2s0.1,0.1,0.3,0.1c0.1,0,0.2,0.1,0.3,0.1
		c0.1,0,0.3-0.1,0.6-0.4c0.2-0.2,0.4-0.5,0.7-0.8c0.2-0.3,0.4-0.5,0.7-0.8c0.2-0.2,0.5-0.4,0.6-0.4c0.1,0,0.2,0,0.4,0.1
		s0.3,0.1,0.4,0.3s0.3,0.2,0.3,0.2c0.2,0.1,0.4,0.3,0.7,0.4c0.2,0.1,0.5,0.3,0.8,0.4s0.5,0.3,0.7,0.4c0.6,0.3,0.9,0.5,0.9,0.7
		C301.1,125.4,301.1,125.5,301.1,125.6z"/>
</g>
<path d="M366.2,160.2c0,0.8-0.1,1.5-0.4,2l-4.1,8.7c-0.1,0.2-0.3,0.4-0.5,0.6c-0.2,0.1-0.5,0.2-0.8,0.2s-0.5-0.1-0.8-0.2
	c-0.2-0.1-0.4-0.3-0.5-0.6l-4.1-8.7c-0.2-0.5-0.4-1.2-0.4-2c0-1.6,0.6-3,1.7-4.1c1.1-1.1,2.5-1.7,4.1-1.7s3,0.6,4.1,1.7
	C365.6,157.2,366.2,158.6,366.2,160.2z M362.4,162.2c0.6-0.6,0.8-1.2,0.8-2c0-0.8-0.3-1.5-0.8-2c-0.6-0.6-1.2-0.8-2-0.8
	s-1.5,0.3-2,0.8c-0.6,0.6-0.8,1.2-0.8,2c0,0.8,0.3,1.5,0.8,2c0.6,0.6,1.2,0.8,2,0.8S361.9,162.8,362.4,162.2z"/>
<path d="M-97.6,564.8c0,0.2,0,0.5-0.1,0.8c-0.1,0.3-0.2,0.6-0.2,0.8c-0.2,0.4-0.6,0.8-1.4,1.2c-0.7,0.4-1.4,0.6-2.1,0.6
	c-0.2,0-0.4,0-0.6,0s-0.4-0.1-0.6-0.1c-0.2-0.1-0.4-0.1-0.5-0.2c-0.1,0-0.3-0.1-0.6-0.2c-0.3-0.1-0.5-0.2-0.6-0.2
	c-0.7-0.3-1.4-0.6-2-0.9c-1-0.6-2-1.4-3-2.4c-1-1-1.8-2-2.4-3c-0.4-0.6-0.7-1.2-0.9-2c0-0.1-0.1-0.3-0.2-0.6
	c-0.1-0.3-0.2-0.5-0.2-0.6c0-0.1-0.1-0.3-0.2-0.5c-0.1-0.2-0.1-0.5-0.1-0.6c0-0.2,0-0.4,0-0.6c0-0.7,0.2-1.4,0.6-2.1
	c0.4-0.8,0.8-1.2,1.2-1.4c0.2-0.1,0.4-0.2,0.8-0.2c0.3-0.1,0.6-0.1,0.8-0.1c0.1,0,0.2,0,0.2,0c0.1,0,0.3,0.3,0.6,0.9
	c0.1,0.1,0.2,0.3,0.3,0.6c0.1,0.3,0.3,0.5,0.4,0.7c0.1,0.2,0.2,0.4,0.3,0.6c0,0,0.1,0.1,0.2,0.3c0.1,0.2,0.2,0.3,0.2,0.4
	c0.1,0.1,0.1,0.2,0.1,0.3c0,0.2-0.1,0.3-0.3,0.6c-0.2,0.2-0.4,0.4-0.7,0.6s-0.5,0.4-0.7,0.6c-0.2,0.2-0.3,0.4-0.3,0.5
	c0,0.1,0,0.2,0.1,0.3s0.1,0.2,0.1,0.2c0,0.1,0.1,0.1,0.2,0.3c0.1,0.1,0.1,0.2,0.1,0.2c0.6,1,1.2,1.9,2,2.6c0.7,0.7,1.6,1.4,2.6,2
	c0,0,0.1,0.1,0.2,0.1c0.1,0.1,0.2,0.1,0.3,0.2c0.1,0,0.1,0.1,0.2,0.1c0.1,0,0.2,0.1,0.3,0.1c0.1,0,0.3-0.1,0.5-0.3
	c0.2-0.2,0.4-0.4,0.6-0.7c0.2-0.3,0.4-0.5,0.6-0.7c0.2-0.2,0.4-0.3,0.6-0.3c0.1,0,0.2,0,0.3,0.1s0.2,0.1,0.4,0.2
	c0.2,0.1,0.3,0.2,0.3,0.2c0.2,0.1,0.4,0.2,0.6,0.3c0.2,0.1,0.5,0.3,0.7,0.4c0.3,0.1,0.5,0.3,0.6,0.3c0.5,0.3,0.8,0.5,0.9,0.6
	C-97.6,564.6-97.6,564.7-97.6,564.8z"/>
<path d="M-271.4,557.5c0.8,1.3,1.2,2.8,1.2,4.3c0,1.6-0.4,3-1.2,4.3c-0.8,1.3-1.8,2.4-3.1,3.1s-2.8,1.2-4.3,1.2
	c-1.6,0-3-0.4-4.3-1.2s-2.4-1.8-3.1-3.1c-0.8-1.3-1.2-2.8-1.2-4.3c0-1.6,0.4-3,1.2-4.3c0.8-1.3,1.8-2.4,3.1-3.1s2.8-1.2,4.3-1.2
	c1.6,0,3,0.4,4.3,1.2S-272.1,556.1-271.4,557.5z M-273.5,564.9c0.5-0.9,0.8-2,0.8-3.1s-0.3-2.1-0.8-3.1c-0.5-0.9-1.3-1.7-2.2-2.2
	c-0.9-0.5-2-0.8-3.1-0.8c-1.1,0-2.1,0.3-3.1,0.8c-0.9,0.5-1.7,1.3-2.2,2.2c-0.5,0.9-0.8,2-0.8,3.1s0.3,2.1,0.8,3.1
	c0.5,0.9,1.3,1.7,2.2,2.2c0.9,0.5,2,0.8,3.1,0.8c1.1,0,2.1-0.3,3.1-0.8C-274.8,566.6-274.1,565.8-273.5,564.9z M-277.4,557.9v5
	c0,0.1,0,0.2-0.1,0.3c-0.1,0.1-0.2,0.1-0.3,0.1h-3.6c-0.1,0-0.2,0-0.3-0.1c-0.1-0.1-0.1-0.2-0.1-0.3v-0.7c0-0.1,0-0.2,0.1-0.3
	c0.1-0.1,0.2-0.1,0.3-0.1h2.5v-4c0-0.1,0-0.2,0.1-0.3c0.1-0.1,0.2-0.1,0.3-0.1h0.7c0.1,0,0.2,0,0.3,0.1
	C-277.4,557.7-277.4,557.7-277.4,557.9z"/>
<path d="M301.4,473.8c0,0.6-0.2,1.2-0.6,1.7c-0.4,0.5-0.8,1-1.4,1.4c-2.8,2-4.6,3.2-5.3,3.7c-0.1,0.1-0.2,0.2-0.5,0.3
	c-0.2,0.2-0.4,0.3-0.6,0.4c-0.2,0.1-0.4,0.2-0.6,0.4c-0.2,0.1-0.4,0.2-0.6,0.3c-0.2,0.1-0.4,0.1-0.6,0.1h0h0c-0.2,0-0.4,0-0.6-0.1
	c-0.2-0.1-0.4-0.2-0.6-0.3c-0.2-0.1-0.4-0.3-0.6-0.4c-0.2-0.1-0.4-0.3-0.6-0.4c-0.2-0.2-0.4-0.3-0.5-0.3c-0.7-0.5-1.7-1.2-3-2.1
	c-1.3-0.9-2.1-1.4-2.3-1.6c-0.5-0.3-0.9-0.7-1.3-1.3s-0.6-1.1-0.6-1.5c0-0.6,0.2-1.1,0.5-1.5c0.3-0.4,0.8-0.6,1.3-0.6h16.6
	c0.5,0,0.9,0.2,1.3,0.5C301.3,472.9,301.4,473.3,301.4,473.8z M301.4,477.1v8.9c0,0.5-0.2,0.9-0.5,1.3c-0.4,0.4-0.8,0.5-1.3,0.5
	h-16.6c-0.5,0-0.9-0.2-1.3-0.5c-0.4-0.4-0.5-0.8-0.5-1.3v-8.9c0.3,0.4,0.7,0.7,1.1,1c2.7,1.8,4.6,3.1,5.6,3.9c0.4,0.3,0.8,0.6,1,0.7
	c0.3,0.2,0.6,0.4,1.1,0.5c0.4,0.2,0.9,0.3,1.2,0.3h0h0c0.4,0,0.8-0.1,1.2-0.3c0.4-0.2,0.8-0.4,1.1-0.5c0.3-0.2,0.6-0.4,1-0.7
	c1.3-0.9,3.1-2.2,5.6-3.9C300.7,477.8,301.1,477.5,301.4,477.1z"/>
<g>
	<g>
		<g>
			<path fill="#FFCA35" d="M224.2,237.8c-2.6,0-2.9,0-3.9,0.1c-0.9,0-1.4,0.2-1.8,0.3c-0.4,0.2-0.8,0.4-1.1,0.7
				c-0.3,0.3-0.5,0.7-0.7,1.1c-0.1,0.3-0.3,0.8-0.3,1.8c0,1-0.1,1.3-0.1,3.9c0,2.6,0,2.9,0.1,3.9c0,0.9,0.2,1.4,0.3,1.8
				c0.2,0.4,0.4,0.8,0.7,1.1c0.3,0.3,0.7,0.5,1.1,0.7c0.3,0.1,0.8,0.3,1.8,0.3c1,0,1.3,0.1,3.9,0.1c2.6,0,2.9,0,3.9-0.1
				c0.9,0,1.4-0.2,1.8-0.3c0.4-0.2,0.8-0.4,1.1-0.7c0.3-0.3,0.5-0.7,0.7-1.1c0.1-0.3,0.3-0.8,0.3-1.8c0-1,0.1-1.3,0.1-3.9
				c0-2.6,0-2.9-0.1-3.9c0-0.9-0.2-1.4-0.3-1.8c-0.2-0.4-0.4-0.8-0.7-1.1c-0.3-0.3-0.7-0.5-1.1-0.7c-0.3-0.1-0.8-0.3-1.8-0.3
				C227,237.8,226.7,237.8,224.2,237.8L224.2,237.8z M224.2,255.2c-2.6,0-2.9,0-3.9-0.1c-0.9,0-1.6-0.2-2.3-0.4
				c-0.7-0.3-1.2-0.6-1.7-1.1c-0.5-0.5-0.8-1-1.1-1.7c-0.3-0.7-0.4-1.4-0.4-2.3c0-1-0.1-1.4-0.1-3.9c0-2.6,0-2.9,0.1-3.9
				c0-0.9,0.2-1.6,0.4-2.3c0.3-0.7,0.6-1.2,1.1-1.7c0.5-0.5,1-0.8,1.7-1.1c0.7-0.3,1.4-0.4,2.3-0.4c1,0,1.4-0.1,3.9-0.1
				c2.6,0,2.9,0,3.9,0.1c0.9,0,1.6,0.2,2.3,0.4c0.7,0.3,1.2,0.6,1.7,1.1c0.5,0.5,0.8,1,1.1,1.7c0.3,0.7,0.4,1.4,0.4,2.3
				c0,1,0.1,1.4,0.1,3.9c0,2.6,0,2.9-0.1,3.9c0,0.9-0.2,1.6-0.4,2.3c-0.3,0.7-0.6,1.2-1.1,1.7c-0.5,0.5-1,0.8-1.7,1.1
				c-0.7,0.3-1.4,0.4-2.3,0.4C227.1,255.2,226.8,255.2,224.2,255.2L224.2,255.2z"/>
		</g>
		<g>
			<path fill="#FFCA35" d="M224.2,248.8c-1.7,0-3.2-1.4-3.2-3.2c0-1.7,1.4-3.2,3.2-3.2c1.7,0,3.2,1.4,3.2,3.2
				C227.3,247.4,225.9,248.8,224.2,248.8 M224.2,240.7c-2.7,0-4.9,2.2-4.9,4.9c0,2.7,2.2,4.9,4.9,4.9c2.7,0,4.9-2.2,4.9-4.9
				C229,242.9,226.9,240.7,224.2,240.7"/>
		</g>
		<g>
			<path fill="#FFCA35" d="M230.4,240.5c0,0.6-0.5,1.1-1.1,1.1c-0.6,0-1.1-0.5-1.1-1.1c0-0.6,0.5-1.1,1.1-1.1
				C229.9,239.4,230.4,239.9,230.4,240.5"/>
		</g>
	</g>
	<g>
		<path fill="#FFCA35" d="M240.2,261.9H208v-32.2h32.2V261.9z M209,260.9h30.2v-30.2H209V260.9z"/>
	</g>
</g>
<g>
	<g>
		<path fill="#FFCA35" d="M-93.8,511.9H-126v-32.2h32.2V511.9z M-125,510.9h30.2v-30.2H-125V510.9z"/>
	</g>
	<g>
		<path fill="#FFCA35" d="M-112.6,506.1h4.3v-10.6h3l0.3-3.6h-3.3c0,0,0-1.3,0-2c0-0.8,0.2-1.2,1-1.2c0.7,0,2.3,0,2.3,0V485
			c0,0-2.4,0-2.9,0c-3.2,0-4.6,1.4-4.6,4.1c0,2.3,0,2.8,0,2.8h-2.2v3.6h2.2V506.1L-112.6,506.1z"/>
	</g>
</g>
<g>
	<g>
		<path fill="#FFCA35" d="M125.6,511.9H93.4v-32.2h32.2V511.9z M94.4,510.9h30.2v-30.2H94.4V510.9z"/>
	</g>
	<g>
		<path fill="#FFCA35" d="M113.1,495.5c-1.9-1-3.8-2-5.7-3v6C109.4,497.4,111.5,496.4,113.1,495.5L113.1,495.5L113.1,495.5z
			 M107.7,503.2c-4-0.1-5.4-0.1-6.3-0.3c-0.6-0.1-1.1-0.4-1.4-0.7c-0.3-0.3-0.5-0.7-0.7-1.3c-0.1-0.5-0.2-0.9-0.3-1.9
			c-0.1-2.3-0.2-4.2,0-6.2c0.1-1.2,0.2-2.5,1.1-3.3c0.4-0.4,0.9-0.6,1.4-0.7c0.8-0.2,4.4-0.3,8-0.3c3.7,0,7.2,0.1,8,0.3
			c0.7,0.1,1.3,0.5,1.7,1c0.8,1.2,0.8,2.8,0.9,4c0,0.6,0,3.8,0,4.4c-0.1,1.9-0.2,2.6-0.5,3.3c-0.2,0.4-0.3,0.7-0.6,0.9
			c-0.4,0.4-0.9,0.7-1.5,0.8C114.1,503.2,111.1,503.2,107.7,503.2L107.7,503.2z"/>
	</g>
</g>
<g>
	<g>
		<path fill="#FFCA35" d="M51.9,511.9H19.7v-32.2h32.2V511.9z M20.7,510.9h30.2v-30.2H20.7V510.9z"/>
	</g>
	<g>
		<g>
			<path fill="#FFCA35" d="M48.3,490.5c0.2,0.6-0.5,1.8-2,3.8c-0.2,0.3-0.5,0.6-0.8,1.1c-0.7,0.9-1.1,1.4-1.2,1.7
				c-0.1,0.4-0.1,0.7,0.2,1.1c0.1,0.2,0.5,0.5,1.1,1.1h0l0,0l0,0l0,0c1.2,1.1,2.1,2.1,2.5,2.9c0,0,0.1,0.1,0.1,0.2
				c0,0.1,0.1,0.2,0.1,0.3c0,0.2,0,0.3,0,0.4c0,0.1-0.1,0.3-0.3,0.4c-0.2,0.1-0.4,0.2-0.8,0.2l-3.3,0.1c-0.2,0-0.5,0-0.7-0.1
				c-0.3-0.1-0.5-0.2-0.7-0.3l-0.3-0.2c-0.3-0.2-0.6-0.5-0.9-0.8s-0.6-0.7-0.9-1c-0.2-0.3-0.5-0.6-0.8-0.8c-0.3-0.2-0.5-0.3-0.7-0.2
				c0,0-0.1,0-0.1,0s-0.1,0.1-0.2,0.2s-0.2,0.2-0.3,0.4c-0.1,0.2-0.2,0.4-0.2,0.7c-0.1,0.3-0.1,0.6-0.1,1c0,0.1,0,0.3,0,0.4
				c0,0.1-0.1,0.2-0.1,0.2l-0.1,0.1c-0.2,0.2-0.4,0.3-0.7,0.3h-1.5c-0.6,0-1.3,0-1.9-0.2c-0.7-0.2-1.2-0.4-1.7-0.7
				c-0.5-0.3-0.9-0.6-1.3-0.9c-0.4-0.3-0.7-0.5-0.9-0.8l-0.3-0.3c-0.1-0.1-0.2-0.2-0.4-0.4s-0.5-0.6-0.9-1.2c-0.5-0.6-0.9-1.3-1.4-2
				s-1-1.6-1.6-2.8c-0.6-1.1-1.2-2.3-1.7-3.6c-0.1-0.1-0.1-0.3-0.1-0.4s0-0.2,0-0.2l0.1-0.1c0.1-0.2,0.4-0.2,0.7-0.2l3.6,0
				c0.1,0,0.2,0,0.3,0.1c0.1,0,0.2,0.1,0.2,0.1l0.1,0c0.1,0.1,0.2,0.2,0.3,0.4c0.2,0.4,0.4,0.9,0.6,1.4c0.2,0.5,0.4,0.8,0.5,1.1
				l0.2,0.4c0.3,0.5,0.5,1,0.7,1.4s0.4,0.7,0.6,0.9c0.2,0.2,0.4,0.4,0.5,0.5c0.2,0.1,0.3,0.2,0.4,0.2c0.1,0,0.2,0,0.4-0.1
				c0,0,0,0,0.1-0.1c0,0,0.1-0.1,0.2-0.3c0.1-0.2,0.1-0.4,0.2-0.6c0-0.3,0.1-0.6,0.1-1.1c0-0.5,0-1,0-1.6c0-0.3-0.1-0.7-0.1-1
				s-0.1-0.5-0.2-0.6l-0.1-0.2c-0.2-0.3-0.6-0.5-1.1-0.6c-0.1,0-0.1-0.1,0.1-0.3c0.1-0.2,0.3-0.3,0.5-0.4c0.5-0.2,1.5-0.3,3.1-0.3
				c0.7,0,1.3,0.1,1.8,0.2c0.2,0,0.3,0.1,0.4,0.2c0.1,0.1,0.2,0.2,0.3,0.3c0.1,0.1,0.1,0.3,0.1,0.4c0,0.1,0,0.3,0,0.6
				c0,0.3,0,0.5,0,0.7c0,0.2,0,0.5,0,0.9c0,0.4,0,0.7,0,1.1c0,0.1,0,0.3,0,0.5c0,0.3,0,0.5,0,0.6c0,0.1,0,0.3,0,0.5
				c0,0.2,0.1,0.4,0.2,0.5c0.1,0.1,0.2,0.2,0.3,0.3c0.1,0,0.1,0,0.2,0.1c0.1,0,0.2,0,0.3-0.1s0.3-0.3,0.5-0.5s0.4-0.5,0.7-0.9
				c0.3-0.4,0.6-0.9,0.9-1.4c0.5-0.9,1-1.9,1.4-2.9c0-0.1,0.1-0.2,0.1-0.2s0.1-0.1,0.1-0.1l0.1,0c0,0,0,0,0.1,0c0,0,0.1,0,0.2,0
				s0.2,0,0.3,0l3.8,0c0.3,0,0.6,0,0.8,0c0.2,0.1,0.4,0.1,0.4,0.2L48.3,490.5z"/>
		</g>
	</g>
</g>
<g>
	<g>
		<path fill="#FFCA35" d="M-20.6,511.9h-32.2v-32.2h32.2V511.9z M-51.8,510.9h30.2v-30.2h-30.2V510.9z"/>
	</g>
	<g>
		<g>
			<path fill="#FFCA35" d="M-34.2,501.2C-34.2,501.2-34.2,501.2-34.2,501.2c1.2,1.2,2.3,2.3,3.4,3.4c0.3,0.3,0.5,0.7,0.6,1.1
				c0.2,0.9-0.5,1.8-1.4,2c-0.7,0.1-1.3,0-1.7-0.5c-1.1-1.1-2.2-2.2-3.3-3.3c0,0-0.1-0.1-0.1-0.1c0,0-0.1,0.1-0.1,0.1
				c-1.1,1.1-2.2,2.2-3.3,3.3c-0.4,0.4-1,0.6-1.6,0.5c-0.7-0.1-1.2-0.5-1.4-1.1c-0.3-0.8-0.1-1.4,0.5-2c1.1-1.1,2.2-2.2,3.3-3.3
				c0,0,0.1-0.1,0.1-0.1c-0.1,0-0.2-0.1-0.3-0.1c-1.2-0.3-2.3-0.8-3.3-1.4c-0.6-0.4-0.9-1-0.8-1.8c0.1-0.8,0.5-1.3,1.3-1.5
				c0.5-0.2,1-0.1,1.5,0.2c0.7,0.4,1.5,0.8,2.3,1c0.4,0.1,0.8,0.2,1.2,0.2c0.4,0,0.8,0,1.2,0c0.8-0.1,1.5-0.2,2.3-0.5
				c0.5-0.2,0.9-0.4,1.4-0.7c1.1-0.7,2.5-0.1,2.8,1.2c0.2,0.7-0.2,1.5-0.9,1.9c-1,0.6-2.2,1.1-3.4,1.4
				C-34.1,501.1-34.1,501.1-34.2,501.2C-34.2,501.2-34.2,501.2-34.2,501.2z"/>
		</g>
		<g>
			<path fill="#FFCA35" d="M-36.7,483.7c3.4,0,6.2,2.8,6.2,6.3c0,3.4-2.8,6.2-6.3,6.1c-3.3,0-6.1-2.7-6.1-6.2
				C-43,486.3-40.1,483.7-36.7,483.7z M-34.2,489.9c0-1.4-1.1-2.6-2.6-2.6c-1.5,0-2.6,1.2-2.6,2.6c0,1.4,1.2,2.6,2.6,2.6
				C-35.3,492.5-34.2,491.3-34.2,489.9z"/>
		</g>
	</g>
</g>
<g>
	<g>
		<g>
			<path fill="#FFFFFF" d="M224.2,311.4c-2.6,0-2.9,0-3.9,0.1c-0.9,0-1.4,0.2-1.8,0.3c-0.4,0.2-0.8,0.4-1.1,0.7
				c-0.3,0.3-0.5,0.7-0.7,1.1c-0.1,0.3-0.3,0.8-0.3,1.8c0,1-0.1,1.3-0.1,3.9c0,2.6,0,2.9,0.1,3.9c0,0.9,0.2,1.4,0.3,1.8
				c0.2,0.4,0.4,0.8,0.7,1.1c0.3,0.3,0.7,0.5,1.1,0.7c0.3,0.1,0.8,0.3,1.8,0.3c1,0,1.3,0.1,3.9,0.1c2.6,0,2.9,0,3.9-0.1
				c0.9,0,1.4-0.2,1.8-0.3c0.4-0.2,0.8-0.4,1.1-0.7c0.3-0.3,0.5-0.7,0.7-1.1c0.1-0.3,0.3-0.8,0.3-1.8c0-1,0.1-1.3,0.1-3.9
				c0-2.6,0-2.9-0.1-3.9c0-0.9-0.2-1.4-0.3-1.8c-0.2-0.4-0.4-0.8-0.7-1.1c-0.3-0.3-0.7-0.5-1.1-0.7c-0.3-0.1-0.8-0.3-1.8-0.3
				C227,311.4,226.7,311.4,224.2,311.4L224.2,311.4z M224.2,328.8c-2.6,0-2.9,0-3.9-0.1c-0.9,0-1.6-0.2-2.3-0.4
				c-0.7-0.3-1.2-0.6-1.7-1.1c-0.5-0.5-0.8-1-1.1-1.7c-0.3-0.7-0.4-1.4-0.4-2.3c0-1-0.1-1.4-0.1-3.9c0-2.6,0-2.9,0.1-3.9
				c0-0.9,0.2-1.6,0.4-2.3c0.3-0.7,0.6-1.2,1.1-1.7c0.5-0.5,1-0.8,1.7-1.1c0.7-0.3,1.4-0.4,2.3-0.4c1,0,1.4-0.1,3.9-0.1
				c2.6,0,2.9,0,3.9,0.1c0.9,0,1.6,0.2,2.3,0.4c0.7,0.3,1.2,0.6,1.7,1.1c0.5,0.5,0.8,1,1.1,1.7c0.3,0.7,0.4,1.4,0.4,2.3
				c0,1,0.1,1.4,0.1,3.9c0,2.6,0,2.9-0.1,3.9c0,0.9-0.2,1.6-0.4,2.3c-0.3,0.7-0.6,1.2-1.1,1.7c-0.5,0.5-1,0.8-1.7,1.1
				c-0.7,0.3-1.4,0.4-2.3,0.4C227.1,328.8,226.8,328.8,224.2,328.8L224.2,328.8z"/>
		</g>
		<g>
			<path fill="#FFFFFF" d="M224.2,322.4c-1.7,0-3.2-1.4-3.2-3.2c0-1.7,1.4-3.2,3.2-3.2c1.7,0,3.2,1.4,3.2,3.2
				C227.3,321,225.9,322.4,224.2,322.4 M224.2,314.4c-2.7,0-4.9,2.2-4.9,4.9c0,2.7,2.2,4.9,4.9,4.9c2.7,0,4.9-2.2,4.9-4.9
				C229,316.6,226.9,314.4,224.2,314.4"/>
		</g>
		<g>
			<path fill="#FFFFFF" d="M230.4,314.1c0,0.6-0.5,1.1-1.1,1.1c-0.6,0-1.1-0.5-1.1-1.1c0-0.6,0.5-1.1,1.1-1.1
				C229.9,313,230.4,313.5,230.4,314.1"/>
		</g>
	</g>
	<g>
		<path fill="#FFFFFF" d="M240.2,335.6H208v-32.2h32.2V335.6z M209,334.6h30.2v-30.2H209V334.6z"/>
	</g>
</g>
<g>
	<g>
		<path fill="#FFFFFF" d="M-166.6,511.9h-32.2v-32.2h32.2V511.9z M-197.8,510.9h30.2v-30.2h-30.2V510.9z"/>
	</g>
	<g>
		<path fill="#FFFFFF" d="M-185.4,506.1h4.3v-10.6h3l0.3-3.6h-3.3c0,0,0-1.3,0-2c0-0.8,0.2-1.2,1-1.2c0.7,0,2.3,0,2.3,0V485
			c0,0-2.4,0-2.9,0c-3.2,0-4.6,1.4-4.6,4.1c0,2.3,0,2.8,0,2.8h-2.2v3.6h2.2V506.1L-185.4,506.1z"/>
	</g>
</g>
<g>
	<g>
		<path fill="#FFFFFF" d="M-314.2,511.9h-32.2v-32.2h32.2V511.9z M-345.4,510.9h30.2v-30.2h-30.2V510.9z"/>
	</g>
	<g>
		<path fill="#FFFFFF" d="M-326.8,495.5c-1.9-1-3.8-2-5.7-3v6C-330.5,497.4-328.4,496.4-326.8,495.5L-326.8,495.5L-326.8,495.5z
			 M-332.1,503.2c-4-0.1-5.4-0.1-6.3-0.3c-0.6-0.1-1.1-0.4-1.4-0.7c-0.3-0.3-0.5-0.7-0.7-1.3c-0.1-0.5-0.2-0.9-0.3-1.9
			c-0.1-2.3-0.2-4.2,0-6.2c0.1-1.2,0.2-2.5,1.1-3.3c0.4-0.4,0.9-0.6,1.4-0.7c0.8-0.2,4.4-0.3,8-0.3c3.7,0,7.2,0.1,8,0.3
			c0.7,0.1,1.3,0.5,1.7,1c0.8,1.2,0.8,2.8,0.9,4c0,0.6,0,3.8,0,4.4c-0.1,1.9-0.2,2.6-0.5,3.3c-0.2,0.4-0.3,0.7-0.6,0.9
			c-0.4,0.4-0.9,0.7-1.5,0.8C-325.8,503.2-328.8,503.2-332.1,503.2L-332.1,503.2z"/>
	</g>
</g>
<g>
	<g>
		<path fill="#FFFFFF" d="M240.2,408.3H208v-32.2h32.2V408.3z M209,407.3h30.2v-30.2H209V407.3z"/>
	</g>
	<g>
		<g>
			<path fill="#FFFFFF" d="M236.6,386.9c0.2,0.6-0.5,1.8-2,3.8c-0.2,0.3-0.5,0.6-0.8,1.1c-0.7,0.9-1.1,1.4-1.2,1.7
				c-0.1,0.4-0.1,0.7,0.2,1.1c0.1,0.2,0.5,0.5,1.1,1.1h0l0,0l0,0l0,0c1.2,1.1,2.1,2.1,2.5,2.9c0,0,0.1,0.1,0.1,0.2
				c0,0.1,0.1,0.2,0.1,0.3c0,0.2,0,0.3,0,0.4c0,0.1-0.1,0.3-0.3,0.4c-0.2,0.1-0.4,0.2-0.8,0.2l-3.3,0.1c-0.2,0-0.5,0-0.7-0.1
				c-0.3-0.1-0.5-0.2-0.7-0.3l-0.3-0.2c-0.3-0.2-0.6-0.5-0.9-0.8s-0.6-0.7-0.9-1c-0.2-0.3-0.5-0.6-0.8-0.8c-0.3-0.2-0.5-0.3-0.7-0.2
				c0,0-0.1,0-0.1,0s-0.1,0.1-0.2,0.2s-0.2,0.2-0.3,0.4c-0.1,0.2-0.2,0.4-0.2,0.7c-0.1,0.3-0.1,0.6-0.1,1c0,0.1,0,0.3,0,0.4
				c0,0.1-0.1,0.2-0.1,0.2l-0.1,0.1c-0.2,0.2-0.4,0.3-0.7,0.3h-1.5c-0.6,0-1.3,0-1.9-0.2c-0.7-0.2-1.2-0.4-1.7-0.7
				c-0.5-0.3-0.9-0.6-1.3-0.9c-0.4-0.3-0.7-0.5-0.9-0.8l-0.3-0.3c-0.1-0.1-0.2-0.2-0.4-0.4s-0.5-0.6-0.9-1.2c-0.5-0.6-0.9-1.3-1.4-2
				s-1-1.6-1.6-2.8c-0.6-1.1-1.2-2.3-1.7-3.6c-0.1-0.1-0.1-0.3-0.1-0.4s0-0.2,0-0.2l0.1-0.1c0.1-0.2,0.4-0.2,0.7-0.2l3.6,0
				c0.1,0,0.2,0,0.3,0.1c0.1,0,0.2,0.1,0.2,0.1l0.1,0c0.1,0.1,0.2,0.2,0.3,0.4c0.2,0.4,0.4,0.9,0.6,1.4c0.2,0.5,0.4,0.8,0.5,1.1
				l0.2,0.4c0.3,0.5,0.5,1,0.7,1.4s0.4,0.7,0.6,0.9c0.2,0.2,0.4,0.4,0.5,0.5c0.2,0.1,0.3,0.2,0.4,0.2c0.1,0,0.2,0,0.4-0.1
				c0,0,0,0,0.1-0.1c0,0,0.1-0.1,0.2-0.3c0.1-0.2,0.1-0.4,0.2-0.6c0-0.3,0.1-0.6,0.1-1.1c0-0.5,0-1,0-1.6c0-0.3-0.1-0.7-0.1-1
				s-0.1-0.5-0.2-0.6l-0.1-0.2c-0.2-0.3-0.6-0.5-1.1-0.6c-0.1,0-0.1-0.1,0.1-0.3c0.1-0.2,0.3-0.3,0.5-0.4c0.5-0.2,1.5-0.3,3.1-0.3
				c0.7,0,1.3,0.1,1.8,0.2c0.2,0,0.3,0.1,0.4,0.2c0.1,0.1,0.2,0.2,0.3,0.3c0.1,0.1,0.1,0.3,0.1,0.4c0,0.1,0,0.3,0,0.6
				c0,0.3,0,0.5,0,0.7c0,0.2,0,0.5,0,0.9c0,0.4,0,0.7,0,1.1c0,0.1,0,0.3,0,0.5c0,0.3,0,0.5,0,0.6c0,0.1,0,0.3,0,0.5
				c0,0.2,0.1,0.4,0.2,0.5c0.1,0.1,0.2,0.2,0.3,0.3c0.1,0,0.1,0,0.2,0.1c0.1,0,0.2,0,0.3-0.1s0.3-0.3,0.5-0.5s0.4-0.5,0.7-0.9
				c0.3-0.4,0.6-0.9,0.9-1.4c0.5-0.9,1-1.9,1.4-2.9c0-0.1,0.1-0.2,0.1-0.2s0.1-0.1,0.1-0.1l0.1,0c0,0,0,0,0.1,0c0,0,0.1,0,0.2,0
				s0.2,0,0.3,0l3.8,0c0.3,0,0.6,0,0.8,0c0.2,0.1,0.4,0.1,0.4,0.2L236.6,386.9z"/>
		</g>
	</g>
</g>
<g>
	<g>
		<path fill="#FFFFFF" d="M-240.2,511.9h-32.2v-32.2h32.2V511.9z M-271.4,510.9h30.2v-30.2h-30.2V510.9z"/>
	</g>
	<g>
		<g>
			<path fill="#FFFFFF" d="M-253.8,501.2C-253.8,501.2-253.7,501.2-253.8,501.2c1.2,1.2,2.3,2.3,3.4,3.4c0.3,0.3,0.5,0.7,0.6,1.1
				c0.2,0.9-0.5,1.8-1.4,2c-0.7,0.1-1.3,0-1.7-0.5c-1.1-1.1-2.2-2.2-3.3-3.3c0,0-0.1-0.1-0.1-0.1c0,0-0.1,0.1-0.1,0.1
				c-1.1,1.1-2.2,2.2-3.3,3.3c-0.4,0.4-1,0.6-1.6,0.5c-0.7-0.1-1.2-0.5-1.4-1.1c-0.3-0.8-0.1-1.4,0.5-2c1.1-1.1,2.2-2.2,3.3-3.3
				c0,0,0.1-0.1,0.1-0.1c-0.1,0-0.2-0.1-0.3-0.1c-1.2-0.3-2.3-0.8-3.3-1.4c-0.6-0.4-0.9-1-0.8-1.8c0.1-0.8,0.5-1.3,1.3-1.5
				c0.5-0.2,1-0.1,1.5,0.2c0.7,0.4,1.5,0.8,2.3,1c0.4,0.1,0.8,0.2,1.2,0.2c0.4,0,0.8,0,1.2,0c0.8-0.1,1.5-0.2,2.3-0.5
				c0.5-0.2,0.9-0.4,1.4-0.7c1.1-0.7,2.5-0.1,2.8,1.2c0.2,0.7-0.2,1.5-0.9,1.9c-1,0.6-2.2,1.1-3.4,1.4
				C-253.6,501.1-253.7,501.1-253.8,501.2C-253.8,501.2-253.8,501.2-253.8,501.2z"/>
		</g>
		<g>
			<path fill="#FFFFFF" d="M-256.3,483.7c3.4,0,6.2,2.8,6.2,6.3c0,3.4-2.8,6.2-6.3,6.1c-3.3,0-6.1-2.7-6.1-6.2
				C-262.5,486.3-259.6,483.7-256.3,483.7z M-253.7,489.9c0-1.4-1.1-2.6-2.6-2.6c-1.5,0-2.6,1.2-2.6,2.6c0,1.4,1.2,2.6,2.6,2.6
				C-254.8,492.5-253.7,491.3-253.7,489.9z"/>
		</g>
	</g>
</g>
<g>
	<path fill="#FFFFFF" d="M-45.7,566.4h-9.1c-0.8,0-1.5-0.7-1.5-1.5v-9.1c0-0.8,0.7-1.5,1.5-1.5h9.1c0.8,0,1.5,0.7,1.5,1.5v9.1
		C-44.3,565.7-44.9,566.4-45.7,566.4z"/>
	<path fill="none" d="M-40.3,554.9c0,0,0.1-0.1,0.1-0.2s0-0.1-0.1-0.2l-1.4-1.4c0,0-0.1-0.1-0.2-0.1c-0.1,0-0.1,0-0.2,0.1l-6.6,6.6
		l-0.5,0.5l-0.5-0.5l-3-3c0,0-0.1-0.1-0.2-0.1c-0.1,0-0.1,0-0.2,0.1l-1.4,1.4c0,0-0.1,0.1-0.1,0.2s0,0.1,0.1,0.2l3.6,3.6l1.4,1.4
		c0,0,0.1,0.1,0.2,0.1s0.1,0,0.2-0.1l1.4-1.4L-40.3,554.9z"/>
</g>
<g>
	<path fill="#FFCA35" d="M-104,415.5l-6-14.4c-0.2-0.4-0.6-0.5-0.9-0.4c-0.4,0.2-0.5,0.6-0.4,0.9l5.4,13l-4.9-1.4
		c-0.3-0.1-0.7,0-0.8,0.3l-2.5,4.5l-5.8-14c6.7-1.3,11.7-7.2,11.7-14.2c0-8-6.5-14.5-14.5-14.5c-8,0-14.5,6.5-14.5,14.5
		c0,3.2,1.1,6.2,2.9,8.6l-7,17c-0.1,0.3-0.1,0.5,0.1,0.8c0.2,0.2,0.5,0.3,0.7,0.2l5.8-1.7l2.9,5.3c0.1,0.2,0.4,0.4,0.6,0.4
		c0,0,0,0,0,0c0.3,0,0.5-0.2,0.6-0.4l5.6-13.4c0.2-0.4,0-0.8-0.4-0.9c-0.4-0.2-0.8,0-0.9,0.4l-5,12.1l-2.5-4.5
		c-0.2-0.3-0.5-0.4-0.8-0.3l-4.9,1.4l6.2-14.9c2.6,2.8,6.4,4.6,10.6,4.6c0.4,0,0.9,0,1.3-0.1l6.5,15.7c0.1,0.3,0.3,0.4,0.6,0.4
		c0,0,0,0,0,0c0.3,0,0.5-0.1,0.6-0.4l2.9-5.3l5.8,1.7c0.3,0.1,0.6,0,0.7-0.2C-104,416.1-103.9,415.8-104,415.5L-104,415.5z
		 M-135.7,389.9c0-7.2,5.8-13,13-13c7.2,0,13,5.8,13,13c0,7.2-5.8,13-13,13C-129.8,403-135.7,397.1-135.7,389.9L-135.7,389.9z
		 M-135.7,389.9"/>
	<path fill="#FFCA35" d="M-114.3,387.2c-0.1-0.3-0.3-0.4-0.6-0.5l-4.8-0.8l-2.3-4.3c-0.1-0.2-0.4-0.4-0.6-0.4
		c-0.3,0-0.5,0.1-0.6,0.4l-2.3,4.3l-4.8,0.8c-0.3,0-0.5,0.2-0.6,0.5c-0.1,0.3,0,0.5,0.2,0.7l3.4,3.5l-0.7,4.8c0,0.3,0.1,0.5,0.3,0.7
		c0.2,0.2,0.5,0.2,0.7,0.1l4.4-2.2l4.4,2.2c0.1,0.1,0.2,0.1,0.3,0.1c0.1,0,0.3,0,0.4-0.1c0.2-0.2,0.3-0.4,0.3-0.7l-0.7-4.8l3.4-3.5
		C-114.3,387.8-114.3,387.5-114.3,387.2L-114.3,387.2z M-119.2,390.7c-0.2,0.2-0.2,0.4-0.2,0.6l0.6,3.8l-3.5-1.7
		c-0.1-0.1-0.2-0.1-0.3-0.1c-0.1,0-0.2,0-0.3,0.1l-3.5,1.7l0.6-3.8c0-0.2,0-0.4-0.2-0.6l-2.7-2.8l3.8-0.6c0.2,0,0.4-0.2,0.5-0.4
		l1.8-3.4l1.8,3.4c0.1,0.2,0.3,0.3,0.5,0.4l3.8,0.6L-119.2,390.7z M-119.2,390.7"/>
	<path fill="#FFCA35" d="M-111.8,390.7c-0.4-0.1-0.8,0.2-0.8,0.6c-0.7,5-5,8.8-10.1,8.8c-5.6,0-10.2-4.6-10.2-10.2
		c0-5.6,4.6-10.2,10.2-10.2c5.1,0,9.4,3.8,10.1,8.8c0.1,0.4,0.4,0.7,0.8,0.6c0.4-0.1,0.7-0.4,0.6-0.8c-0.8-5.7-5.7-10.1-11.5-10.1
		c-6.4,0-11.6,5.2-11.6,11.6c0,6.4,5.2,11.6,11.6,11.6c5.8,0,10.7-4.3,11.5-10.1C-111.1,391.1-111.4,390.7-111.8,390.7L-111.8,390.7
		z M-111.8,390.7"/>
</g>
<g>
	<path fill="#FFCA35" d="M146.3,193.6v-10.8c1.1-0.1,1.9-1,1.9-2.1c0-1.2-0.9-2.1-2.1-2.1h-9.4c-1.2,0-2.1,0.9-2.1,2.1
		c0,1.1,0.8,2,1.9,2.1v10.8c-2.1,0.8-4,2.2-5.5,3.9c-0.2,0.3-0.2,0.7,0.1,1c0.1,0.1,0.3,0.2,0.5,0.2c0.2,0,0.4-0.1,0.5-0.3
		c1.4-1.7,3.3-3,5.3-3.7c0.3-0.1,0.5-0.4,0.5-0.7v-11.2h4c0.4,0,0.7-0.3,0.7-0.7s-0.3-0.7-0.7-0.7h-5.1c-0.4,0-0.7-0.3-0.7-0.7
		c0-0.4,0.3-0.7,0.7-0.7h9.4c0.4,0,0.7,0.3,0.7,0.7c0,0.4-0.3,0.7-0.7,0.7h-1.4c-0.4,0-0.7,0.3-0.7,0.7s0.3,0.7,0.7,0.7h0.2v11.2
		c0,0.3,0.2,0.6,0.5,0.7c4.9,1.7,8.2,6.3,8.2,11.5c0,6.7-5.5,12.2-12.2,12.2c-1.6,0-3.1-0.3-4.6-0.9c-0.4-0.1-0.8,0-0.9,0.4
		c-0.1,0.4,0,0.8,0.4,0.9c1.6,0.7,3.3,1,5.1,1c7.5,0,13.6-6.1,13.6-13.6C155,200.7,151.5,195.7,146.3,193.6L146.3,193.6z
		 M146.3,193.6"/>
	<path fill="#FFCA35" d="M147.4,208.8c0,0.4-0.3,0.7-0.7,0.7c-0.4,0-0.7-0.3-0.7-0.7c0-0.4,0.3-0.7,0.7-0.7
		C147,208.1,147.4,208.4,147.4,208.8L147.4,208.8z M147.4,208.8"/>
	<path fill="#FFCA35" d="M144.5,211.6c0,0.4-0.3,0.7-0.7,0.7c-0.4,0-0.7-0.3-0.7-0.7c0-0.4,0.3-0.7,0.7-0.7
		C144.2,210.9,144.5,211.2,144.5,211.6L144.5,211.6z M144.5,211.6"/>
	<path fill="#FFCA35" d="M137.5,214.8c-0.4-0.2-0.8,0-0.9,0.3c-0.2,0.4,0,0.8,0.3,0.9c1.4,0.7,3,1,4.6,1c5.9,0,10.8-4.8,10.8-10.8
		c0-1.9-0.5-3.8-1.4-5.4c-0.1-0.2-0.4-0.4-0.7-0.3l-0.3,0c0,0-0.1,0-0.1,0c-1.1,0.3-1.6,0.8-2.1,1.1c-0.5,0.4-0.8,0.7-1.8,0.7
		c-0.8,0-1.2-0.3-1.7-0.8c-0.6-0.5-1.3-1.1-2.6-1.1c-1.3,0-2.1,0.6-2.6,1.1c-0.5,0.4-0.9,0.8-1.7,0.8c-1,0-1.3-0.3-1.8-0.7
		c-0.5-0.4-1-0.8-2.1-1.1c0,0-0.1,0-0.1,0l-0.3,0c-0.3,0-0.6,0.1-0.7,0.3c0,0,0,0,0,0c-0.2,0.3-0.1,0.8,0.3,1
		c0.1,0.1,0.3,0.1,0.5,0.1l0,0c0.8,0.2,1.1,0.5,1.6,0.9c0.6,0.5,1.2,1,2.7,1c1.3,0,2.1-0.6,2.6-1.1c0.5-0.4,0.9-0.8,1.7-0.8
		c0.8,0,1.2,0.3,1.7,0.8c0.6,0.5,1.3,1.1,2.6,1.1c1.5,0,2.1-0.5,2.7-1c0.4-0.3,0.7-0.6,1.3-0.8c0.7,1.3,1,2.8,1,4.2
		c0,5.2-4.2,9.4-9.4,9.4C140,215.7,138.7,215.4,137.5,214.8L137.5,214.8z M137.5,214.8"/>
	<path fill="#FFCA35" d="M127.9,194v-13.9c1.1-0.1,1.9-1,1.9-2.1c0-1.2-0.9-2.1-2.1-2.1h-9.4c-1.2,0-2.1,0.9-2.1,2.1
		c0,1.1,0.8,2,1.9,2.1v11.3c0,0.4,0.3,0.7,0.7,0.7c0.4,0,0.7-0.3,0.7-0.7v-11.2h4c0.4,0,0.7-0.3,0.7-0.7c0-0.4-0.3-0.7-0.7-0.7h-5.1
		c-0.4,0-0.7-0.3-0.7-0.7c0-0.4,0.3-0.7,0.7-0.7h9.4c0.4,0,0.7,0.3,0.7,0.7c0,0.4-0.3,0.7-0.7,0.7h-1.4c-0.4,0-0.7,0.3-0.7,0.7
		c0,0.4,0.3,0.7,0.7,0.7h0.2v14c0,0.1,0,0.2,0,0.2l6.8,19.7c0.4,1.2,0.3,2.3-0.3,3.1c-0.6,0.8-1.6,1.3-2.9,1.3h-14.5
		c-1.3,0-2.3-0.4-2.9-1.3c-0.6-0.8-0.7-1.9-0.3-3.1l6.8-19.7c0.1-0.4-0.1-0.8-0.4-0.9c-0.4-0.1-0.8,0.1-0.9,0.4l-6.8,19.7
		c-0.6,1.6-0.4,3.2,0.4,4.4c0.9,1.2,2.3,1.9,4,1.9h14.5c1.7,0,3.1-0.7,4-1.9c0.9-1.2,1-2.8,0.4-4.4L127.9,194z M127.9,194"/>
	<path fill="#FFCA35" d="M117,208.5c-0.2-0.1-0.4-0.2-0.6-0.1c-0.2,0.1-0.4,0.2-0.5,0.4l-2,5.7c-0.3,0.8-0.2,1.4,0.1,1.8
		c0.3,0.4,0.9,0.7,1.7,0.7h14.5c0.8,0,1.4-0.2,1.7-0.7c0.3-0.4,0.3-1.1,0.1-1.8l-2-5.7c-0.1-0.2-0.2-0.4-0.5-0.4
		c-0.2-0.1-0.5,0-0.6,0.1c-0.4,0.3-0.7,0.5-1.6,0.5c-0.8,0-1.2-0.3-1.7-0.8c-0.6-0.5-1.3-1.1-2.6-1.1c-1.3,0-2.1,0.6-2.6,1.1
		c-0.5,0.4-0.9,0.8-1.7,0.8C117.8,209.1,117.4,208.8,117,208.5L117,208.5z M121.3,209.4c0.5-0.4,0.9-0.8,1.7-0.8
		c0.8,0,1.2,0.3,1.7,0.8c0.6,0.5,1.3,1.1,2.6,1.1c0.7,0,1.3-0.1,1.7-0.3l1.7,4.9c0.1,0.3,0.1,0.5,0.1,0.6c-0.1,0-0.3,0.1-0.6,0.1
		h-14.5c-0.3,0-0.5-0.1-0.6-0.1c0-0.1,0-0.3,0.1-0.6l1.7-4.9c0.4,0.2,0.9,0.3,1.7,0.3C120,210.5,120.7,209.8,121.3,209.4
		L121.3,209.4z M121.3,209.4"/>
</g>
<g>
	<path fill="#FFCA35" d="M125,119.4c-0.5,0-0.9-0.4-0.9-0.9s0.4-0.9,0.9-0.9s0.9,0.4,0.9,0.9C125.8,119,125.4,119.4,125,119.4
		L125,119.4z M125,115.9c-1.5,0-2.7,1.2-2.7,2.7c0,1.5,1.2,2.7,2.7,2.7s2.7-1.2,2.7-2.7C127.6,117.1,126.4,115.9,125,115.9
		L125,115.9z"/>
	<path fill="#FFCA35" d="M141.6,119.4c-0.5,0-0.9-0.4-0.9-0.9s0.4-0.9,0.9-0.9s0.9,0.4,0.9,0.9C142.5,119,142.1,119.4,141.6,119.4
		L141.6,119.4z M141.6,115.9c-1.5,0-2.7,1.2-2.7,2.7c0,1.5,1.2,2.7,2.7,2.7c1.5,0,2.7-1.2,2.7-2.7
		C144.2,117.1,143,115.9,141.6,115.9L141.6,115.9z"/>
	<path fill="#FFCA35" d="M136.8,116h-4.2c-0.5,0-0.9,0.4-0.9,0.9s0.4,0.9,0.9,0.9h4.2c0.5,0,0.9-0.4,0.9-0.9S137.2,116,136.8,116
		L136.8,116z"/>
	<path fill="#FFCA35" d="M129.8,117.7L129.8,117.7c0.5,0,0.9-0.4,0.9-0.9s-0.4-0.9-0.9-0.9h0c-0.5,0-0.9,0.4-0.9,0.9
		S129.3,117.7,129.8,117.7L129.8,117.7z"/>
	<path fill="#FFCA35" d="M136.8,119.4L136.8,119.4c-0.5,0-0.9,0.4-0.9,0.9c0,0.5,0.4,0.9,0.9,0.9h0c0.5,0,0.9-0.4,0.9-0.9
		C137.6,119.8,137.2,119.4,136.8,119.4L136.8,119.4z"/>
	<path fill="#FFCA35" d="M134,119.4h-4.2c-0.5,0-0.9,0.4-0.9,0.9c0,0.5,0.4,0.9,0.9,0.9h4.2c0.5,0,0.9-0.4,0.9-0.9
		C134.9,119.8,134.5,119.4,134,119.4L134,119.4z"/>
	<path fill="#FFCA35" d="M154.2,131.8v1.1h-42v-1.1H154.2 M143,129.9V127h2.2v2.9c0,0.1-0.1,0.2-0.2,0.2h-1.9
		C143.1,130.1,143,130,143,129.9L143,129.9z M125.3,129.9V127h16v2.9c0,0.1,0,0.1,0,0.2h-16C125.3,130,125.3,129.9,125.3,129.9
		L125.3,129.9z M121.3,129.9V127h2.2v2.9c0,0.1-0.1,0.2-0.2,0.2h-1.9C121.3,130.1,121.3,130,121.3,129.9L121.3,129.9z M146.6,124.3
		v0.4c0,0.2-0.2,0.4-0.4,0.4l0,0h-25.8l0,0c-0.2,0-0.4-0.2-0.4-0.4v-0.4H146.6L146.6,124.3z M120.8,116.3c0-1,0.8-1.8,1.8-1.8h21.3
		c1,0,1.8,0.8,1.8,1.8v6.2h-24.9V116.3L120.8,116.3z M121.7,112.8h-2.2v-1.1h2.2V112.8L121.7,112.8z M143,112.8L143,112.8h-19.6l0,0
		v-4.9c0-0.7,0.6-1.4,1.4-1.4h16.9c0.7,0,1.4,0.6,1.4,1.4L143,112.8L143,112.8L143,112.8z M144.8,112.8v-1.1h2.2v1.1H144.8
		L144.8,112.8z M114.6,107.8L133.3,95l18.6,12.8v22.3H147c0-0.1,0-0.1,0-0.2v-3.1c0.8-0.3,1.3-1.1,1.3-2v-1.3c0-0.5-0.4-0.9-0.9-0.9
		v-6.2c0-0.6-0.2-1.3-0.5-1.8h0.9c0.5,0,0.9-0.4,0.9-0.9v-2.8c0-0.5-0.4-0.9-0.9-0.9h-3.1v-2c0-1.7-1.4-3.1-3.1-3.1h-16.9
		c-1.7,0-3.1,1.4-3.1,3.1v2h-3.1c-0.5,0-0.9,0.4-0.9,0.9v2.8c0,0.5,0.4,0.9,0.9,0.9h0.9c-0.3,0.5-0.5,1.1-0.5,1.8v6.2
		c-0.5,0-0.9,0.4-0.9,0.9v1.3c0,0.9,0.5,1.7,1.3,2v3.1c0,0.1,0,0.1,0,0.2h-4.9V107.8L114.6,107.8z M112.3,105.6l21-14.4l21,14.4
		l0,0.9h-1.2l-19.3-13.3c-0.3-0.2-0.7-0.2-1,0l-19.3,13.3h-1.2V105.6L112.3,105.6z M155.1,130.1h-1.5v-21.9h1.5
		c0.2,0,0.5-0.1,0.6-0.3c0.2-0.2,0.3-0.4,0.3-0.6l0-2.2c0,0,0,0,0,0v0c0,0,0,0,0,0c0,0,0,0,0-0.1c0,0,0,0,0,0c0,0,0,0,0,0
		c0,0,0,0,0,0c0,0,0,0,0,0c0,0,0,0,0,0c0,0,0,0,0,0c0,0,0,0,0,0c0,0,0,0,0,0c0,0,0,0,0,0c0,0,0,0,0,0c0,0,0,0,0,0c0,0,0,0,0,0
		c0,0,0,0,0,0c0,0,0,0,0,0c0,0,0,0,0,0c0,0,0,0,0,0c0,0,0,0,0,0c0,0,0,0,0,0l0,0c0,0,0,0,0,0l-21.9-15c-0.3-0.2-0.7-0.2-1,0
		l-21.9,15l0,0l0,0c0,0,0,0,0,0c0,0,0,0,0,0c0,0,0,0,0,0c0,0,0,0,0,0c0,0,0,0,0,0c0,0,0,0,0,0c0,0,0,0,0,0c0,0,0,0,0,0c0,0,0,0,0,0
		c0,0,0,0,0,0c0,0,0,0,0,0c0,0,0,0,0,0c0,0,0,0,0,0c0,0,0,0,0,0c0,0,0,0,0,0c0,0,0,0,0,0c0,0,0,0,0,0c0,0,0,0,0,0c0,0,0,0,0,0.1
		c0,0,0,0,0,0v0c0,0,0,0,0,0v2.2c0,0.5,0.4,0.9,0.9,0.9h1.5v21.9h-1.5c-0.5,0-0.9,0.4-0.9,0.9v2.8c0,0.5,0.4,0.9,0.9,0.9h43.7
		c0.5,0,0.9-0.4,0.9-0.9V131C156,130.5,155.6,130.1,155.1,130.1L155.1,130.1z"/>
</g>
<g>
	<rect x="208.3" y="-16.1" fill="none" stroke="#FFCA35" stroke-miterlimit="10" width="31" height="34.4"/>
	<rect x="212.5" y="-28.8" fill="none" stroke="#FFCA35" stroke-miterlimit="10" width="14.9" height="12.8"/>
</g>
<g>
	<path fill="#0FC07C" d="M-346.5,329.9v-69.4c0-2.4,1.9-4.3,4.3-4.3h69.4c3.8,0,5.7,4.6,3,7.3l-69.4,69.4
		C-341.8,335.6-346.5,333.7-346.5,329.9z"/>
	<g>
		<path fill="#FFFFFF" d="M-340.7,314.9c0.2-0.3,0.4-0.5,0.6-0.8s0.5-0.6,0.8-0.8c0.3-0.3,0.6-0.5,0.9-0.8c0.3-0.2,0.7-0.4,1-0.5
			c0.4-0.1,0.7-0.1,1.1,0c0.4,0.1,0.8,0.3,1.1,0.7c0.3,0.3,0.6,0.7,0.7,1.1c0.1,0.4,0.2,0.7,0.1,1.1s-0.2,0.7-0.3,1
			c-0.2,0.3-0.4,0.6-0.7,0.9c0,0-0.1,0.1-0.1,0.1s-0.1,0.1-0.2,0.2c-0.1,0.1-0.1,0.1-0.2,0.2c-0.1,0.1-0.1,0.1-0.1,0.1l1.9,1.9
			l-1.1,1.1L-340.7,314.9z M-338.3,314.1c-0.1,0.1-0.2,0.2-0.3,0.3c-0.1,0.1-0.2,0.2-0.2,0.3l1.8,1.8c0,0,0.1,0,0.1-0.1
			c0,0,0.1-0.1,0.1-0.1c0,0,0.1-0.1,0.1-0.1c0,0,0.1-0.1,0.1-0.1c0.1-0.1,0.3-0.3,0.4-0.5s0.2-0.3,0.2-0.5c0-0.2,0-0.4,0-0.6
			c-0.1-0.2-0.2-0.4-0.4-0.6c-0.2-0.2-0.3-0.3-0.5-0.3c-0.2,0-0.3-0.1-0.5,0c-0.2,0-0.3,0.1-0.5,0.2
			C-338,313.8-338.1,313.9-338.3,314.1z"/>
		<path fill="#FFFFFF" d="M-336.2,310.3l3.2-3.3l1,1l-2.2,2.2l1.3,1.3l2-2l1,1l-2,2l1.4,1.3l2.2-2.2l1,1l-3.3,3.3L-336.2,310.3z"/>
		<path fill="#FFFFFF" d="M-327.6,308l-0.3,0.3l2.4,2.3l-1.1,1.1l-5.5-5.5l1.1-1.1l2.4,2.4l0.1-0.4l-0.8-3.8l1.2-1.2l0.7,3.9
			l-0.1,0.7l0.7-0.1l4.4,0.7l-1.3,1.3L-327.6,308z"/>
		<path fill="#FFFFFF" d="M-324.9,304.4c-0.9-0.9-1.4-1.8-1.5-2.7c-0.1-0.9,0.2-1.7,1-2.5c0.4-0.4,0.8-0.7,1.2-0.8
			c0.4-0.2,0.9-0.2,1.3-0.2c0.4,0.1,0.9,0.2,1.3,0.5c0.4,0.3,0.9,0.6,1.3,1c0.9,0.9,1.4,1.8,1.5,2.7c0.1,0.9-0.2,1.7-1,2.5
			c-0.4,0.4-0.8,0.7-1.2,0.8c-0.4,0.2-0.9,0.2-1.3,0.2c-0.4-0.1-0.9-0.2-1.3-0.5C-324,305.2-324.5,304.8-324.9,304.4z M-323.8,303.3
			c0.3,0.3,0.6,0.5,0.8,0.7c0.3,0.2,0.6,0.3,0.8,0.4c0.3,0.1,0.5,0.1,0.8,0c0.2-0.1,0.5-0.2,0.7-0.4c0.4-0.4,0.5-0.8,0.4-1.3
			c-0.1-0.5-0.5-1.1-1.1-1.8c-0.3-0.3-0.5-0.5-0.8-0.7s-0.5-0.3-0.8-0.4c-0.3-0.1-0.5-0.1-0.8,0c-0.2,0.1-0.5,0.2-0.7,0.4
			c-0.4,0.4-0.5,0.8-0.4,1.3C-324.8,302-324.4,302.6-323.8,303.3z"/>
		<path fill="#FFFFFF" d="M-315.4,294.6l-1-1.2l0,0l0.5,1.2l0.9,3.2l-0.3,0.3l-3.3-0.8l-1.2-0.5l0,0l1.2,0.9l2.9,2.8l-1,1l-5.5-5.5
			l1-1l4,1l0.9,0.4l0,0l-0.4-0.9l-1.1-3.9l1-1l5.5,5.5l-1.1,1.1L-315.4,294.6z"/>
		<path fill="#FFFFFF" d="M-316,289.9l3.2-3.3l1,1l-2.2,2.2l1.3,1.3l2-2l1,1l-2,2l1.4,1.3l2.2-2.2l1,1l-3.3,3.3L-316,289.9z"/>
		<path fill="#FFFFFF" d="M-305.6,285.9l-2,2l2.3,2.3l-1.1,1.1l-5.5-5.5l1.1-1.1l2.2,2.2l2-2l-2.2-2.2l1.1-1.1l5.5,5.5l-1.1,1.1
			L-305.6,285.9z"/>
		<path fill="#FFFFFF" d="M-295.5,282.2l-0.8,0.8l-1.1-0.9l-3.5,3.6l0.9,1.1l-0.8,0.8l-1.9-1.9l0.6-0.6c0-0.1-0.1-0.3-0.2-0.6
			c-0.1-0.3-0.3-0.6-0.6-1.1c-0.3-0.4-0.7-1-1.2-1.6c-0.5-0.6-1.1-1.3-1.9-2l3.3-3.3l4.6,4.5l0.7-0.7L-295.5,282.2z M-299.2,282.1
			l-3.6-3.6l-1.2,1.2c0.9,1,1.6,1.8,2.1,2.5c0.5,0.7,0.8,1.3,0.9,1.6L-299.2,282.1z"/>
		<path fill="#FFFFFF" d="M-297.5,276.1l0.9,0.6l0,0l-0.6-0.9l-1.6-3.2l1.1-1.1l2.4,5.3c0.2,0.4,0.3,0.8,0.4,1.1
			c0.1,0.3,0.2,0.6,0.2,0.9s0,0.5-0.1,0.7c-0.1,0.2-0.2,0.4-0.4,0.6c-0.2,0.2-0.3,0.3-0.5,0.4c-0.1,0.1-0.3,0.2-0.5,0.2l-0.6-1.1
			c0.1,0,0.2-0.1,0.3-0.2c0.1-0.1,0.2-0.1,0.2-0.2c0.2-0.2,0.2-0.6-0.1-1.1l-6.1-1.9l1.3-1.3L-297.5,276.1z"/>
		<path fill="#FFFFFF" d="M-297.3,271l3.2-3.3l1,1l-2.2,2.2l1.3,1.3l2-2l1,1l-2,2l1.4,1.3l2.2-2.2l1,1l-3.3,3.3L-297.3,271z"/>
		<path fill="#FFFFFF" d="M-286.3,265.2l-1-1.2l0,0l0.5,1.2l0.9,3.2l-0.3,0.3l-3.3-0.8l-1.2-0.5l0,0l1.2,0.9l2.9,2.8l-1,1l-5.5-5.5
			l1-1l4,1l0.9,0.4l0,0l-0.4-0.9l-1.1-3.9l1-1l5.5,5.5l-1.1,1.1L-286.3,265.2z"/>
	</g>
	<g>
		<path fill="#FFFFFF" d="M-331.7,280.1l6.3,6.2c0.2,0.2,0.3,0.4,0.3,0.6c0,0.2-0.1,0.5-0.3,0.6l-2.8,2.8c-0.2,0.2-0.4,0.3-0.6,0.3
			c-0.2,0-0.5-0.1-0.6-0.3l-6.3-6.2c-0.2-0.2-0.3-0.4-0.3-0.6c0-0.2,0.1-0.5,0.3-0.6l2.8-2.8c0.2-0.2,0.4-0.3,0.6-0.3
			C-332.1,279.8-331.9,279.9-331.7,280.1z M-320.1,268.4c0.6,0.6,0.9,1.2,0.9,2c0.4,0.2,0.7,0.4,0.9,0.6c0.5,0.5,0.8,1.1,0.9,1.8
			c0.5,0.3,0.9,0.6,1.1,1.1c0.3,0.5,0.4,1,0.4,1.4c0.8,0.7,1.2,1.4,1.3,2.2c0.1,0.9-0.3,1.8-1.2,2.7l-0.4,0.4l-0.7,0.7l-0.2,0.2
			c-0.4,0.4-0.9,0.9-1.6,1.3c-0.6,0.4-1.1,0.7-1.5,0.9c-0.4,0.2-0.9,0.5-1.6,0.8c-1.1,0.5-1.7,0.9-2,1.1c-0.2,0.2-0.4,0.2-0.6,0.3
			c-0.2,0-0.5-0.1-0.6-0.2l-6.3-6.3c-0.2-0.2-0.2-0.4-0.3-0.6s0.1-0.4,0.2-0.6c0.1-0.2,0.2-0.6,0.2-1.3c0-0.7-0.1-1.4-0.2-2.2
			c-0.1-1-0.2-1.7-0.2-2.2c0-0.2-0.1-0.5-0.2-0.8c-0.1-0.3-0.2-0.5-0.3-0.6c-0.1-0.1-0.2-0.4-0.5-0.7c-0.2-0.3-0.4-0.5-0.5-0.7
			c-0.1-0.2-0.2-0.4-0.3-0.7c-0.1-0.3-0.2-0.6-0.2-0.8c0-0.2,0.1-0.5,0.3-0.6c0.3-0.3,0.6-0.5,0.9-0.7c0.3-0.2,0.6-0.3,0.8-0.3
			c0.3-0.1,0.5-0.1,0.8,0c0.3,0.1,0.5,0.1,0.7,0.2c0.2,0.1,0.4,0.2,0.6,0.4c0.2,0.2,0.4,0.3,0.5,0.4c0.1,0.1,0.2,0.2,0.4,0.4
			c0.2,0.2,0.5,0.5,0.7,0.8c0.2,0.3,0.3,0.6,0.4,0.8c0.1,0.2,0.2,0.5,0.3,0.8c0,0.1,0,0.2,0.1,0.3c0,0.1,0.1,0.2,0.1,0.3
			c0,0.1,0.1,0.2,0.2,0.3l2.7-2.7c0.5-0.5,1.1-0.8,1.9-0.8C-321.3,267.7-320.6,267.9-320.1,268.4z M-328.2,286.6
			c-0.2-0.2-0.4-0.3-0.6-0.3c-0.2,0-0.5,0.1-0.6,0.3c-0.2,0.2-0.3,0.4-0.3,0.6c0,0.2,0.1,0.5,0.3,0.6c0.2,0.2,0.4,0.3,0.6,0.3
			c0.2,0,0.4-0.1,0.6-0.3c0.2-0.2,0.3-0.4,0.3-0.6C-328,287-328.1,286.8-328.2,286.6z"/>
	</g>
</g>
<g>
	<path fill="#499C10" d="M-305.9,99.4h5.1c-0.1-1.1-0.4-2-1-2.7c-0.6-0.7-1.4-1-2.5-1c-0.7,0-1.2,0.1-1.7,0.3
		c-0.5,0.2-0.9,0.4-1.2,0.6l-0.7-1.5c0.5-0.3,1.1-0.6,1.7-0.8c0.6-0.2,1.4-0.3,2.2-0.3c1.8,0,3.1,0.6,3.9,1.7
		c0.8,1.1,1.2,2.6,1.2,4.6c0,2-0.5,3.6-1.4,4.7c-0.9,1.1-2.3,1.6-3.9,1.6c-0.8,0-1.4-0.1-2.1-0.2c-0.6-0.1-1.2-0.3-1.6-0.5l0.6-1.6
		c0.4,0.2,0.8,0.4,1.4,0.5c0.5,0.1,1.1,0.2,1.6,0.2c2.2,0,3.4-1.3,3.6-3.9h-5.1V99.4z"/>
	<path fill="#499C10" d="M-292.8,100.9h-1.1v5.4h-1.9v-12h1.9v5.4l1-0.3l3.8-5.1h2.1l-3.7,4.8l-1,0.8l1.2,1l4,5.4h-2.4L-292.8,100.9
		z"/>
	<path fill="#499C10" d="M-285.2,100.3c0-2,0.5-3.6,1.4-4.7c0.9-1.1,2.2-1.6,3.9-1.6c0.9,0,1.7,0.1,2.3,0.4c0.7,0.3,1.2,0.7,1.6,1.3
		c0.4,0.6,0.8,1.2,1,2c0.2,0.8,0.3,1.6,0.3,2.6c0,2-0.5,3.6-1.4,4.7c-0.9,1.1-2.2,1.6-3.9,1.6c-0.9,0-1.7-0.1-2.3-0.4
		c-0.7-0.3-1.2-0.7-1.6-1.3c-0.4-0.6-0.8-1.2-1-2C-285.1,102.1-285.2,101.2-285.2,100.3z M-283.2,100.3c0,0.6,0.1,1.2,0.2,1.8
		c0.1,0.6,0.3,1,0.6,1.5c0.3,0.4,0.6,0.8,1,1s0.9,0.4,1.5,0.4c2.2,0,3.3-1.5,3.3-4.6c0-0.6-0.1-1.2-0.2-1.8s-0.3-1-0.6-1.5
		c-0.3-0.4-0.6-0.7-1-1s-0.9-0.4-1.5-0.4C-282.2,95.6-283.2,97.2-283.2,100.3z"/>
</g>
<g>
	<path d="M354.5,445l1.1-1.6c-1-1.1-1.6-2.7-1.6-4.5c0-3.8,2.4-6.3,5.6-6.3c1.1,0,2.2,0.3,3,1l1.1-1.5l1,0.6l-1.1,1.5
		c1,1.1,1.6,2.7,1.6,4.5c0,4.2-2.6,6.4-5.5,6.4c-1.2,0-2.2-0.3-3.1-1l-1.1,1.5L354.5,445z M361.9,434.7c-0.6-0.5-1.4-0.8-2.3-0.8
		c-2.6,0-4,2.4-4,5c0,1.3,0.4,2.3,0.9,3.3l0,0L361.9,434.7z M357.3,443c0.6,0.6,1.3,0.9,2.3,0.9c2.5,0,3.9-2.3,3.9-5.1
		c0-1-0.2-2.1-0.8-3.2h-0.1L357.3,443z"/>
</g>
<g>
	<circle fill="#FFFFFF" stroke="#DC0606" stroke-miterlimit="10" cx="290.9" cy="421.8" r="10.2"/>
	<g>
		<path fill="#DC0606" d="M290,423.8c-0.1-0.6,0-1,0.1-1.4c0.1-0.4,0.3-0.7,0.4-1c0.2-0.3,0.4-0.5,0.6-0.7s0.5-0.4,0.7-0.6
			c0.2-0.2,0.4-0.4,0.5-0.6s0.2-0.5,0.2-0.7c0-0.4-0.1-0.7-0.3-0.9c-0.2-0.2-0.6-0.3-1.1-0.3c-0.2,0-0.4,0-0.5,0.1
			c-0.2,0-0.4,0.1-0.6,0.2c-0.2,0.1-0.4,0.2-0.6,0.2c-0.2,0.1-0.3,0.2-0.5,0.3l-0.8-1.5c0.4-0.3,0.9-0.5,1.4-0.7
			c0.5-0.2,1.2-0.3,1.9-0.3c1,0,1.8,0.2,2.4,0.7c0.6,0.5,0.8,1.1,0.8,2c0,0.5-0.1,1-0.2,1.4c-0.1,0.4-0.3,0.7-0.5,0.9
			c-0.2,0.3-0.4,0.5-0.7,0.7s-0.5,0.4-0.7,0.6c-0.2,0.2-0.4,0.5-0.5,0.8s-0.2,0.7-0.2,1.1H290z M289.7,426.1c0-0.4,0.1-0.7,0.4-0.9
			c0.2-0.2,0.5-0.3,0.9-0.3c0.4,0,0.7,0.1,1,0.3s0.4,0.5,0.4,0.9s-0.1,0.7-0.4,0.9c-0.2,0.2-0.6,0.3-1,0.3c-0.4,0-0.7-0.1-0.9-0.3
			C289.8,426.8,289.7,426.5,289.7,426.1z"/>
	</g>
</g>
<g>
	<path d="M32.1,22.8c0,0.5-0.2,1-0.6,1.3c-0.4,0.4-0.8,0.6-1.3,0.6c-0.5,0-1-0.2-1.3-0.6l-5.1-5.1c-1.8,1.2-3.8,1.8-5.9,1.8
		c-1.4,0-2.8-0.3-4.1-0.8c-1.3-0.6-2.4-1.3-3.4-2.2c-0.9-0.9-1.7-2.1-2.2-3.3c-0.6-1.3-0.8-2.7-0.8-4.1s0.3-2.8,0.8-4.1
		C8.7,5.1,9.5,4,10.4,3c0.9-0.9,2.1-1.7,3.4-2.2C15.1,0.2,16.4,0,17.8,0c1.4,0,2.8,0.3,4.1,0.8c1.3,0.6,2.4,1.3,3.4,2.2
		C26.2,4,27,5.1,27.5,6.4c0.6,1.3,0.8,2.7,0.8,4.1c0,2.2-0.6,4.2-1.8,5.9l5.1,5.1C32,21.9,32.1,22.3,32.1,22.8z M22.6,15.2
		c1.3-1.3,2-2.9,2-4.7s-0.7-3.4-2-4.7c-1.3-1.3-2.9-2-4.7-2c-1.8,0-3.4,0.7-4.7,2c-1.3,1.3-2,2.9-2,4.7s0.7,3.4,2,4.7
		c1.3,1.3,2.9,2,4.7,2C19.7,17.1,21.3,16.5,22.6,15.2z"/>
</g>
<g>
	<path d="M3.4,31.5H0.7v5.3H0v-5.9h4.1v5.9H3.4V31.5z"/>
	<path d="M5.2,34.7c0-0.7,0.2-1.3,0.5-1.6c0.3-0.4,0.8-0.6,1.4-0.6c0.3,0,0.6,0.1,0.8,0.2c0.2,0.1,0.4,0.3,0.6,0.4
		c0.2,0.2,0.3,0.4,0.3,0.7c0.1,0.3,0.1,0.6,0.1,0.9c0,0.7-0.2,1.3-0.5,1.6c-0.3,0.4-0.8,0.6-1.4,0.6c-0.3,0-0.6-0.1-0.8-0.2
		c-0.2-0.1-0.4-0.3-0.6-0.4c-0.2-0.2-0.3-0.4-0.3-0.7C5.3,35.3,5.2,35,5.2,34.7z M5.9,34.7c0,0.2,0,0.4,0.1,0.6
		c0,0.2,0.1,0.4,0.2,0.5c0.1,0.1,0.2,0.3,0.4,0.4c0.1,0.1,0.3,0.1,0.5,0.1c0.8,0,1.1-0.5,1.1-1.6c0-0.2,0-0.4-0.1-0.6
		c0-0.2-0.1-0.4-0.2-0.5c-0.1-0.1-0.2-0.3-0.4-0.3C7.5,33.1,7.3,33,7.1,33C6.3,33,5.9,33.6,5.9,34.7z"/>
	<path d="M13.6,37.8h-0.5l-0.1-1.1H9.9l-0.1,1.1H9.3v-1.7h0.5c0-0.1,0.1-0.2,0.2-0.3c0.1-0.2,0.1-0.4,0.2-0.7
		c0.1-0.3,0.1-0.6,0.2-1.1c0.1-0.4,0.1-0.9,0.1-1.5H13v3.6h0.6V37.8z M12.4,36.2v-3h-1.3c0,0.2,0,0.5-0.1,0.8c0,0.3-0.1,0.6-0.1,0.8
		c0,0.3-0.1,0.5-0.2,0.8c-0.1,0.2-0.2,0.5-0.3,0.6H12.4z"/>
	<path d="M14.5,32.6h0.5l0.1,0.5h0c0.1-0.2,0.3-0.3,0.5-0.4c0.2-0.1,0.4-0.2,0.7-0.2c0.6,0,1,0.2,1.3,0.5s0.4,0.9,0.4,1.6
		c0,0.4,0,0.7-0.1,1c-0.1,0.3-0.2,0.5-0.4,0.7c-0.2,0.2-0.4,0.3-0.6,0.5c-0.2,0.1-0.5,0.2-0.8,0.2c-0.2,0-0.4,0-0.5,0
		c-0.1,0-0.3-0.1-0.4-0.1v1.7h-0.7V32.6z M16.2,33c-0.3,0-0.5,0.1-0.7,0.2s-0.3,0.4-0.3,0.7V36c0.1,0.1,0.2,0.1,0.3,0.2
		c0.1,0,0.3,0.1,0.5,0.1c0.4,0,0.7-0.1,0.9-0.4c0.2-0.3,0.3-0.7,0.3-1.3c0-0.2,0-0.4-0.1-0.6c0-0.2-0.1-0.3-0.2-0.5
		c-0.1-0.1-0.2-0.2-0.3-0.3C16.5,33.1,16.4,33,16.2,33z"/>
	<path d="M18.8,34.7c0-0.7,0.2-1.3,0.5-1.6c0.3-0.4,0.8-0.6,1.4-0.6c0.3,0,0.6,0.1,0.8,0.2c0.2,0.1,0.4,0.3,0.6,0.4
		c0.2,0.2,0.3,0.4,0.3,0.7c0.1,0.3,0.1,0.6,0.1,0.9c0,0.7-0.2,1.3-0.5,1.6c-0.3,0.4-0.8,0.6-1.4,0.6c-0.3,0-0.6-0.1-0.8-0.2
		c-0.2-0.1-0.4-0.3-0.6-0.4c-0.2-0.2-0.3-0.4-0.3-0.7C18.8,35.3,18.8,35,18.8,34.7z M19.5,34.7c0,0.2,0,0.4,0.1,0.6
		c0,0.2,0.1,0.4,0.2,0.5c0.1,0.1,0.2,0.3,0.4,0.4c0.1,0.1,0.3,0.1,0.5,0.1c0.8,0,1.1-0.5,1.1-1.6c0-0.2,0-0.4-0.1-0.6
		c0-0.2-0.1-0.4-0.2-0.5c-0.1-0.1-0.2-0.3-0.4-0.3C21,33.1,20.8,33,20.6,33C19.9,33,19.5,33.6,19.5,34.7z"/>
	<path d="M23.9,33.3c0.2-0.3,0.4-0.5,0.6-0.6c0.2-0.1,0.5-0.2,0.8-0.2c0.5,0,0.9,0.2,1.2,0.5c0.3,0.3,0.4,0.8,0.4,1.5
		c0,0.8-0.2,1.3-0.5,1.7c-0.3,0.4-0.8,0.6-1.3,0.6c-0.6,0-1.1-0.2-1.4-0.6c-0.3-0.4-0.5-1.1-0.5-2c0-0.5,0-0.9,0.1-1.2
		c0-0.3,0.1-0.6,0.2-0.9c0.1-0.2,0.2-0.4,0.3-0.6c0.1-0.1,0.3-0.3,0.4-0.3c0.2-0.1,0.3-0.1,0.5-0.2c0.2,0,0.4-0.1,0.6-0.1
		c0.3,0,0.5-0.1,0.7-0.1c0.2,0,0.3-0.1,0.4-0.2l0.1,0.6c-0.1,0.1-0.1,0.1-0.2,0.1c-0.1,0-0.1,0.1-0.2,0.1c-0.1,0-0.2,0-0.3,0.1
		c-0.1,0-0.3,0-0.5,0c-0.2,0-0.5,0-0.6,0.1c-0.2,0-0.3,0.1-0.5,0.2c-0.1,0.1-0.2,0.3-0.3,0.5S23.9,32.9,23.9,33.3L23.9,33.3z
		 M24,34.7c0,0.2,0,0.4,0.1,0.6s0.1,0.4,0.2,0.5c0.1,0.1,0.2,0.3,0.4,0.3c0.1,0.1,0.3,0.1,0.5,0.1c0.4,0,0.7-0.1,0.9-0.4
		c0.2-0.3,0.3-0.7,0.3-1.2c0-0.2,0-0.4-0.1-0.6c0-0.2-0.1-0.3-0.2-0.5c-0.1-0.1-0.2-0.2-0.3-0.3c-0.1-0.1-0.3-0.1-0.5-0.1
		c-0.4,0-0.8,0.1-1,0.4C24.1,33.8,24,34.2,24,34.7z"/>
	<path d="M30.6,34.9h-1.9v1.9H28v-4.2h0.7v1.8h1.9v-1.8h0.7v4.2h-0.7V34.9z"/>
	<path d="M35.6,36.4c-0.2,0.1-0.4,0.2-0.6,0.3c-0.3,0.1-0.5,0.1-0.8,0.1c-0.3,0-0.6-0.1-0.8-0.2c-0.2-0.1-0.4-0.3-0.6-0.4
		c-0.2-0.2-0.3-0.4-0.3-0.7c-0.1-0.3-0.1-0.6-0.1-0.9c0-0.7,0.2-1.3,0.5-1.6c0.3-0.4,0.8-0.6,1.4-0.6c0.2,0,0.4,0,0.6,0.1
		c0.2,0,0.4,0.1,0.5,0.2c0.2,0.1,0.3,0.3,0.4,0.5c0.1,0.2,0.1,0.5,0.1,0.9c0,0.2,0,0.4-0.1,0.6H33c0,0.2,0,0.5,0.1,0.7
		c0.1,0.2,0.1,0.4,0.2,0.5c0.1,0.1,0.2,0.2,0.4,0.3c0.2,0.1,0.4,0.1,0.6,0.1c0.2,0,0.4,0,0.6-0.1c0.2-0.1,0.3-0.1,0.4-0.2L35.6,36.4
		z M34.2,33c-0.3,0-0.6,0.1-0.8,0.3c-0.2,0.2-0.3,0.5-0.4,0.9h2.1c0-0.4-0.1-0.7-0.2-0.9C34.7,33.1,34.5,33,34.2,33z"/>
	<path d="M39.8,36.4c-0.2,0.1-0.4,0.2-0.6,0.3c-0.3,0.1-0.5,0.1-0.8,0.1c-0.3,0-0.6-0.1-0.8-0.2c-0.2-0.1-0.4-0.3-0.6-0.4
		c-0.2-0.2-0.3-0.4-0.3-0.7c-0.1-0.3-0.1-0.6-0.1-0.9c0-0.7,0.2-1.3,0.5-1.6c0.3-0.4,0.8-0.6,1.4-0.6c0.2,0,0.4,0,0.6,0.1
		c0.2,0,0.4,0.1,0.5,0.2c0.2,0.1,0.3,0.3,0.4,0.5c0.1,0.2,0.1,0.5,0.1,0.9c0,0.2,0,0.4-0.1,0.6h-2.7c0,0.2,0,0.5,0.1,0.7
		c0.1,0.2,0.1,0.4,0.2,0.5c0.1,0.1,0.2,0.2,0.4,0.3c0.2,0.1,0.4,0.1,0.6,0.1c0.2,0,0.4,0,0.6-0.1c0.2-0.1,0.3-0.1,0.4-0.2L39.8,36.4
		z M38.4,33c-0.3,0-0.6,0.1-0.8,0.3c-0.2,0.2-0.3,0.5-0.4,0.9h2.1c0-0.4-0.1-0.7-0.2-0.9C38.9,33.1,38.7,33,38.4,33z"/>
</g>
<g>
	<path d="M354.9,536.3c0.1,0,0.2,0,0.2,0.1l4.7,4.7c0.1,0.1,0.1,0.1,0.1,0.2s0,0.2-0.1,0.2l-4.7,4.7c-0.1,0.1-0.1,0.1-0.2,0.1
		c-0.1,0-0.2,0-0.2-0.1l-0.5-0.5c-0.1-0.1-0.1-0.1-0.1-0.2c0-0.1,0-0.2,0.1-0.2l3.9-3.9l-3.9-3.9c-0.1-0.1-0.1-0.1-0.1-0.2
		c0-0.1,0-0.2,0.1-0.2l0.5-0.5C354.7,536.4,354.8,536.3,354.9,536.3z"/>
</g>
<g>
	<path d="M170.9,553.2c0,0.1,0,0.2-0.1,0.2l-4.7,4.7c-0.1,0.1-0.1,0.1-0.2,0.1s-0.2,0-0.2-0.1l-4.7-4.7c-0.1-0.1-0.1-0.1-0.1-0.2
		c0-0.1,0-0.2,0.1-0.2l0.5-0.5c0.1-0.1,0.1-0.1,0.2-0.1s0.2,0,0.2,0.1l3.9,3.9l3.9-3.9c0.1-0.1,0.1-0.1,0.2-0.1c0.1,0,0.2,0,0.2,0.1
		l0.5,0.5C170.9,553.1,170.9,553.2,170.9,553.2z"/>
</g>
<g>
	<path d="M119.6,562.3c-0.1,0-0.2,0-0.2-0.1l-4.7-4.7c-0.1-0.1-0.1-0.1-0.1-0.2s0-0.2,0.1-0.2l4.7-4.7c0.1-0.1,0.1-0.1,0.2-0.1
		c0.1,0,0.2,0,0.2,0.1l0.5,0.5c0.1,0.1,0.1,0.1,0.1,0.2s0,0.2-0.1,0.2l-3.9,3.9l3.9,3.9c0.1,0.1,0.1,0.1,0.1,0.2
		c0,0.1,0,0.2-0.1,0.2l-0.5,0.5C119.8,562.3,119.7,562.3,119.6,562.3z"/>
</g>
<g>
	<path d="M305.3-21.2c-1-0.4-1.2-0.6-1.2-1c0-0.3,0.3-0.7,1-0.7c0.6,0,1.1,0.3,1.1,0.3c0.1,0,0.1,0,0.2,0c0.1,0,0.3-0.1,0.3-0.2
		l0.2-0.4c0.1-0.2,0-0.3-0.1-0.4c-0.4-0.2-1.2-0.3-1.2-0.3c0,0-0.1,0-0.1-0.1l0-0.6c0-0.2-0.2-0.4-0.4-0.4h-0.3
		c-0.2,0-0.4,0.2-0.4,0.4l0,0.7c0,0.1-0.1,0.1-0.1,0.1c-1,0.2-1.6,0.9-1.6,1.8c0,1.1,0.9,1.6,1.9,2c0.8,0.3,1.1,0.6,1.1,1.1
		c0,0.5-0.5,0.9-1.1,0.9c-0.6,0-1.3-0.4-1.3-0.4c0,0-0.1,0-0.2,0c-0.1,0-0.3,0.1-0.3,0.2l-0.2,0.5c-0.1,0.2,0,0.3,0.1,0.4
		c0.5,0.2,1.4,0.4,1.4,0.4c0,0,0.1,0,0.1,0.1v0.7c0,0.2,0.2,0.4,0.4,0.4h0.3c0.2,0,0.4-0.2,0.4-0.4v-0.7c0-0.1,0-0.1,0.1-0.1
		c1-0.2,1.7-1,1.7-1.9C307.1-20.1,306.5-20.7,305.3-21.2L305.3-21.2z M305.3-21.2"/>
	<path d="M304.9-29c-4.7,0-8.5,3.8-8.5,8.5c0,4.7,3.8,8.5,8.5,8.5c4.7,0,8.5-3.8,8.5-8.5C313.4-25.2,309.6-29,304.9-29L304.9-29z
		 M304.9-14c-3.6,0-6.5-2.9-6.5-6.5c0-3.6,2.9-6.5,6.5-6.5c3.6,0,6.5,2.9,6.5,6.5C311.4-16.9,308.5-14,304.9-14L304.9-14z M304.9-14
		"/>
	<path d="M311.6-7.9c-1.8,1-4.3,1.9-6.8,2.3c-2.2,0.3-6.4-0.5-6.4-1.5c0-0.4,3.6,0.9,5.8,0.3c1.7-0.5,1.4-2,0.5-2.2
		c-0.9-0.2-6.3-2.2-8.5-2.2c-1.1,0-3.7,0.4-5,0.6c-0.4,0.1-0.7,0.1-0.7,0.5c-0.1,2-0.4,6-0.5,8.1c0,0,0.1,0.6,0.5,0.2
		c0.5-0.5,1.3-1,2-0.8c1.1,0.2,10.5,2,11.8,1.7c1.9-0.4,7.1-3.6,8.2-4.5C314.2-7.1,313-8.6,311.6-7.9L311.6-7.9z M311.6-7.9"/>
	<path d="M288-10.7L283-11c-0.4,0-0.8,0.3-0.9,0.6l-0.9,8.2c-0.1,0.4,0.1,0.7,0.5,0.7l5.5,0c0.4,0,0.7-0.3,0.7-0.7l0.6-7.9
		C288.7-10.4,288.4-10.7,288-10.7L288-10.7z M285.1-2.5c-0.8,0-1.4-0.6-1.4-1.4c0-0.8,0.6-1.4,1.4-1.4c0.8,0,1.4,0.6,1.4,1.4
		C286.4-3.1,285.8-2.5,285.1-2.5L285.1-2.5z M285.1-2.5"/>
</g>
<g>
	<path fill="#1780D4" d="M368.4,332.7l-0.6,0.7c0,0.1-0.1,0.1-0.2,0.1h0c-0.1,0-0.1,0-0.2-0.1l-6.2-5.2l-6.2,5.2
		c-0.1,0-0.1,0.1-0.2,0.1c-0.1,0-0.1,0-0.2-0.1l-0.6-0.7c0-0.1-0.1-0.1-0.1-0.2s0-0.1,0.1-0.2l6.4-5.3c0.2-0.2,0.4-0.2,0.7-0.2
		s0.5,0.1,0.7,0.2l2.2,1.8V327c0-0.1,0-0.2,0.1-0.2c0.1-0.1,0.1-0.1,0.2-0.1h1.7c0.1,0,0.2,0,0.2,0.1c0.1,0.1,0.1,0.1,0.1,0.2v3.6
		l2,1.6c0.1,0,0.1,0.1,0.1,0.2S368.5,332.6,368.4,332.7z M366.4,333.3v4.3c0,0.2-0.1,0.3-0.2,0.4c-0.1,0.1-0.2,0.2-0.4,0.2h-3.4
		v-3.4h-2.3v3.4h-3.4c-0.2,0-0.3-0.1-0.4-0.2c-0.1-0.1-0.2-0.2-0.2-0.4v-4.3c0,0,0,0,0,0c0,0,0,0,0,0l5.1-4.2L366.4,333.3
		C366.4,333.3,366.4,333.3,366.4,333.3z"/>
</g>
<g>
	<path d="M368,279.3c0,0.3-0.1,0.6-0.3,0.8l-5.7,5.7c-0.2,0.2-0.5,0.3-0.8,0.3c-0.3,0-0.6-0.1-0.8-0.3l-5.7-5.7
		c-0.2-0.2-0.3-0.5-0.3-0.8c0-0.3,0.1-0.6,0.3-0.8l0.7-0.7c0.2-0.2,0.5-0.3,0.8-0.3c0.3,0,0.6,0.1,0.8,0.3l2.6,2.6v-6.2
		c0-0.3,0.1-0.6,0.3-0.8c0.2-0.2,0.5-0.3,0.8-0.3h1.1c0.3,0,0.6,0.1,0.8,0.3c0.2,0.2,0.3,0.5,0.3,0.8v6.2l2.6-2.6
		c0.2-0.2,0.5-0.3,0.8-0.3c0.3,0,0.6,0.1,0.8,0.3l0.7,0.7C367.9,278.7,368,279,368,279.3z"/>
</g>
<g>
	<g>
		<path fill="#FF091D" d="M-209.7,2.8c0.1,2.3,0.1,5.5,0.1,9.6c0,4.1,0,7.3-0.1,9.6c-0.1,2.3-0.3,5.2-0.6,8.7
			c-0.4,3.5-1,6.6-1.7,9.4c-0.8,3.1-2.6,5.7-5.3,7.8c-2.7,2.1-5.8,3.4-9.4,3.7c-11.3,1.1-28.3,1.6-51.1,1.6
			c-22.8,0-39.8-0.5-51.1-1.6c-3.6-0.3-6.8-1.6-9.5-3.7c-2.7-2.1-4.5-4.7-5.3-7.8c-0.7-2.8-1.3-5.9-1.6-9.4
			c-0.4-3.5-0.6-6.4-0.6-8.7c-0.1-2.3-0.1-5.5-0.1-9.6c0-4.1,0-7.3,0.1-9.6c0.1-2.3,0.3-5.2,0.6-8.7c0.4-3.5,1-6.6,1.7-9.4
			c0.8-3.1,2.6-5.7,5.3-7.8c2.7-2.1,5.8-3.4,9.4-3.7c11.3-1.1,28.3-1.6,51.1-1.6c22.8,0,39.8,0.5,51.1,1.6c3.6,0.3,6.8,1.6,9.5,3.7
			c2.7,2.1,4.5,4.7,5.3,7.8c0.7,2.8,1.3,5.9,1.6,9.4C-210-2.4-209.8,0.5-209.7,2.8z"/>
	</g>
	<path fill="#FFFFFF" d="M-260.8,12.7c0-1.1-0.5-1.9-1.4-2.4l-23.1-14.4c-0.9-0.6-1.9-0.6-2.9-0.1c-1,0.5-1.5,1.4-1.5,2.5v28.9
		c0,1.1,0.5,2,1.5,2.5c0.5,0.2,0.9,0.4,1.4,0.4c0.6,0,1.1-0.2,1.5-0.5l23.1-14.4C-261.2,14.6-260.8,13.8-260.8,12.7z"/>
</g>
<path fill="#FFFFFF" d="M365,391.9h-9.1c-0.8,0-1.5-0.7-1.5-1.5v-9.1c0-0.8,0.7-1.5,1.5-1.5h9.1c0.8,0,1.5,0.7,1.5,1.5v9.1
	C366.4,391.2,365.8,391.9,365,391.9z"/>
<path fill="#FFFFFF" d="M14.4,554.8H1.1c-0.5,0-0.9-0.4-0.9-0.9l0,0c0-0.5,0.4-0.9,0.9-0.9h13.3c0.5,0,0.9,0.4,0.9,0.9l0,0
	C15.3,554.4,14.9,554.8,14.4,554.8z"/>
<path fill="#FFFFFF" d="M14.4,559.8H1.1c-0.5,0-0.9-0.4-0.9-0.9l0,0c0-0.5,0.4-0.9,0.9-0.9h13.3c0.5,0,0.9,0.4,0.9,0.9l0,0
	C15.3,559.4,14.9,559.8,14.4,559.8z"/>
<path fill="#FFFFFF" d="M14.4,564.9H1.1c-0.5,0-0.9-0.4-0.9-0.9l0,0c0-0.5,0.4-0.9,0.9-0.9h13.3c0.5,0,0.9,0.4,0.9,0.9l0,0
	C15.3,564.5,14.9,564.9,14.4,564.9z"/>
<g>
	<path fill="#3A7F0D" d="M-257.2,100.5c0,0,2.2,5.3-7.2,8.9c-5.1,1.9-9,6.9-4.3,14.6c0.4-3.4,2-11,9.1-12.8c0,0-6.6,2.5-7.2,13.7
		c3.4,0.5,11.4,0.8,13.7-6.1C-249.9,109.7-257.2,100.5-257.2,100.5L-257.2,100.5z M-257.2,100.5"/>
	<path fill="#49A010" d="M-266.7,124.9c7.2-2.9,12.5-9.6,13.2-17.7c-1.5-4-3.7-6.7-3.7-6.7s2.2,5.3-7.2,8.9c-5.1,1.9-9,6.9-4.3,14.6
		c0.4-3.4,2-11,9.1-12.8C-259.6,111.3-266.1,113.8-266.7,124.9L-266.7,124.9z M-266.7,124.9"/>
	<path fill="#3A7F0D" d="M-268.7,109c0,0.4-0.3,0.7-0.7,0.7c-0.4,0-0.7-0.3-0.7-0.7c0-0.4,0.3-0.7,0.7-0.7
		C-269,108.3-268.7,108.6-268.7,109L-268.7,109z M-268.7,109"/>
	<path fill="#49A010" d="M-266.8,108.3c0,0.3-0.2,0.5-0.5,0.5c-0.3,0-0.5-0.2-0.5-0.5c0-0.3,0.2-0.5,0.5-0.5
		C-267,107.8-266.8,108-266.8,108.3L-266.8,108.3z M-266.8,108.3"/>
	<path fill="#49A010" d="M-266.5,103.7c0,0.7-0.5,1.2-1.2,1.2s-1.2-0.5-1.2-1.2c0-0.7,0.5-1.2,1.2-1.2S-266.5,103-266.5,103.7
		L-266.5,103.7z M-266.5,103.7"/>
	<path fill="#49A010" d="M-263.6,106.4c0,0.2-0.2,0.4-0.4,0.4c-0.2,0-0.4-0.2-0.4-0.4c0-0.2,0.2-0.4,0.4-0.4
		C-263.8,106.1-263.6,106.2-263.6,106.4L-263.6,106.4z M-263.6,106.4"/>
	<path fill="#49A010" d="M-259.7,104.3c0,0.6-0.5,1.1-1.1,1.1c-0.6,0-1.1-0.5-1.1-1.1c0-0.6,0.5-1.1,1.1-1.1
		C-260.2,103.2-259.7,103.7-259.7,104.3L-259.7,104.3z M-259.7,104.3"/>
</g>
<g id="пластик_x2B_железо.psd">
	
		<image width="301" height="115" id="Слой_3" xlink:href="98FD6386FCCF64C7.png"  transform="matrix(0.3137 -2.804910e-02 3.138985e-02 0.351 -347.6472 185.0603)">
	</image>
	
		<image width="164" height="234" id="Слой_1_1_" xlink:href="98FD6386FCCF64C5.png"  transform="matrix(0.434 0 0 0.434 -322.4199 112.7374)">
	</image>
</g>
<g id="железо.psd">
	
		<image width="301" height="115" id="Слой_3_1_" xlink:href="98FD6386FCCF64CB.png"  transform="matrix(0.3282 -9.713791e-03 1.185086e-02 0.4004 -165.9059 35.8987)">
	</image>
	
		<image width="164" height="226" id="Слой_1_копия" xlink:href="98FD6386FCCF64CD.png"  transform="matrix(0.4006 0 0 0.4006 -136.5786 -19.0482)">
	</image>
	
		<image width="158" height="161" id="Слой_4" xlink:href="98FD6386FCCF64CF.png"  transform="matrix(0.4006 0 0 0.4006 -135.3768 -27.4606)">
	</image>
</g>
<image width="97" height="121" xlink:href="../lt3xdc-eko-img.png"  transform="matrix(1 0 0 1 -794.259 -55.8137)">
</image>
<image width="99" height="102" xlink:href="../zink2r-eko-img2.png"  transform="matrix(1 0 0 1 -680.0593 -55.8137)">
</image>
</svg>
