<?xml version="1.0" encoding="utf-8"?>
<!-- Generator: Adobe Illustrator 21.0.0, SVG Export Plug-In . SVG Version: 6.00 Build 0)  -->
<svg version="1.1" baseProfile="tiny" id="Слой_1"
	 xmlns="http://www.w3.org/2000/svg" xmlns:xlink="http://www.w3.org/1999/xlink" x="0px" y="0px" viewBox="0 0 38.6 35.4"
	 xml:space="preserve">
<g>
	<path fill="#FFCA35" d="M33.4,5.2C30,1.8,25.6,0,20.9,0c-4.8,0-9.3,1.9-12.7,5.3c-0.4,0.4-0.4,1,0,1.3c0.4,0.4,1,0.4,1.3,0
		c3-3.1,7-4.8,11.3-4.8c8.7,0,15.8,7.1,15.8,15.8c0,8.7-7.1,15.8-15.8,15.8S5.1,26.4,5.1,17.7v-0.2l1.6,1.6c0.2,0.2,0.4,0.3,0.7,0.3
		c0.2,0,0.5-0.1,0.7-0.3c0.4-0.4,0.4-1,0-1.3l-3.2-3.2c-0.4-0.4-1-0.4-1.3,0l-3.2,3.2c-0.4,0.4-0.4,1,0,1.3c0.4,0.4,1,0.4,1.3,0
		l1.6-1.6v0.2c0,4.7,1.8,9.2,5.2,12.5c3.3,3.3,7.8,5.2,12.5,5.2c4.7,0,9.2-1.8,12.5-5.2c3.3-3.3,5.2-7.8,5.2-12.5
		C38.6,13,36.7,8.5,33.4,5.2L33.4,5.2z M33.4,5.2"/>
	<path fill="#FFCA35" d="M25.9,11.2L14.2,22.9c-0.4,0.4-0.4,1,0,1.3c0.2,0.2,0.4,0.3,0.7,0.3c0.2,0,0.5-0.1,0.7-0.3l11.7-11.7
		c0.4-0.4,0.4-1,0-1.3C26.9,10.9,26.3,10.9,25.9,11.2L25.9,11.2z M25.9,11.2"/>
	<path fill="#FFCA35" d="M22.9,19.1c-1.3,1.3-1.3,3.5,0,4.8c0.6,0.6,1.5,1,2.4,1c0.9,0,1.8-0.4,2.4-1c1.3-1.3,1.3-3.5,0-4.8
		c-0.6-0.6-1.5-1-2.4-1C24.4,18.1,23.5,18.5,22.9,19.1L22.9,19.1z M26.3,22.6c-0.3,0.3-0.7,0.4-1.1,0.4c-0.4,0-0.8-0.2-1.1-0.4
		c-0.6-0.6-0.6-1.5,0-2.1c0.3-0.3,0.7-0.4,1.1-0.4c0.4,0,0.8,0.2,1.1,0.4C26.9,21.1,26.9,22,26.3,22.6L26.3,22.6z M26.3,22.6"/>
	<path fill="#FFCA35" d="M16.5,10.4c-0.9,0-1.8,0.4-2.4,1c-0.6,0.6-1,1.5-1,2.4c0,0.9,0.4,1.8,1,2.4c0.6,0.6,1.5,1,2.4,1
		c0.9,0,1.8-0.4,2.4-1c0.6-0.6,1-1.5,1-2.4c0-0.9-0.4-1.8-1-2.4C18.3,10.8,17.4,10.4,16.5,10.4L16.5,10.4z M17.6,14.9
		c-0.3,0.3-0.7,0.4-1.1,0.4c-0.4,0-0.8-0.2-1.1-0.4c-0.3-0.3-0.4-0.7-0.4-1.1c0-0.4,0.2-0.8,0.4-1.1c0.3-0.3,0.7-0.4,1.1-0.4
		c0.4,0,0.8,0.2,1.1,0.4c0.3,0.3,0.4,0.7,0.4,1.1C18,14.2,17.8,14.6,17.6,14.9L17.6,14.9z M17.6,14.9"/>
</g>
</svg>
