<?xml version="1.0" encoding="utf-8"?>
<!-- Generator: Adobe Illustrator 21.0.0, SVG Export Plug-In . SVG Version: 6.00 Build 0)  -->
<svg version="1.1" baseProfile="tiny" id="Слой_1"
	 xmlns="http://www.w3.org/2000/svg" xmlns:xlink="http://www.w3.org/1999/xlink" x="0px" y="0px" viewBox="0 0 16.5 18"
	 xml:space="preserve">
<g>
	<path d="M16.5,15c0,0.9-0.3,1.7-0.9,2.2S14.3,18,13.4,18H3.1c-0.9,0-1.7-0.3-2.3-0.8S0,15.9,0,15c0-0.4,0-0.8,0-1.2
		s0.1-0.8,0.2-1.3s0.2-0.9,0.3-1.3s0.3-0.8,0.5-1.1s0.5-0.7,0.7-0.9s0.6-0.5,1-0.6s0.8-0.2,1.3-0.2c0.1,0,0.2,0.1,0.5,0.3
		s0.5,0.4,0.9,0.6s0.7,0.4,1.3,0.6s1,0.3,1.6,0.3s1-0.1,1.6-0.3s0.9-0.4,1.3-0.6s0.6-0.4,0.9-0.6s0.4-0.3,0.5-0.3
		c0.5,0,0.9,0.1,1.3,0.2s0.7,0.4,1,0.6s0.5,0.6,0.7,0.9s0.4,0.8,0.5,1.1s0.2,0.8,0.3,1.3s0.1,0.9,0.2,1.3S16.5,14.6,16.5,15z
		 M11.4,1.3c0.9,0.9,1.3,1.9,1.3,3.2s-0.4,2.3-1.3,3.2S9.5,9,8.2,9S5.9,8.6,5.1,7.7S3.8,5.7,3.8,4.5s0.4-2.3,1.3-3.2S7,0,8.2,0
		S10.6,0.4,11.4,1.3z"/>
</g>
</svg>
