<?xml version="1.0" encoding="utf-8"?>
<!-- Generator: Adobe Illustrator 21.0.0, SVG Export Plug-In . SVG Version: 6.00 Build 0)  -->
<svg version="1.1" baseProfile="tiny" id="Слой_1"
	 xmlns="http://www.w3.org/2000/svg" xmlns:xlink="http://www.w3.org/1999/xlink" x="0px" y="0px" viewBox="0 0 21.3 21.3"
	 xml:space="preserve">
<g>
	<circle fill="#FFFFFF" stroke="#DC0606" stroke-miterlimit="10" cx="10.7" cy="10.7" r="10.2"/>
	<g>
		<path fill="#DC0606" d="M9.8,12.7c-0.1-0.6,0-1,0.1-1.4c0.1-0.4,0.3-0.7,0.4-1c0.2-0.3,0.4-0.5,0.6-0.7s0.5-0.4,0.7-0.6
			c0.2-0.2,0.4-0.4,0.5-0.6s0.2-0.5,0.2-0.7c0-0.4-0.1-0.7-0.3-0.9c-0.2-0.2-0.6-0.3-1.1-0.3c-0.2,0-0.4,0-0.5,0.1
			c-0.2,0-0.4,0.1-0.6,0.2C9.6,6.6,9.4,6.7,9.2,6.8C9.1,6.9,8.9,7,8.8,7.1L8,5.5C8.4,5.3,8.9,5,9.4,4.9c0.5-0.2,1.2-0.3,1.9-0.3
			c1,0,1.8,0.2,2.4,0.7c0.6,0.5,0.8,1.1,0.8,2c0,0.5-0.1,1-0.2,1.4C14.1,9,14,9.3,13.7,9.5c-0.2,0.3-0.4,0.5-0.7,0.7
			s-0.5,0.4-0.7,0.6c-0.2,0.2-0.4,0.5-0.5,0.8s-0.2,0.7-0.2,1.1H9.8z M9.5,15c0-0.4,0.1-0.7,0.4-0.9c0.2-0.2,0.5-0.3,0.9-0.3
			c0.4,0,0.7,0.1,1,0.3s0.4,0.5,0.4,0.9s-0.1,0.7-0.4,0.9c-0.2,0.2-0.6,0.3-1,0.3c-0.4,0-0.7-0.1-0.9-0.3C9.6,15.6,9.5,15.3,9.5,15z
			"/>
	</g>
</g>
</svg>
