<?xml version="1.0" encoding="utf-8"?>
<!-- Generator: Adobe Illustrator 21.0.0, SVG Export Plug-In . SVG Version: 6.00 Build 0)  -->
<svg version="1.1" baseProfile="tiny" id="Слой_1"
	 xmlns="http://www.w3.org/2000/svg" xmlns:xlink="http://www.w3.org/1999/xlink" x="0px" y="0px" viewBox="0 0 78 78"
	 xml:space="preserve">
<g>
	<path fill="#0FC07C" d="M0,73.7V4.3C0,1.9,1.9,0,4.3,0h69.4c3.8,0,5.7,4.6,3,7.3L7.3,76.7C4.6,79.4,0,77.5,0,73.7z"/>
	<g>
		<path fill="#FFFFFF" d="M5.8,58.7c0.2-0.3,0.4-0.5,0.6-0.8s0.5-0.6,0.8-0.8c0.3-0.3,0.6-0.5,0.9-0.8c0.3-0.2,0.7-0.4,1-0.5
			c0.4-0.1,0.7-0.1,1.1,0c0.4,0.1,0.8,0.3,1.1,0.7c0.3,0.3,0.6,0.7,0.7,1.1c0.1,0.4,0.2,0.7,0.1,1.1s-0.2,0.7-0.3,1
			c-0.2,0.3-0.4,0.6-0.7,0.9c0,0-0.1,0.1-0.1,0.1s-0.1,0.1-0.2,0.2c-0.1,0.1-0.1,0.1-0.2,0.2c-0.1,0.1-0.1,0.1-0.1,0.1l1.9,1.9
			l-1.1,1.1L5.8,58.7z M8.2,57.8C8.1,57.9,8,58,7.9,58.1c-0.1,0.1-0.2,0.2-0.2,0.3l1.8,1.8c0,0,0.1,0,0.1-0.1c0,0,0.1-0.1,0.1-0.1
			c0,0,0.1-0.1,0.1-0.1c0,0,0.1-0.1,0.1-0.1c0.1-0.1,0.3-0.3,0.4-0.5s0.2-0.3,0.2-0.5c0-0.2,0-0.4,0-0.6c-0.1-0.2-0.2-0.4-0.4-0.6
			c-0.2-0.2-0.3-0.3-0.5-0.3c-0.2,0-0.3-0.1-0.5,0c-0.2,0-0.3,0.1-0.5,0.2C8.5,57.6,8.3,57.7,8.2,57.8z"/>
		<path fill="#FFFFFF" d="M10.2,54.1l3.2-3.3l1,1L12.3,54l1.3,1.3l2-2l1,1l-2,2l1.4,1.3l2.2-2.2l1,1l-3.3,3.3L10.2,54.1z"/>
		<path fill="#FFFFFF" d="M18.8,51.7L18.5,52l2.4,2.3l-1.1,1.1L14.3,50l1.1-1.1l2.4,2.4l0.1-0.4l-0.8-3.8l1.2-1.2l0.7,3.9L19,50.5
			l0.7-0.1l4.4,0.7l-1.3,1.3L18.8,51.7z"/>
		<path fill="#FFFFFF" d="M21.5,48.2c-0.9-0.9-1.4-1.8-1.5-2.7c-0.1-0.9,0.2-1.7,1-2.5c0.4-0.4,0.8-0.7,1.2-0.8
			c0.4-0.2,0.9-0.2,1.3-0.2c0.4,0.1,0.9,0.2,1.3,0.5c0.4,0.3,0.9,0.6,1.3,1c0.9,0.9,1.4,1.8,1.5,2.7c0.1,0.9-0.2,1.7-1,2.5
			c-0.4,0.4-0.8,0.7-1.2,0.8c-0.4,0.2-0.9,0.2-1.3,0.2c-0.4-0.1-0.9-0.2-1.3-0.5C22.4,48.9,22,48.6,21.5,48.2z M22.7,47
			c0.3,0.3,0.6,0.5,0.8,0.7c0.3,0.2,0.6,0.3,0.8,0.4c0.3,0.1,0.5,0.1,0.8,0c0.2-0.1,0.5-0.2,0.7-0.4c0.4-0.4,0.5-0.8,0.4-1.3
			c-0.1-0.5-0.5-1.1-1.1-1.8c-0.3-0.3-0.5-0.5-0.8-0.7s-0.5-0.3-0.8-0.4c-0.3-0.1-0.5-0.1-0.8,0c-0.2,0.1-0.5,0.2-0.7,0.4
			c-0.4,0.4-0.5,0.8-0.4,1.3C21.6,45.8,22,46.4,22.7,47z"/>
		<path fill="#FFFFFF" d="M31.1,38.3l-1-1.2l0,0l0.5,1.2l0.9,3.2L31.2,42l-3.3-0.8l-1.2-0.5l0,0l1.2,0.9l2.9,2.8l-1,1L24.2,40l1-1
			l4,1l0.9,0.4l0,0l-0.4-0.9l-1.1-3.9l1-1l5.5,5.5L34,41.2L31.1,38.3z"/>
		<path fill="#FFFFFF" d="M30.4,33.7l3.2-3.3l1,1l-2.2,2.2l1.3,1.3l2-2l1,1l-2,2l1.4,1.3l2.2-2.2l1,1L36,39.1L30.4,33.7z"/>
		<path fill="#FFFFFF" d="M40.8,29.6l-2,2l2.3,2.3L40.1,35l-5.5-5.5l1.1-1.1l2.2,2.2l2-2l-2.2-2.2l1.1-1.1l5.5,5.5l-1.1,1.1
			L40.8,29.6z"/>
		<path fill="#FFFFFF" d="M50.9,26l-0.8,0.8l-1.1-0.9l-3.5,3.6l0.9,1.1l-0.8,0.8l-1.9-1.9l0.6-0.6c0-0.1-0.1-0.3-0.2-0.6
			c-0.1-0.3-0.3-0.6-0.6-1.1c-0.3-0.4-0.7-1-1.2-1.6c-0.5-0.6-1.1-1.3-1.9-2l3.3-3.3l4.6,4.5l0.7-0.7L50.9,26z M47.2,25.9l-3.6-3.6
			l-1.2,1.2c0.9,1,1.6,1.8,2.1,2.5c0.5,0.7,0.8,1.3,0.9,1.6L47.2,25.9z"/>
		<path fill="#FFFFFF" d="M49,19.8l0.9,0.6l0,0l-0.6-0.9l-1.6-3.2l1.1-1.1l2.4,5.3c0.2,0.4,0.3,0.8,0.4,1.1c0.1,0.3,0.2,0.6,0.2,0.9
			s0,0.5-0.1,0.7c-0.1,0.2-0.2,0.4-0.4,0.6c-0.2,0.2-0.3,0.3-0.5,0.4c-0.1,0.1-0.3,0.2-0.5,0.2l-0.6-1.1c0.1,0,0.2-0.1,0.3-0.2
			c0.1-0.1,0.2-0.1,0.2-0.2c0.2-0.2,0.2-0.6-0.1-1.1l-6.1-1.9l1.3-1.3L49,19.8z"/>
		<path fill="#FFFFFF" d="M49.1,14.8l3.2-3.3l1,1l-2.2,2.2l1.3,1.3l2-2l1,1l-2,2l1.4,1.3L57,16l1,1l-3.3,3.3L49.1,14.8z"/>
		<path fill="#FFFFFF" d="M60.1,9l-1-1.2l0,0l0.5,1.2l0.9,3.2l-0.3,0.3l-3.3-0.8l-1.2-0.5l0,0l1.2,0.9l2.9,2.8l-1,1l-5.5-5.5l1-1
			l4,1l0.9,0.4l0,0l-0.4-0.9l-1.1-3.9l1-1l5.5,5.5L63,11.9L60.1,9z"/>
	</g>
	<g>
		<path fill="#FFFFFF" d="M14.8,23.8l6.3,6.2c0.2,0.2,0.3,0.4,0.3,0.6c0,0.2-0.1,0.5-0.3,0.6l-2.8,2.8c-0.2,0.2-0.4,0.3-0.6,0.3
			c-0.2,0-0.5-0.1-0.6-0.3l-6.3-6.2c-0.2-0.2-0.3-0.4-0.3-0.6c0-0.2,0.1-0.5,0.3-0.6l2.8-2.8c0.2-0.2,0.4-0.3,0.6-0.3
			C14.4,23.6,14.6,23.7,14.8,23.8z M26.3,12.2c0.6,0.6,0.9,1.2,0.9,2c0.4,0.2,0.7,0.4,0.9,0.6c0.5,0.5,0.8,1.1,0.9,1.8
			c0.5,0.3,0.9,0.6,1.1,1.1c0.3,0.5,0.4,1,0.4,1.4c0.8,0.7,1.2,1.4,1.3,2.2c0.1,0.9-0.3,1.8-1.2,2.7l-0.4,0.4l-0.7,0.7l-0.2,0.2
			c-0.4,0.4-0.9,0.9-1.6,1.3c-0.6,0.4-1.1,0.7-1.5,0.9c-0.4,0.2-0.9,0.5-1.6,0.8c-1.1,0.5-1.7,0.9-2,1.1c-0.2,0.2-0.4,0.2-0.6,0.3
			c-0.2,0-0.5-0.1-0.6-0.2l-6.3-6.3c-0.2-0.2-0.2-0.4-0.3-0.6s0.1-0.4,0.2-0.6c0.1-0.2,0.2-0.6,0.2-1.3c0-0.7-0.1-1.4-0.2-2.2
			c-0.1-1-0.2-1.7-0.2-2.2c0-0.2-0.1-0.5-0.2-0.8c-0.1-0.3-0.2-0.5-0.3-0.6c-0.1-0.1-0.2-0.4-0.5-0.7c-0.2-0.3-0.4-0.5-0.5-0.7
			c-0.1-0.2-0.2-0.4-0.3-0.7c-0.1-0.3-0.2-0.6-0.2-0.8c0-0.2,0.1-0.5,0.3-0.6c0.3-0.3,0.6-0.5,0.9-0.7c0.3-0.2,0.6-0.3,0.8-0.3
			c0.3-0.1,0.5-0.1,0.8,0c0.3,0.1,0.5,0.1,0.7,0.2c0.2,0.1,0.4,0.2,0.6,0.4c0.2,0.2,0.4,0.3,0.5,0.4c0.1,0.1,0.2,0.2,0.4,0.4
			c0.2,0.2,0.5,0.5,0.7,0.8c0.2,0.3,0.3,0.6,0.4,0.8c0.1,0.2,0.2,0.5,0.3,0.8c0,0.1,0,0.2,0.1,0.3c0,0.1,0.1,0.2,0.1,0.3
			c0,0.1,0.1,0.2,0.2,0.3l2.7-2.7c0.5-0.5,1.1-0.8,1.9-0.8C25.2,11.4,25.8,11.7,26.3,12.2z M18.2,30.4c-0.2-0.2-0.4-0.3-0.6-0.3
			c-0.2,0-0.5,0.1-0.6,0.3c-0.2,0.2-0.3,0.4-0.3,0.6c0,0.2,0.1,0.5,0.3,0.6c0.2,0.2,0.4,0.3,0.6,0.3c0.2,0,0.4-0.1,0.6-0.3
			c0.2-0.2,0.3-0.4,0.3-0.6C18.5,30.8,18.4,30.6,18.2,30.4z"/>
	</g>
</g>
</svg>
