<?xml version="1.0" standalone="no"?>
<!DOCTYPE svg PUBLIC "-//W3C//DTD SVG 20010904//EN"
 "http://www.w3.org/TR/2001/REC-SVG-20010904/DTD/svg10.dtd">
<svg version="1.0" xmlns="http://www.w3.org/2000/svg"
 width="100.000000pt" height="100.000000pt" viewBox="0 0 100.000000 100.000000"
 preserveAspectRatio="xMidYMid meet">
<metadata>
Created by potrace 1.11, written by Peter Selinger 2001-2013
</metadata>
<g transform="translate(0.000000,100.000000) scale(0.100000,-0.100000)"
fill="#000000" stroke="none">
<path d="M419 977 c-6 -10 -15 -14 -21 -10 -18 11 -57 10 -55 -2 1 -5 -6 -9
-17 -7 -12 2 -16 -1 -10 -9 5 -8 2 -11 -8 -6 -9 3 -24 -2 -35 -12 -10 -10 -25
-15 -32 -13 -8 3 -11 0 -8 -6 4 -5 -7 -15 -23 -22 -16 -7 -28 -16 -25 -20 2
-4 -7 -12 -20 -18 -14 -7 -24 -17 -23 -24 2 -7 -2 -12 -9 -11 -6 2 -15 -6 -18
-17 -4 -11 -10 -20 -15 -20 -5 0 -6 -7 -3 -17 4 -11 3 -14 -5 -9 -7 4 -12 1
-12 -8 0 -9 -5 -16 -12 -16 -6 0 -8 -3 -5 -7 4 -3 -1 -15 -10 -26 -10 -11 -12
-17 -6 -13 9 5 11 2 7 -8 -3 -9 -9 -16 -13 -16 -4 0 -8 -10 -9 -22 -4 -44 -8
-56 -22 -74 -14 -17 -14 -18 2 -5 20 15 25 2 6 -17 -7 -7 -13 -28 -13 -46 -1
-27 2 -33 14 -28 12 4 11 0 -3 -17 -13 -14 -15 -20 -5 -16 11 4 15 -6 16 -42
2 -27 9 -52 16 -58 8 -5 12 -16 10 -22 -3 -7 0 -13 5 -13 5 0 9 -8 8 -17 0
-10 5 -17 12 -15 8 1 11 -2 8 -7 -4 -5 0 -15 7 -23 14 -13 17 -21 17 -39 0 -5
5 -7 10 -4 6 3 10 1 10 -5 0 -12 70 -85 70 -73 0 4 6 0 13 -9 8 -9 20 -18 28
-20 7 -2 18 -9 24 -16 5 -7 21 -14 34 -17 14 -2 28 -10 32 -16 4 -6 12 -8 18
-5 6 4 11 3 11 -2 0 -5 11 -7 25 -4 15 2 25 0 25 -7 0 -7 -6 -9 -12 -5 -7 4
-9 3 -5 -1 10 -12 69 -16 62 -4 -4 5 -2 9 4 9 5 0 12 -6 14 -12 4 -10 8 -9 16
2 6 8 11 11 11 5 0 -5 11 -11 25 -11 14 -1 22 2 19 7 -3 5 7 4 22 -1 22 -9 25
-8 16 2 -8 10 -1 13 34 15 24 1 54 9 68 18 14 9 27 16 30 16 20 -3 26 1 26 17
0 14 2 15 10 2 7 -11 10 -11 10 -2 0 7 3 11 8 9 10 -7 32 19 24 29 -4 4 -2 5
3 1 6 -3 28 11 50 30 22 20 33 32 25 27 -8 -4 -1 6 15 23 40 40 57 63 49 63
-3 0 -1 7 6 15 7 8 9 15 5 15 -4 0 -1 7 6 16 19 24 40 86 25 77 -6 -3 -2 4 9
17 11 13 14 20 7 16 -6 -4 -12 -2 -12 3 0 6 4 11 9 11 11 0 10 179 -1 186 -4
3 -5 -3 -2 -13 5 -17 5 -17 -6 0 -6 10 -9 25 -6 32 3 9 -3 19 -15 25 -17 9
-23 7 -40 -14 -11 -14 -26 -23 -33 -20 -7 3 -16 -2 -19 -10 -4 -9 -12 -16 -18
-16 -8 0 -7 5 2 18 7 9 2 7 -12 -6 -14 -12 -30 -19 -34 -15 -5 5 -3 0 5 -11
18 -23 21 -46 7 -46 -8 0 -9 -3 -1 -8 13 -9 13 -72 -1 -72 -5 0 -3 -5 5 -10 9
-6 11 -10 3 -10 -7 0 -10 -7 -7 -15 4 -10 0 -15 -12 -15 -12 0 -15 -3 -7 -8
14 -9 -10 -72 -27 -72 -6 0 -8 -4 -5 -10 3 -5 2 -10 -4 -10 -5 0 -13 -9 -16
-20 -4 -11 -10 -18 -15 -15 -4 3 -11 -2 -14 -11 -3 -8 -11 -12 -16 -9 -6 4 -9
3 -8 -2 2 -4 -1 -9 -6 -10 -5 0 -13 -8 -18 -17 -5 -9 -13 -14 -19 -11 -5 4 -9
1 -9 -5 0 -6 -4 -9 -9 -5 -5 3 -13 0 -16 -6 -4 -5 -13 -8 -21 -5 -8 3 -14 1
-14 -3 0 -5 -11 -8 -25 -6 -15 1 -29 -4 -34 -12 -7 -13 -9 -13 -14 1 -5 13
-11 15 -25 7 -14 -7 -25 -6 -42 6 -13 9 -20 11 -16 5 5 -8 2 -10 -8 -6 -9 3
-16 9 -16 13 0 4 -10 8 -22 8 -13 1 -24 7 -26 13 -2 5 -10 10 -18 10 -8 0 -14
5 -14 10 0 6 -6 10 -14 10 -8 0 -23 14 -33 30 -9 16 -21 30 -26 30 -4 0 -15
16 -23 35 -9 24 -19 33 -27 28 -8 -5 -8 -2 1 9 9 11 10 18 2 23 -6 4 -8 16 -4
27 5 16 3 19 -7 12 -10 -6 -10 -3 1 11 12 15 12 17 1 10 -11 -6 -13 -3 -9 13
4 12 2 25 -3 28 -5 3 -9 11 -9 17 0 7 4 6 10 -3 7 -11 10 -7 11 20 3 56 19
102 39 115 5 3 8 11 5 16 -4 5 -1 9 5 9 6 0 8 5 5 10 -3 6 -2 10 4 10 5 0 26
16 45 36 22 23 40 33 48 28 7 -4 10 -4 6 1 -4 4 5 15 20 23 35 18 55 22 63 9
4 -5 10 0 14 12 6 21 7 22 22 4 8 -10 12 -13 9 -6 -4 6 -1 15 5 19 7 4 9 3 6
-3 -7 -10 26 -56 38 -53 12 4 65 -23 65 -32 0 -5 5 -6 10 -3 5 3 10 -1 10 -9
0 -9 6 -15 13 -13 6 1 11 -4 9 -11 -1 -8 2 -11 7 -8 5 4 17 -4 25 -16 9 -12
16 -19 16 -15 0 5 7 1 16 -7 8 -9 20 -14 25 -11 5 4 9 1 9 -4 0 -17 106 -14
123 4 8 8 17 12 20 9 3 -3 14 3 25 14 11 11 18 23 15 25 -2 3 5 8 17 12 12 4
19 13 16 20 -2 7 2 22 10 34 12 16 12 21 2 21 -8 0 -9 3 -3 8 16 11 19 45 3
37 -10 -6 -10 -5 -1 5 10 11 9 16 -5 27 -10 9 -11 12 -2 7 13 -7 13 -5 1 9 -7
9 -10 17 -5 17 5 0 2 6 -7 13 -8 7 -18 20 -22 30 -3 9 -13 17 -21 17 -7 0 -16
6 -19 14 -3 8 -16 12 -32 11 -17 -2 -25 1 -22 9 5 14 -78 15 -90 1 -5 -4 -2
-5 6 0 9 5 12 4 7 -3 -3 -6 -15 -9 -26 -7 -11 2 -20 -1 -20 -6 0 -6 -4 -7 -10
-4 -5 3 -10 1 -10 -6 0 -7 -3 -10 -6 -6 -4 3 -13 -1 -21 -9 -8 -8 -19 -12 -24
-9 -5 4 -9 -1 -9 -10 0 -9 -4 -14 -9 -10 -5 3 -12 1 -16 -5 -4 -6 -11 -8 -16
-5 -5 3 -6 -2 -2 -11 4 -11 2 -15 -4 -11 -5 3 -22 -7 -38 -23 -15 -15 -33 -26
-40 -23 -11 3 -10 8 3 22 9 10 20 16 23 14 4 -1 10 9 13 22 4 14 11 23 16 20
6 -3 10 0 10 7 0 7 9 19 21 26 15 10 18 16 10 26 -6 7 -9 15 -6 17 2 3 -6 5
-20 5 -13 0 -22 -3 -19 -7 2 -4 -3 -9 -11 -13 -8 -3 -17 0 -21 6 -4 7 -3 8 4
4 7 -4 12 -3 12 3 0 5 -23 9 -51 8 -37 -2 -53 -7 -60 -20z m76 3 c3 -6 -1 -7
-9 -4 -18 7 -21 14 -7 14 6 0 13 -4 16 -10z m86 -7 c13 -16 12 -17 -3 -4 -10
7 -18 15 -18 17 0 8 8 3 21 -13z m-556 -472 c3 -5 2 -12 -3 -15 -5 -3 -9 1 -9
9 0 17 3 19 12 6z"/>
</g>
</svg>
